SplineFontDB: 3.0
FontName: GEETHANJALI
FullName: GEETHANJALI
FamilyName: GEETHANJALI
Weight: BOLD
Copyright: This Font Software is licensed under the SIL Open Font License, Version 1.1.\nThis license is also available with a FAQ at:\nhttp://scripts.sil.org/OFL \n\nCopyright (c)2015 Deshabhimani Malayalam Daily\nhttp://www.deshabhimani.com
Version: GEETHANJALI:1.0
ItalicAngle: 0
UnderlinePosition: -520
UnderlineWidth: 34
Ascent: 1638
Descent: 410
sfntRevision: 0x00003333
LayerCount: 2
Layer: 0 1 "Back"  1
Layer: 1 1 "Fore"  0
XUID: [1021 290 499100961 3454005]
FSType: 0
OS2Version: 1
OS2_WeightWidthSlopeOnly: 0
OS2_UseTypoMetrics: 1
CreationTime: 1201144321
ModificationTime: 1456809715
PfmFamily: 81
TTFWeight: 400
TTFWidth: 5
LineGap: 0
VLineGap: 0
Panose: 0 0 6 3 0 0 0 0 0 0
OS2TypoAscent: 1638
OS2TypoAOffset: 0
OS2TypoDescent: -1100
OS2TypoDOffset: 0
OS2TypoLinegap: 0
OS2WinAscent: 1366
OS2WinAOffset: 0
OS2WinDescent: 1100
OS2WinDOffset: 0
HheadAscent: 1366
HheadAOffset: 0
HheadDescent: -1100
HheadDOffset: 0
OS2SubXSize: 1330
OS2SubYSize: 1228
OS2SubXOff: 0
OS2SubYOff: 152
OS2SupXSize: 1330
OS2SupYSize: 1430
OS2SupXOff: 0
OS2SupYOff: 980
OS2StrikeYSize: 102
OS2StrikeYPos: 512
OS2Vendor: 'PfEd'
OS2CodePages: 00000001.00000000
OS2UnicodeRanges: 80800001.00002000.00000000.00000000
Lookup: 4 0 0 "'akhn' Akhand in Malay+AQEA-lam2 lookup 0"  {"'akhn' Akhand in Malay+AQEA-lam2 lookup 0 subtable"  } ['akhn' ('mlm2' <'dflt' > ) ]
Lookup: 4 0 0 "'akhn' Akhand in Malay+AQEA-lam2 lookup 1"  {"'akhn' Akhand in Malay+AQEA-lam2 lookup 1 subtable"  } ['akhn' ('mlm2' <'dflt' > ) ]
Lookup: 4 0 0 "'blwf' Below Base Forms in Malay+AQEA-lam2 lookup 2"  {"'blwf' Below Base Forms in Malay+AQEA-lam2 lookup 2 subtable"  } ['blwf' ('mlm2' <'dflt' > ) ]
Lookup: 4 0 0 "'blws' Below Base Substitutions lookup 3"  {"'blws' Below Base Substitutions lookup 3 subtable"  } ['blws' ('mlm2' <'dflt' > 'mlym' <'dflt' > ) ]

StartChar: .notdef
Encoding: 205 -1 0
Width: 752
GlyphClass: 2
Flags: W
LayerCount: 2
Fore
SplineSet
232 60 m 1,0,-1
 685 60 l 1,1,-1
 685 984 l 1,2,-1
 232 984 l 1,3,-1
 232 60 l 1,0,-1
170 -60 m 1,4,-1
 170 1104 l 1,5,-1
 752 1104 l 1,6,-1
 752 -60 l 1,7,-1
 170 -60 l 1,4,-1
EndSplineSet
Validated: 1
EndChar

StartChar: aexc
Encoding: 2 33 5
Width: 376
GlyphClass: 2
Flags: W
LayerCount: 2
Fore
SplineSet
174.816 293.48 m 1,0,-1
 174.816 1206.89 l 1,1,-1
 357.088 1206.89 l 1,2,-1
 357.088 293.48 l 1,3,-1
 174.816 293.48 l 1,0,-1
371.426 129.64 m 0,4,5
 371.426 74.6299 371.426 74.6299 335.195 32.5029 c 128,-1,6
 298.966 -9.62402 298.966 -9.62402 252.641 -9.62402 c 0,7,8
 208.056 -9.62402 208.056 -9.62402 174.027 32.3848 c 128,-1,9
 140 74.3936 140 74.3936 140 129.64 c 0,10,11
 140 190.397 140 190.397 173.917 223.507 c 128,-1,12
 207.834 256.616 207.834 256.616 254.688 256.616 c 128,-1,13
 301.404 256.616 301.404 256.616 336.414 222.827 c 128,-1,14
 371.426 189.038 371.426 189.038 371.426 129.64 c 0,4,5
EndSplineSet
Validated: 1
EndChar

StartChar: aDQ
Encoding: 3 34 6
Width: 755
GlyphClass: 2
Flags: W
LayerCount: 2
Fore
SplineSet
280.088 1210.98 m 5,0,1
 280.661 1163.96 280.661 1163.96 269.271 1106.16 c 132,-1,2
 257.879 1048.36 257.879 1048.36 241.213 999.46 c 132,-1,3
 224.546 950.561 224.546 950.561 207.798 908.375 c 132,-1,4
 191.049 866.19 191.049 866.19 179.249 841.979 c 6,5,-1
 167.448 817.768 l 5,6,-1
 42.5195 817.768 l 5,7,8
 44.4014 822.355 44.4014 822.355 47.5742 830.616 c 132,-1,9
 50.7471 838.877 50.7471 838.877 59.4609 865.069 c 132,-1,10
 68.1748 891.263 68.1748 891.263 75.5654 917.92 c 132,-1,11
 82.957 944.58 82.957 944.58 90.8916 982.93 c 132,-1,12
 98.8271 1021.29 98.8271 1021.29 102.984 1057.1 c 132,-1,13
 107.142 1092.92 107.142 1092.92 106.847 1134.19 c 132,-1,14
 106.552 1175.46 106.552 1175.46 99.8643 1210.98 c 5,15,-1
 280.088 1210.98 l 5,0,1
521.088 1210.98 m 5,16,17
 521.661 1163.96 521.661 1163.96 510.271 1106.16 c 132,-1,18
 498.879 1048.36 498.879 1048.36 482.213 999.46 c 132,-1,19
 465.546 950.561 465.546 950.561 448.798 908.375 c 132,-1,20
 432.049 866.19 432.049 866.19 420.249 841.979 c 6,21,-1
 408.448 817.768 l 5,22,-1
 283.52 817.768 l 5,23,24
 285.401 822.355 285.401 822.355 288.574 830.616 c 132,-1,25
 291.747 838.877 291.747 838.877 300.461 865.069 c 132,-1,26
 309.175 891.263 309.175 891.263 316.565 917.92 c 132,-1,27
 323.957 944.58 323.957 944.58 331.892 982.93 c 132,-1,28
 339.827 1021.29 339.827 1021.29 343.984 1057.1 c 132,-1,29
 348.142 1092.92 348.142 1092.92 347.847 1134.19 c 132,-1,30
 347.552 1175.46 347.552 1175.46 340.864 1210.98 c 5,31,-1
 521.088 1210.98 l 5,16,17
EndSplineSet
Validated: 33
EndChar

StartChar: ahs
Encoding: 4 35 7
Width: 885
GlyphClass: 2
Flags: W
LayerCount: 2
Fore
SplineSet
466 914 m 1,0,-1
 301 -164 l 1,1,-1
 221 2 l 1,2,-1
 386 1080 l 1,3,-1
 466 914 l 1,0,-1
185 554 m 1,4,-1
 185 705 l 1,5,-1
 880 705 l 1,6,-1
 880 554 l 1,7,-1
 185 554 l 1,4,-1
774 914 m 1,8,-1
 609 -164 l 1,9,-1
 521 -164 l 1,10,-1
 520 -18 l 1,11,-1
 685 1060 l 1,12,-1
 774 914 l 1,8,-1
140 187 m 1,13,-1
 140 338 l 1,14,-1
 835 338 l 1,15,-1
 835 187 l 1,16,-1
 140 187 l 1,13,-1
523 -164 m 1,17,-1
 522 -18 l 1,18,-1
 611 -19 l 1,19,-1
 611 -164 l 1,20,-1
 523 -164 l 1,17,-1
EndSplineSet
Validated: 5
EndChar

StartChar: adlr
Encoding: 5 36 8
Width: 1000
GlyphClass: 2
Flags: W
LayerCount: 2
Fore
SplineSet
302 257 m 1,0,-1
 301 223 l 1,1,2
 301 126 301 126 374 81 c 0,3,4
 421 51 421 51 490 40 c 1,5,-1
 490 424 l 1,6,7
 409 443 409 443 339 477 c 0,8,9
 265 513 265 513 215.5 573.5 c 128,-1,10
 166 634 166 634 166 726 c 128,-1,11
 166 818 166 818 198 875 c 128,-1,12
 230 932 230 932 284 970 c 0,13,14
 366 1028 366 1028 491 1041 c 1,15,16
 491 1089 491 1089 491 1138 c 1,17,-1
 650 1138 l 1,18,-1
 650 1041 l 1,19,20
 769 1027 769 1027 850 972 c 1,21,22
 966 891 966 891 966 731 c 2,23,-1
 966 711 l 1,24,-1
 805 711 l 1,25,-1
 805 736 l 2,26,27
 805 816 805 816 740 858 c 0,28,29
 701 883 701 883 650 893 c 1,30,-1
 649 552 l 1,31,32
 655 551 655 551 661 549 c 0,33,34
 748 529 748 529 822.5 494 c 128,-1,35
 897 459 897 459 946 399 c 128,-1,36
 995 339 995 339 995 241 c 0,37,38
 995 141 995 141 962.5 74.5 c 128,-1,39
 930 8 930 8 872 -33 c 0,40,41
 786 -94 786 -94 649 -107 c 1,42,-1
 649 -214 l 1,43,-1
 490 -214 l 1,44,45
 490 -161 490 -161 490 -108 c 1,46,47
 258 -86 258 -86 174 69 c 0,48,49
 140 133 140 133 140 225 c 1,50,-1
 142 257 l 1,51,-1
 302 257 l 1,0,-1
649 41 m 1,52,53
 717 51 717 51 763 80 c 0,54,55
 834 125 834 125 834 203.5 c 128,-1,56
 834 282 834 282 785 319 c 128,-1,57
 736 356 736 356 662 379 c 0,58,59
 655 381 655 381 649 383 c 1,60,-1
 649 41 l 1,52,53
491 894 m 1,61,62
 387 878 387 878 346 818 c 0,63,64
 326 790 326 790 326 751 c 0,65,66
 326 685 326 685 376 651 c 1,67,68
 422 618 422 618 490 596 c 1,69,-1
 491 894 l 1,61,62
EndSplineSet
Validated: 1
EndChar

StartChar: aprc
Encoding: 6 37 9
Width: 1132
GlyphClass: 2
Flags: W
LayerCount: 2
Fore
SplineSet
606.943 819.816 m 0,0,1
 606.943 717.233 606.943 717.233 537.21 646.668 c 128,-1,2
 467.475 576.104 467.475 576.104 373.472 576.104 c 0,3,4
 278.291 576.104 278.291 576.104 209.146 646.491 c 128,-1,5
 140 716.879 140 716.879 140 819.816 c 0,6,7
 140 921.93 140 921.93 208.73 992.73 c 128,-1,8
 277.462 1063.53 277.462 1063.53 373.472 1063.53 c 0,9,10
 468.302 1063.53 468.302 1063.53 537.623 992.55 c 128,-1,11
 606.943 921.57 606.943 921.57 606.943 819.816 c 0,0,1
1000.16 1020.52 m 1,12,-1
 451.296 -1.43164 l 1,13,-1
 254.688 -1.43164 l 1,14,-1
 809.696 1020.52 l 1,15,-1
 1000.16 1020.52 l 1,12,-1
1127.13 217.704 m 0,16,17
 1127.13 117.352 1127.13 117.352 1056.48 46.6963 c 128,-1,18
 985.824 -23.96 985.824 -23.96 889.568 -23.96 c 0,19,20
 794.945 -23.96 794.945 -23.96 727.568 45.8975 c 128,-1,21
 660.193 115.753 660.193 115.753 660.193 217.704 c 128,-1,22
 660.193 319.847 660.193 319.847 727.666 390.631 c 128,-1,23
 795.139 461.416 795.139 461.416 889.568 461.416 c 0,24,25
 985.979 461.416 985.979 461.416 1056.56 390.423 c 128,-1,26
 1127.13 319.429 1127.13 319.429 1127.13 217.704 c 0,16,17
436.96 819.816 m 0,27,28
 436.96 851.525 436.96 851.525 419.415 873.558 c 128,-1,29
 401.869 895.592 401.869 895.592 373.472 895.592 c 0,30,31
 343.51 895.592 343.51 895.592 324.699 873.509 c 128,-1,32
 305.888 851.427 305.888 851.427 305.888 819.816 c 0,33,34
 305.888 785.887 305.888 785.887 324.189 761.892 c 128,-1,35
 342.491 737.896 342.491 737.896 373.472 737.896 c 0,36,37
 401.71 737.896 401.71 737.896 419.335 762.079 c 128,-1,38
 436.96 786.262 436.96 786.262 436.96 819.816 c 0,27,28
955.104 221.8 m 0,39,40
 955.104 254.579 955.104 254.579 936.445 276.078 c 128,-1,41
 917.786 297.576 917.786 297.576 887.52 297.576 c 0,42,43
 858.636 297.576 858.636 297.576 840.31 275.992 c 128,-1,44
 821.984 254.408 821.984 254.408 821.984 221.8 c 0,45,46
 821.984 189.931 821.984 189.931 840.605 165.929 c 128,-1,47
 859.229 141.928 859.229 141.928 887.52 141.928 c 0,48,49
 918.373 141.928 918.373 141.928 936.738 165.599 c 128,-1,50
 955.104 189.271 955.104 189.271 955.104 221.8 c 0,39,40
EndSplineSet
Validated: 1
EndChar

StartChar: aamp
Encoding: 7 38 10
Width: 915
GlyphClass: 2
Flags: W
LayerCount: 2
Fore
SplineSet
910.048 416.36 m 1,0,-1
 787.168 416.36 l 1,1,-1
 787.168 154.216 l 1,2,3
 762.483 110.656 762.483 110.656 721.735 77.4814 c 128,-1,4
 680.987 44.3047 680.987 44.3047 635.256 26.2793 c 128,-1,5
 589.524 8.25293 589.524 8.25293 548.424 -0.855469 c 128,-1,6
 507.322 -9.96289 507.322 -9.96289 469.728 -11.6719 c 0,7,8
 316.943 -16.166 316.943 -16.166 228.472 69.8926 c 128,-1,9
 140 155.952 140 155.952 140 293.48 c 0,10,11
 140 368.605 140 368.605 166.068 425.482 c 128,-1,12
 192.138 482.359 192.138 482.359 238.304 508.52 c 1,13,14
 156.384 559.721 156.384 559.721 156.384 713.32 c 0,15,16
 157.373 779.588 157.373 779.588 178.887 831.667 c 128,-1,17
 200.4 883.746 200.4 883.746 236.45 915.74 c 128,-1,18
 272.501 947.74 272.501 947.74 318.567 967.84 c 128,-1,19
 364.636 987.939 364.636 987.939 416.522 993.26 c 128,-1,20
 468.41 998.58 468.41 998.58 519.688 994.1 c 128,-1,21
 570.967 989.63 570.967 989.63 619.231 975.46 c 1,22,-1
 619.231 793.192 l 1,23,24
 480.278 851.648 480.278 851.648 394.16 792.508 c 0,25,26
 338.767 754.467 338.767 754.467 335.302 691.905 c 0,27,28
 331.93 630.996 331.93 630.996 381.578 602.142 c 0,29,30
 408.764 586.344 408.764 586.344 447.199 586.344 c 2,31,-1
 611.039 586.344 l 1,32,-1
 611.039 709.224 l 1,33,-1
 787.168 709.224 l 1,34,-1
 787.168 586.344 l 1,35,-1
 910.048 586.344 l 1,36,-1
 910.048 416.36 l 1,0,-1
608.991 223.848 m 1,37,-1
 608.991 416.36 l 1,38,-1
 430.815 416.36 l 2,39,40
 389.093 416.36 389.093 416.36 360.488 388.733 c 128,-1,41
 331.885 361.106 331.885 361.106 324.022 324.083 c 128,-1,42
 316.16 287.06 316.16 287.06 328.553 247.741 c 128,-1,43
 340.944 208.423 340.944 208.423 373.472 186.984 c 0,44,45
 388.296 176.793 388.296 176.793 409.688 170.357 c 128,-1,46
 431.078 163.921 431.078 163.921 461.96 162.331 c 128,-1,47
 492.842 160.741 492.842 160.741 531.862 176.117 c 128,-1,48
 570.885 191.493 570.885 191.493 608.991 223.848 c 1,37,-1
EndSplineSet
Validated: 33
EndChar

StartChar: aSQ
Encoding: 8 39 11
Width: 457
GlyphClass: 2
Flags: W
LayerCount: 2
Fore
SplineSet
262.088 1210.98 m 5,0,1
 262.661 1163.96 262.661 1163.96 251.271 1106.16 c 132,-1,2
 239.879 1048.36 239.879 1048.36 223.213 999.46 c 132,-1,3
 206.546 950.561 206.546 950.561 189.798 908.375 c 132,-1,4
 173.049 866.19 173.049 866.19 161.249 841.979 c 6,5,-1
 149.448 817.768 l 5,6,-1
 24.5195 817.768 l 5,7,8
 26.4014 822.355 26.4014 822.355 29.5742 830.616 c 132,-1,9
 32.7471 838.877 32.7471 838.877 41.4609 865.069 c 132,-1,10
 50.1748 891.263 50.1748 891.263 57.5654 917.92 c 132,-1,11
 64.957 944.58 64.957 944.58 72.8916 982.93 c 132,-1,12
 80.8271 1021.29 80.8271 1021.29 84.9844 1057.1 c 132,-1,13
 89.1416 1092.92 89.1416 1092.92 88.8467 1134.19 c 132,-1,14
 88.5518 1175.46 88.5518 1175.46 81.8643 1210.98 c 5,15,-1
 262.088 1210.98 l 5,0,1
EndSplineSet
Validated: 33
EndChar

StartChar: apl
Encoding: 9 40 12
Width: 425
GlyphClass: 2
Flags: W
LayerCount: 2
Fore
SplineSet
420.576 -163.224 m 5,0,-1
 252.641 -163.224 l 5,1,2
 140 121.341 140 121.341 140 416.36 c 4,3,4
 140 565.128 140 565.128 165.287 730.282 c 132,-1,5
 190.573 895.435 190.573 895.435 242.4 1030.76 c 5,6,-1
 416.48 1030.76 l 5,7,8
 303.84 793.495 303.84 793.495 303.84 416.36 c 4,9,10
 303.84 274.397 303.84 274.397 327.245 150.277 c 132,-1,11
 350.651 26.1562 350.651 26.1562 420.576 -163.224 c 5,0,-1
EndSplineSet
Validated: 1
EndChar

StartChar: apr
Encoding: 10 41 13
Width: 425
GlyphClass: 2
Flags: W
LayerCount: 2
Fore
SplineSet
140 -163.224 m 5,0,-1
 307.936 -163.224 l 5,1,2
 420.576 121.341 420.576 121.341 420.576 416.36 c 4,3,4
 420.576 565.129 420.576 565.129 395.289 730.281 c 132,-1,5
 370.003 895.435 370.003 895.435 318.176 1030.76 c 5,6,-1
 144.096 1030.76 l 5,7,8
 256.736 793.495 256.736 793.495 256.736 416.36 c 4,9,10
 256.736 274.397 256.736 274.397 233.331 150.276 c 132,-1,11
 209.924 26.1562 209.924 26.1562 140 -163.224 c 5,0,-1
EndSplineSet
Validated: 9
EndChar

StartChar: astr
Encoding: 11 42 14
Width: 642
GlyphClass: 2
Flags: W
LayerCount: 2
Fore
SplineSet
637.664 698.984 m 1,0,-1
 516.832 664.168 l 1,1,-1
 594.656 578.152 l 1,2,-1
 461.536 485.992 l 1,3,-1
 387.809 582.248 l 1,4,-1
 318.177 485.992 l 1,5,-1
 180.96 578.152 l 1,6,-1
 260.832 664.168 l 1,7,-1
 140 698.984 l 1,8,-1
 193.248 838.248 l 1,9,-1
 309.984 799.336 l 1,10,-1
 289.504 930.41 l 1,11,-1
 484.064 930.41 l 1,12,-1
 463.584 799.336 l 1,13,-1
 586.465 838.248 l 1,14,-1
 637.664 698.984 l 1,0,-1
EndSplineSet
Validated: 1
EndChar

StartChar: apls
Encoding: 12 43 15
Width: 765
GlyphClass: 2
Flags: W
LayerCount: 2
Fore
SplineSet
760.544 232.04 m 1,0,-1
 535.265 232.04 l 1,1,-1
 535.265 25.1924 l 1,2,-1
 363.232 25.1924 l 1,3,-1
 363.232 232.04 l 1,4,-1
 140 232.04 l 1,5,-1
 140 395.88 l 1,6,-1
 363.232 395.88 l 1,7,-1
 363.232 619.112 l 1,8,-1
 535.265 619.112 l 1,9,-1
 535.265 395.88 l 1,10,-1
 760.544 395.88 l 1,11,-1
 760.544 232.04 l 1,0,-1
EndSplineSet
Validated: 1
EndChar

StartChar: acm
Encoding: 13 44 16
Width: 531
GlyphClass: 2
Flags: W
LayerCount: 2
Fore
SplineSet
296.96 109.16 m 1,0,1
 296.869 97.418 296.869 97.418 296.148 77.3594 c 128,-1,2
 295.427 57.3008 295.427 57.3008 289.76 2.20508 c 128,-1,3
 284.094 -52.8916 284.094 -52.8916 274.587 -100.178 c 128,-1,4
 265.079 -147.464 265.079 -147.464 244.606 -198.926 c 128,-1,5
 224.133 -250.387 224.133 -250.387 196.608 -277.912 c 1,6,-1
 63.4883 -277.912 l 1,7,8
 92.1602 -233.184 92.1602 -233.184 110.09 -176.861 c 128,-1,9
 128.02 -120.54 128.02 -120.54 133.13 -72.1064 c 128,-1,10
 138.24 -23.6729 138.24 -23.6729 139.254 18.3701 c 128,-1,11
 140.267 60.4141 140.267 60.4141 137.718 84.7871 c 2,12,-1
 135.168 109.16 l 1,13,-1
 296.96 109.16 l 1,0,1
EndSplineSet
Validated: 33
EndChar

StartChar: aHP
Encoding: 14 45 17
Width: 857
GlyphClass: 2
Flags: W
LayerCount: 2
Fore
SplineSet
852.704 391.784 m 1,0,-1
 140 391.784 l 1,1,-1
 140 531.048 l 1,2,-1
 852.704 531.048 l 1,3,-1
 852.704 391.784 l 1,0,-1
EndSplineSet
Validated: 1
EndChar

StartChar: aprd
Encoding: 15 46 18
Width: 487
GlyphClass: 2
Flags: W
LayerCount: 2
Fore
SplineSet
309.248 111.208 m 0,0,1
 309.248 62.0059 309.248 62.0059 274.921 25.167 c 128,-1,2
 240.593 -11.6719 240.593 -11.6719 194.56 -11.6719 c 0,3,4
 149.713 -11.6719 149.713 -11.6719 114.793 25.3516 c 128,-1,5
 79.8721 62.377 79.8721 62.377 79.8721 111.208 c 0,6,7
 79.8721 159.324 79.8721 159.324 114.406 192.61 c 128,-1,8
 148.941 225.896 148.941 225.896 194.56 225.896 c 0,9,10
 241.357 225.896 241.357 225.896 275.302 192.779 c 128,-1,11
 309.248 159.661 309.248 159.661 309.248 111.208 c 0,0,1
EndSplineSet
Validated: 1
EndChar

StartChar: aslh
Encoding: 16 47 19
Width: 878
GlyphClass: 2
Flags: W
LayerCount: 2
Fore
SplineSet
873.185 952.939 m 1,0,-1
 332.512 -193.944 l 1,1,-1
 140 -193.944 l 1,2,-1
 676.576 952.939 l 1,3,-1
 873.185 952.939 l 1,0,-1
EndSplineSet
Validated: 1
EndChar

StartChar: a0
Encoding: 17 48 20
Width: 827
GlyphClass: 2
Flags: W
LayerCount: 2
Fore
SplineSet
821.983 479.848 m 4,0,1
 818.973 255.501 818.973 255.501 721.23 119.389 c 132,-1,2
 623.488 -16.7227 623.488 -16.7227 475.872 -19.8643 c 4,3,4
 381.174 -21.8789 381.174 -21.8789 304.059 44.2129 c 132,-1,5
 226.943 110.305 226.943 110.305 183.472 227.355 c 132,-1,6
 140 344.405 140 344.405 140 488.04 c 4,7,8
 140 726.735 140 726.735 233.064 861.34 c 132,-1,9
 326.13 995.939 326.13 995.939 475.872 995.939 c 4,10,11
 633.753 995.939 633.753 995.939 729.367 860.091 c 132,-1,12
 824.981 724.238 824.981 724.238 821.983 479.848 c 4,0,1
641.76 485.992 m 4,13,14
 643.806 578.065 643.806 578.065 623.75 655.442 c 132,-1,15
 603.693 732.82 603.693 732.82 564.196 779.39 c 132,-1,16
 524.698 825.96 524.698 825.96 473.823 825.96 c 4,17,18
 424.094 825.96 424.094 825.96 387.151 773.663 c 132,-1,19
 350.209 721.367 350.209 721.367 333.169 644.785 c 132,-1,20
 316.128 568.203 316.128 568.203 316.128 481.896 c 4,21,22
 316.128 396.718 316.128 396.718 333.699 323.898 c 132,-1,23
 351.271 251.077 351.271 251.077 387.985 203.67 c 132,-1,24
 424.7 156.264 424.7 156.264 473.823 156.264 c 4,25,26
 528.252 156.264 528.252 156.264 565.712 200.373 c 132,-1,27
 603.172 244.483 603.172 244.483 620.869 316.272 c 132,-1,28
 638.565 388.061 638.565 388.061 641.76 485.992 c 4,13,14
EndSplineSet
Validated: 33
EndChar

StartChar: a1
Encoding: 18 49 21
Width: 505
GlyphClass: 2
Flags: W
LayerCount: 2
Fore
SplineSet
500.447 0.616211 m 1,0,-1
 324.319 0.616211 l 1,1,-1
 324.319 676.456 l 1,2,3
 322.993 675.237 322.993 675.237 320.188 672.613 c 0,4,5
 305.241 658.665 305.241 658.665 294.092 650.092 c 128,-1,6
 282.941 641.519 282.941 641.519 260.438 628.259 c 128,-1,7
 237.933 614.999 237.933 614.999 207.458 607.5 c 128,-1,8
 176.982 600.001 176.982 600.001 140 598.632 c 1,9,-1
 140 789.096 l 1,10,11
 172.97 790.273 172.97 790.273 204.135 803.081 c 128,-1,12
 235.299 815.889 235.299 815.889 257.481 831.98 c 128,-1,13
 279.665 848.07 279.665 848.07 304.896 876.547 c 128,-1,14
 330.126 905.024 330.126 905.024 343.988 924.12 c 128,-1,15
 357.853 943.22 357.853 943.22 379.615 975.46 c 1,16,-1
 500.447 975.46 l 1,17,-1
 500.447 0.616211 l 1,0,-1
EndSplineSet
Validated: 1
EndChar

StartChar: a2
Encoding: 19 50 22
Width: 736
GlyphClass: 2
Flags: W
LayerCount: 2
Fore
SplineSet
731.917 -1.43164 m 1,0,-1
 140.046 -3.48047 l 1,1,-1
 140.046 166.504 l 1,2,3
 189.458 188.74 189.458 188.74 213.772 200.384 c 128,-1,4
 238.086 212.029 238.086 212.029 270.948 230.928 c 128,-1,5
 303.811 249.827 303.811 249.827 322.581 266.11 c 128,-1,6
 341.354 282.393 341.354 282.393 368.038 309.738 c 128,-1,7
 394.725 337.083 394.725 337.083 419.104 370.065 c 128,-1,8
 443.482 403.046 443.482 403.046 475.917 451.176 c 0,9,10
 506.199 496.987 506.199 496.987 521.254 557.595 c 128,-1,11
 536.309 618.203 536.309 618.203 532.725 673.557 c 128,-1,12
 529.141 728.911 529.141 728.911 496.165 767.196 c 128,-1,13
 463.19 805.48 463.19 805.48 404.237 805.48 c 0,14,15
 360.816 805.48 360.816 805.48 336.446 759.938 c 128,-1,16
 312.077 714.394 312.077 714.394 312.077 641.64 c 1,17,-1
 140.046 641.64 l 1,18,19
 139.405 695.389 139.405 695.389 147.71 744.959 c 128,-1,20
 156.016 794.53 156.016 794.53 176.421 841.49 c 128,-1,21
 196.826 888.45 196.826 888.45 227.697 923.15 c 128,-1,22
 258.568 957.85 258.568 957.85 306.542 979.38 c 128,-1,23
 354.518 1000.9 354.518 1000.9 414.478 1002.09 c 0,24,25
 459.849 1002.74 459.849 1002.74 501.68 993.21 c 128,-1,26
 543.512 983.68 543.512 983.68 584.341 959.21 c 128,-1,27
 625.17 934.75 625.17 934.75 655.034 897.261 c 128,-1,28
 684.899 859.773 684.899 859.773 703.288 799.862 c 128,-1,29
 721.678 739.952 721.678 739.952 721.678 664.168 c 0,30,31
 721.678 593.763 721.678 593.763 706.845 529.876 c 128,-1,32
 692.012 465.99 692.012 465.99 670.845 419.498 c 128,-1,33
 649.677 373.006 649.677 373.006 613.75 324.421 c 128,-1,34
 577.825 275.836 577.825 275.836 548.75 245.008 c 128,-1,35
 519.677 214.181 519.677 214.181 475.917 172.648 c 1,36,-1
 731.917 172.648 l 1,37,-1
 731.917 -1.43164 l 1,0,-1
EndSplineSet
Validated: 33
EndChar

StartChar: a3
Encoding: 20 51 23
Width: 732
GlyphClass: 2
Flags: W
LayerCount: 2
Fore
SplineSet
727.775 295.528 m 0,0,1
 727.775 160.938 727.775 160.938 643.584 75.1338 c 128,-1,2
 559.391 -10.6689 559.391 -10.6689 420.575 -13.7197 c 0,3,4
 257.464 -17.7969 257.464 -17.7969 140 82.5361 c 1,5,-1
 140 299.624 l 1,6,7
 180.036 251.344 180.036 251.344 234.001 221.163 c 128,-1,8
 287.964 190.981 287.964 190.981 339.24 184.327 c 128,-1,9
 390.518 177.673 390.518 177.673 435.393 185.872 c 128,-1,10
 480.268 194.07 480.268 194.07 508.191 221.29 c 128,-1,11
 536.116 248.51 536.116 248.51 537.312 287.336 c 0,12,13
 538.822 330.408 538.822 330.408 525.567 357.256 c 128,-1,14
 512.312 384.104 512.312 384.104 484.832 396.648 c 128,-1,15
 457.351 409.192 457.351 409.192 416.062 412.616 c 128,-1,16
 374.776 416.04 374.776 416.04 320.224 412.264 c 1,17,-1
 320.224 596.584 l 1,18,19
 428.756 593.527 428.756 593.527 472.021 617.684 c 128,-1,20
 515.287 641.841 515.287 641.841 516.832 705.128 c 0,21,22
 517.826 764.774 517.826 764.774 469.236 791.956 c 128,-1,23
 420.646 819.138 420.646 819.138 344.608 806.716 c 128,-1,24
 268.569 794.294 268.569 794.294 193.248 746.088 c 1,25,-1
 193.248 946.79 l 1,26,27
 245.464 970.41 245.464 970.41 271.389 980 c 128,-1,28
 297.312 989.59 297.312 989.59 341.068 996.86 c 128,-1,29
 384.823 1004.14 384.823 1004.14 445.151 1004.14 c 0,30,31
 565.979 1004.14 565.979 1004.14 644.771 919.63 c 128,-1,32
 723.562 835.122 723.562 835.122 717.535 701.032 c 0,33,34
 714.601 649.176 714.601 649.176 700.001 613.167 c 128,-1,35
 685.4 577.158 685.4 577.158 666.805 558.156 c 128,-1,36
 648.208 539.154 648.208 539.154 615.136 516.712 c 1,37,38
 666.674 488.6 666.674 488.6 697.225 429.879 c 128,-1,39
 727.775 371.158 727.775 371.158 727.775 295.528 c 0,0,1
EndSplineSet
Validated: 33
EndChar

StartChar: a4
Encoding: 21 52 24
Width: 853
GlyphClass: 2
Flags: W
LayerCount: 2
Fore
SplineSet
848.607 150.12 m 5,0,-1
 740.062 150.12 l 5,1,-1
 740.062 0.616211 l 5,2,-1
 565.983 0.616211 l 5,3,-1
 565.983 150.12 l 5,4,-1
 140 150.12 l 5,5,-1
 140 330.344 l 5,6,7
 244.786 403.529 244.786 403.529 343.854 575.594 c 132,-1,8
 442.923 747.659 442.923 747.659 492.256 975.46 c 5,9,-1
 740.062 975.46 l 5,10,-1
 740.062 322.152 l 5,11,-1
 848.607 322.152 l 5,12,-1
 848.607 150.12 l 5,0,-1
568.031 322.152 m 5,13,-1
 568.031 731.752 l 5,14,-1
 563.936 731.752 l 5,15,16
 552.805 681.292 552.805 681.292 542.766 644.274 c 132,-1,17
 532.726 607.255 532.726 607.255 513.491 557.005 c 132,-1,18
 494.258 506.754 494.258 506.754 471.43 469.129 c 132,-1,19
 448.601 431.503 448.601 431.503 412.665 393.164 c 132,-1,20
 376.728 354.826 376.728 354.826 332.512 328.296 c 5,21,-1
 332.512 322.152 l 5,22,-1
 568.031 322.152 l 5,13,-1
EndSplineSet
Validated: 1
EndChar

StartChar: a5
Encoding: 22 53 25
Width: 833
GlyphClass: 2
Flags: W
LayerCount: 2
Fore
SplineSet
828.127 340.584 m 0,0,1
 820.516 171.607 820.516 171.607 716.031 71.5273 c 128,-1,2
 611.548 -28.5537 611.548 -28.5537 447.198 -30.1045 c 0,3,4
 268.283 -32.8154 268.283 -32.8154 140 103.016 c 1,5,-1
 180.959 342.632 l 1,6,7
 207.299 269.808 207.299 269.808 275.146 223.513 c 128,-1,8
 342.992 177.218 342.992 177.218 432.862 172.648 c 1,9,10
 514.725 169.616 514.725 169.616 568.981 218.205 c 128,-1,11
 623.239 266.793 623.239 266.793 629.471 344.68 c 0,12,13
 635.387 415.67 635.387 415.67 592.718 464.435 c 128,-1,14
 550.048 513.2 550.048 513.2 484.062 522.856 c 0,15,16
 353.061 543.405 353.061 543.405 275.167 465.512 c 1,17,-1
 203.486 481.896 l 1,18,-1
 287.455 977.51 l 1,19,-1
 729.822 977.51 l 1,20,-1
 729.822 805.48 l 1,21,-1
 434.911 805.48 l 1,22,-1
 414.431 684.648 l 1,23,24
 438.728 699.496 438.728 699.496 498.175 699.496 c 128,-1,25
 557.622 699.496 557.622 699.496 586.463 692.84 c 1,26,27
 839.225 623.59 839.225 623.59 828.127 340.584 c 0,0,1
EndSplineSet
Validated: 33
EndChar

StartChar: a6
Encoding: 23 54 26
Width: 743
GlyphClass: 2
Flags: W
LayerCount: 2
Fore
SplineSet
140.196 469.608 m 0,0,1
 142.276 622.454 142.276 622.454 175.906 736.49 c 128,-1,2
 209.536 850.526 209.536 850.526 277.884 918.16 c 128,-1,3
 346.231 985.8 346.231 985.8 443.301 989.8 c 1,4,5
 474.106 992.86 474.106 992.86 508.74 990.47 c 128,-1,6
 543.374 988.09 543.374 988.09 575.141 981.35 c 128,-1,7
 606.906 974.62 606.906 974.62 641.156 954.95 c 128,-1,8
 675.406 935.29 675.406 935.29 705.444 903.784 c 1,9,-1
 705.444 709.224 l 1,10,11
 677.696 749.92 677.696 749.92 615.482 786.59 c 128,-1,12
 553.269 823.259 553.269 823.259 486.309 821.864 c 0,13,14
 462.99 821.198 462.99 821.198 443.038 815.101 c 128,-1,15
 423.085 809.004 423.085 809.004 408.216 800.587 c 128,-1,16
 393.346 792.171 393.346 792.171 380.704 776.927 c 128,-1,17
 368.064 761.684 368.064 761.684 359.637 748.896 c 128,-1,18
 351.208 736.108 351.208 736.108 343.857 714.684 c 128,-1,19
 336.506 693.26 336.506 693.26 332.498 679.067 c 128,-1,20
 328.49 664.874 328.49 664.874 324.405 640.237 c 128,-1,21
 320.32 615.6 320.32 615.6 318.71 602.968 c 128,-1,22
 317.101 590.336 317.101 590.336 314.276 565.864 c 1,23,-1
 318.372 565.864 l 1,24,25
 321.286 605.688 321.286 605.688 348.175 631.765 c 128,-1,26
 375.062 657.842 375.062 657.842 411.45 667.216 c 128,-1,27
 447.839 676.591 447.839 676.591 490.404 674.408 c 0,28,29
 608.381 668.434 608.381 668.434 673.297 574.446 c 128,-1,30
 738.213 480.458 738.213 480.458 738.213 334.44 c 0,31,32
 738.213 232.629 738.213 232.629 707.538 156.163 c 128,-1,33
 676.863 79.6973 676.863 79.6973 609.825 33.4863 c 128,-1,34
 542.788 -12.7256 542.788 -12.7256 445.349 -13.7197 c 0,35,36
 372.249 -14.3193 372.249 -14.3193 317.452 9.92188 c 128,-1,37
 262.654 34.1621 262.654 34.1621 228.641 75.9834 c 128,-1,38
 194.625 117.805 194.625 117.805 174.06 180.839 c 128,-1,39
 153.493 243.874 153.493 243.874 146.195 313.256 c 128,-1,40
 138.898 382.639 138.898 382.639 140.196 469.608 c 0,0,1
344.996 326.248 m 0,41,42
 344.996 257.259 344.996 257.259 376.197 210.858 c 128,-1,43
 407.398 164.456 407.398 164.456 465.828 164.456 c 0,44,45
 512.09 164.456 512.09 164.456 541.183 211.989 c 128,-1,46
 570.276 259.522 570.276 259.522 570.276 326.248 c 0,47,48
 570.276 357.593 570.276 357.593 565.472 384.944 c 128,-1,49
 560.667 412.295 560.667 412.295 549.544 438.144 c 128,-1,50
 538.422 463.992 538.422 463.992 516.448 479.088 c 128,-1,51
 494.475 494.184 494.475 494.184 463.78 494.184 c 0,52,53
 424.117 494.184 424.117 494.184 396.18 467.739 c 128,-1,54
 368.241 441.295 368.241 441.295 356.619 404.575 c 128,-1,55
 344.996 367.855 344.996 367.855 344.996 326.248 c 0,41,42
EndSplineSet
Validated: 33
EndChar

StartChar: a7
Encoding: 24 55 27
Width: 765
GlyphClass: 2
Flags: W
LayerCount: 2
Fore
SplineSet
760.544 834.152 m 1,0,1
 691.047 796.731 691.047 796.731 637.083 729.188 c 128,-1,2
 583.119 661.644 583.119 661.644 549.624 580.209 c 128,-1,3
 516.129 498.775 516.129 498.775 494.938 398.492 c 128,-1,4
 473.742 298.21 473.742 298.21 465.967 200.854 c 128,-1,5
 458.193 103.498 458.193 103.498 459.488 -1.43164 c 1,6,-1
 266.977 -1.43164 l 1,7,8
 269.173 160.398 269.173 160.398 291.084 298.091 c 128,-1,9
 312.996 435.783 312.996 435.783 348.755 532.229 c 128,-1,10
 384.516 628.676 384.516 628.676 422.732 694.443 c 128,-1,11
 460.949 760.209 460.949 760.209 504.544 805.48 c 1,12,-1
 140 805.48 l 1,13,-1
 140 975.46 l 1,14,-1
 760.544 975.46 l 1,15,-1
 760.544 834.152 l 1,0,1
EndSplineSet
Validated: 33
EndChar

StartChar: a8
Encoding: 25 56 28
Width: 718
GlyphClass: 2
Flags: W
LayerCount: 2
Fore
SplineSet
713.44 295.528 m 0,0,1
 713.44 204.32 713.44 204.32 682.354 134.998 c 128,-1,2
 651.268 65.6748 651.268 65.6748 584.101 23.9297 c 128,-1,3
 516.934 -17.8164 516.934 -17.8164 420.576 -17.8164 c 0,4,5
 295.775 -17.8164 295.775 -17.8164 217.887 70.6182 c 128,-1,6
 140 159.053 140 159.053 140 295.528 c 0,7,8
 140 365.116 140 365.116 168.853 428.179 c 128,-1,9
 197.704 491.241 197.704 491.241 238.305 514.664 c 1,10,11
 201.494 526.443 201.494 526.443 175.271 590.497 c 128,-1,12
 149.047 654.551 149.047 654.551 152.288 711.271 c 0,13,14
 159.784 847.702 159.784 847.702 233.339 922.85 c 128,-1,15
 306.894 997.99 306.894 997.99 420.576 997.99 c 0,16,17
 549.352 997.99 549.352 997.99 622.646 925.48 c 128,-1,18
 695.943 852.967 695.943 852.967 692.96 711.271 c 0,19,20
 691.442 641.448 691.442 641.448 667.613 590.215 c 128,-1,21
 643.783 538.981 643.783 538.981 604.896 518.76 c 1,22,23
 652.6 494.086 652.6 494.086 683.02 436.405 c 128,-1,24
 713.44 378.725 713.44 378.725 713.44 295.528 c 0,0,1
514.784 715.368 m 0,25,26
 514.784 760.253 514.784 760.253 487.502 792.083 c 128,-1,27
 460.219 823.912 460.219 823.912 420.576 823.912 c 0,28,29
 383.878 823.912 383.878 823.912 358.195 792.015 c 128,-1,30
 332.512 760.118 332.512 760.118 332.512 715.368 c 0,31,32
 332.512 669.04 332.512 669.04 358.208 635.884 c 128,-1,33
 383.904 602.729 383.904 602.729 420.576 602.729 c 0,34,35
 460.192 602.729 460.192 602.729 487.488 635.814 c 128,-1,36
 514.784 668.9 514.784 668.9 514.784 715.368 c 0,25,26
533.216 287.336 m 0,37,38
 533.216 339.495 533.216 339.495 500.734 374.855 c 128,-1,39
 468.252 410.216 468.252 410.216 420.576 410.216 c 0,40,41
 373.912 410.216 373.912 410.216 346.044 375.481 c 128,-1,42
 318.176 340.747 318.176 340.747 318.176 287.336 c 0,43,44
 318.176 233.235 318.176 233.235 346.272 195.773 c 128,-1,45
 374.368 158.312 374.368 158.312 420.576 158.312 c 0,46,47
 467.73 158.312 467.73 158.312 500.474 196.443 c 128,-1,48
 533.216 234.574 533.216 234.574 533.216 287.336 c 0,37,38
EndSplineSet
Validated: 33
EndChar

StartChar: a9
Encoding: 26 57 29
Width: 743
GlyphClass: 2
Flags: W
LayerCount: 2
Fore
SplineSet
738.017 512.616 m 0,0,1
 735.938 359.77 735.938 359.77 702.307 245.734 c 128,-1,2
 668.676 131.699 668.676 131.699 600.329 64.0635 c 128,-1,3
 531.981 -3.57324 531.981 -3.57324 434.912 -7.57617 c 1,4,5
 404.106 -10.6328 404.106 -10.6328 369.473 -8.24805 c 128,-1,6
 334.838 -5.86328 334.838 -5.86328 303.072 0.87207 c 128,-1,7
 271.307 7.60742 271.307 7.60742 237.057 27.2725 c 128,-1,8
 202.807 46.9365 202.807 46.9365 172.769 78.4404 c 1,9,-1
 172.769 273 l 1,10,11
 200.517 232.303 200.517 232.303 262.73 195.634 c 128,-1,12
 324.944 158.965 324.944 158.965 391.904 160.36 c 0,13,14
 415.223 161.027 415.223 161.027 435.174 167.123 c 128,-1,15
 455.127 173.22 455.127 173.22 469.997 181.637 c 128,-1,16
 484.867 190.053 484.867 190.053 497.508 205.297 c 128,-1,17
 510.148 220.54 510.148 220.54 518.576 233.329 c 128,-1,18
 527.004 246.117 527.004 246.117 534.355 267.54 c 128,-1,19
 541.707 288.963 541.707 288.963 545.714 303.157 c 128,-1,20
 549.723 317.352 549.723 317.352 553.808 341.987 c 128,-1,21
 557.893 366.623 557.893 366.623 559.502 379.256 c 128,-1,22
 561.113 391.89 561.113 391.89 563.938 416.36 c 1,23,-1
 559.84 416.36 l 1,24,25
 556.926 376.536 556.926 376.536 530.038 350.459 c 128,-1,26
 503.15 324.382 503.15 324.382 466.762 315.008 c 128,-1,27
 430.375 305.633 430.375 305.633 387.809 307.816 c 0,28,29
 269.832 313.789 269.832 313.789 204.916 407.778 c 128,-1,30
 140 501.767 140 501.767 140 647.784 c 0,31,32
 140 749.596 140 749.596 170.674 826.062 c 128,-1,33
 201.35 902.528 201.35 902.528 268.387 948.74 c 128,-1,34
 335.424 994.95 335.424 994.95 432.864 995.939 c 0,35,36
 505.963 996.54 505.963 996.54 560.76 972.3 c 128,-1,37
 615.559 948.061 615.559 948.061 649.572 906.241 c 128,-1,38
 683.587 864.42 683.587 864.42 704.153 801.385 c 128,-1,39
 724.719 738.35 724.719 738.35 732.018 668.968 c 128,-1,40
 739.314 599.586 739.314 599.586 738.017 512.616 c 0,0,1
533.216 655.976 m 0,41,42
 533.216 724.965 533.216 724.965 502.016 771.366 c 128,-1,43
 470.812 817.768 470.812 817.768 412.384 817.768 c 0,44,45
 366.123 817.768 366.123 817.768 337.03 770.235 c 128,-1,46
 307.938 722.702 307.938 722.702 307.938 655.976 c 0,47,48
 307.938 624.631 307.938 624.631 312.741 597.28 c 128,-1,49
 317.545 569.929 317.545 569.929 328.668 544.08 c 128,-1,50
 339.791 518.232 339.791 518.232 361.765 503.136 c 128,-1,51
 383.738 488.04 383.738 488.04 414.433 488.04 c 0,52,53
 454.095 488.04 454.095 488.04 482.033 514.485 c 128,-1,54
 509.971 540.929 509.971 540.929 521.593 577.649 c 128,-1,55
 533.216 614.369 533.216 614.369 533.216 655.976 c 0,41,42
EndSplineSet
Validated: 33
EndChar

StartChar: acln
Encoding: 27 58 30
Width: 487
GlyphClass: 2
Flags: W
LayerCount: 2
Fore
SplineSet
284.672 690.792 m 0,0,1
 284.672 649.521 284.672 649.521 256.819 619.981 c 128,-1,2
 228.967 590.44 228.967 590.44 196.608 590.44 c 0,3,4
 162.509 590.44 162.509 590.44 138.599 619.298 c 128,-1,5
 114.688 648.155 114.688 648.155 114.688 690.792 c 0,6,7
 114.688 734.224 114.688 734.224 138.256 760.636 c 128,-1,8
 161.824 787.048 161.824 787.048 196.608 787.048 c 0,9,10
 230.194 787.048 230.194 787.048 257.433 758.971 c 128,-1,11
 284.672 730.893 284.672 730.893 284.672 690.792 c 0,0,1
284.672 207.464 m 0,12,13
 284.672 167.086 284.672 167.086 256.481 135.051 c 128,-1,14
 228.291 103.016 228.291 103.016 196.608 103.016 c 0,15,16
 163.103 103.016 163.103 103.016 138.896 134.318 c 128,-1,17
 114.688 165.621 114.688 165.621 114.688 207.464 c 0,18,19
 114.688 247.541 114.688 247.541 138.811 276.654 c 128,-1,20
 162.933 305.768 162.933 305.768 196.608 305.768 c 0,21,22
 229.669 305.768 229.669 305.768 257.17 276.151 c 128,-1,23
 284.672 246.533 284.672 246.533 284.672 207.464 c 0,12,13
EndSplineSet
Validated: 1
EndChar

StartChar: ascln
Encoding: 28 59 31
Width: 526
GlyphClass: 2
Flags: W
LayerCount: 2
Fore
SplineSet
292.864 688.744 m 128,-1,1
 292.864 646.589 292.864 646.589 266.347 615.443 c 128,-1,2
 239.831 584.296 239.831 584.296 206.848 584.296 c 0,3,4
 171.693 584.296 171.693 584.296 147.286 614.908 c 128,-1,5
 122.88 645.519 122.88 645.519 122.88 688.744 c 0,6,7
 122.88 733.93 122.88 733.93 146.812 761.513 c 128,-1,8
 170.744 789.096 170.744 789.096 206.848 789.096 c 0,9,10
 241.357 789.096 241.357 789.096 267.111 760.019 c 128,-1,0
 292.864 730.943 292.864 730.943 292.864 688.744 c 128,-1,1
282.624 258.664 m 1,11,12
 282.616 245.672 282.616 245.672 282.021 223.432 c 128,-1,13
 281.426 201.193 281.426 201.193 276.002 139.804 c 128,-1,14
 270.578 78.415 270.578 78.415 261.148 25.3496 c 128,-1,15
 251.718 -27.7158 251.718 -27.7158 231.044 -86.2949 c 128,-1,16
 210.371 -144.874 210.371 -144.874 182.272 -177.56 c 1,17,-1
 47.1035 -177.56 l 1,18,19
 76.9229 -127.67 76.9229 -127.67 95.2744 -64.3867 c 128,-1,20
 113.627 -1.10449 113.627 -1.10449 118.52 53.5771 c 128,-1,21
 123.412 108.259 123.412 108.259 124.045 155.814 c 128,-1,22
 124.678 203.368 124.678 203.368 121.731 231.016 c 2,23,-1
 118.784 258.664 l 1,24,-1
 282.624 258.664 l 1,11,12
EndSplineSet
Validated: 33
EndChar

StartChar: alt
Encoding: 29 60 32
Width: 1453
GlyphClass: 2
Flags: W
LayerCount: 2
Fore
SplineSet
673.792 37.4785 m 1,0,1
 658.293 48.6338 658.293 48.6338 631.206 67.3115 c 128,-1,2
 604.119 85.9912 604.119 85.9912 525.718 134.852 c 128,-1,3
 447.316 183.714 447.316 183.714 374.993 222.568 c 128,-1,4
 302.67 261.421 302.67 261.421 212.98 296.989 c 128,-1,5
 123.29 332.556 123.29 332.556 57.3438 340.584 c 1,6,-1
 57.3438 477.8 l 1,7,8
 146.8 497.87 146.8 497.87 243.202 539.005 c 128,-1,9
 339.604 580.139 339.604 580.139 413.288 624.509 c 128,-1,10
 486.973 668.879 486.973 668.879 547.879 710.382 c 128,-1,11
 608.784 751.884 608.784 751.884 641.288 778.682 c 2,12,-1
 673.792 805.48 l 1,13,-1
 673.792 590.44 l 1,14,15
 652.884 576.666 652.884 576.666 617.365 554.684 c 128,-1,16
 581.846 532.702 581.846 532.702 488.555 484.202 c 128,-1,17
 395.264 435.702 395.264 435.702 321.536 410.216 c 1,18,19
 392.534 383.819 392.534 383.819 480.598 342.348 c 128,-1,20
 568.661 300.876 568.661 300.876 621.227 272.602 c 2,21,-1
 673.792 244.328 l 1,22,-1
 673.792 37.4785 l 1,0,1
EndSplineSet
Validated: 1
EndChar

StartChar: aeq
Encoding: 30 61 33
Width: 1428
GlyphClass: 2
Flags: W
LayerCount: 2
Fore
SplineSet
747.52 543.336 m 1,0,-1
 67.584 543.336 l 1,1,-1
 67.584 698.984 l 1,2,-1
 747.52 698.984 l 1,3,-1
 747.52 543.336 l 1,0,-1
743.424 281.192 m 1,4,-1
 63.4883 281.192 l 1,5,-1
 63.4883 442.984 l 1,6,-1
 743.424 442.984 l 1,7,-1
 743.424 281.192 l 1,4,-1
EndSplineSet
Validated: 1
EndChar

StartChar: agt
Encoding: 31 62 34
Width: 1453
GlyphClass: 2
Flags: W
LayerCount: 2
Fore
SplineSet
673.792 336.488 m 1,0,1
 608.42 329.034 608.42 329.034 521.089 295.493 c 128,-1,2
 433.758 261.953 433.758 261.953 355.815 219.41 c 128,-1,3
 277.873 176.867 277.873 176.867 209.269 135.388 c 128,-1,4
 140.665 93.9102 140.665 93.9102 100.028 65.6953 c 2,5,-1
 59.3916 37.4785 l 1,6,-1
 59.3916 244.328 l 1,7,8
 254.257 350.941 254.257 350.941 409.6 410.216 c 1,9,10
 335.872 436.613 335.872 436.613 248.32 481.669 c 128,-1,11
 160.768 526.725 160.768 526.725 110.08 558.583 c 2,12,-1
 59.3916 590.44 l 1,13,-1
 59.3916 805.48 l 1,14,15
 71.4844 795.154 71.4844 795.154 93.3945 777.566 c 128,-1,16
 115.305 759.977 115.305 759.977 183.658 711.99 c 128,-1,17
 252.011 664.002 252.011 664.002 320.969 623.229 c 128,-1,18
 389.926 582.454 389.926 582.454 487.417 538.974 c 128,-1,19
 584.908 495.495 584.908 495.495 673.792 473.704 c 1,20,-1
 673.792 336.488 l 1,0,1
EndSplineSet
Validated: 1
EndChar

StartChar: aqm
Encoding: 32 63 35
Width: 760
GlyphClass: 2
Flags: W
LayerCount: 2
Fore
SplineSet
393.216 414.312 m 0,0,1
 363.415 408.038 363.415 408.038 345.547 391.759 c 128,-1,2
 327.68 375.48 327.68 375.48 327.68 352.872 c 2,3,-1
 327.68 250.472 l 1,4,-1
 155.648 250.472 l 1,5,-1
 155.648 356.968 l 2,6,7
 155.648 441.82 155.648 441.82 197.361 487.325 c 128,-1,8
 239.074 532.83 239.074 532.83 352.256 582.248 c 0,9,10
 388.078 598.104 388.078 598.104 406.985 625.892 c 128,-1,11
 425.893 653.681 425.893 653.681 424.977 683.307 c 128,-1,12
 424.062 712.933 424.062 712.933 411.671 740.384 c 128,-1,13
 399.281 767.835 399.281 767.835 372.647 786.494 c 128,-1,14
 346.013 805.152 346.013 805.152 313.344 807.528 c 0,15,16
 138.471 819.799 138.471 819.799 61.4404 680.552 c 1,17,-1
 61.4404 901.736 l 1,18,19
 100.42 946.71 100.42 946.71 172.121 969.05 c 128,-1,20
 243.823 991.38 243.823 991.38 333.824 989.8 c 0,21,22
 416.363 987.83 416.363 987.83 479.495 949.52 c 128,-1,23
 542.627 911.211 542.627 911.211 574.713 853.864 c 128,-1,24
 606.798 796.517 606.798 796.517 613.222 727.334 c 128,-1,25
 619.646 658.151 619.646 658.151 598.758 595.438 c 128,-1,26
 577.869 532.723 577.869 532.723 524.399 482.616 c 128,-1,27
 470.929 432.51 470.929 432.51 393.216 414.312 c 0,0,1
354.304 84.584 m 0,28,29
 354.304 40.877 354.304 40.877 319.658 5.38574 c 128,-1,30
 285.013 -30.1045 285.013 -30.1045 239.616 -30.1045 c 0,31,32
 198.656 -30.1045 198.656 -30.1045 166.912 5.44922 c 128,-1,33
 135.168 41.0029 135.168 41.0029 135.168 84.584 c 0,34,35
 135.168 128.8 135.168 128.8 166.497 160.964 c 128,-1,36
 197.825 193.128 197.825 193.128 239.616 193.128 c 0,37,38
 286.739 193.128 286.739 193.128 320.522 160.597 c 128,-1,39
 354.304 128.066 354.304 128.066 354.304 84.584 c 0,28,29
EndSplineSet
Validated: 33
EndChar

StartChar: aat
Encoding: 33 64 36
Width: 1373
GlyphClass: 2
Flags: W
LayerCount: 2
Fore
SplineSet
925.696 291.432 m 4,0,1
 874.738 238.997 874.738 238.997 830.351 212.735 c 128,-1,2
 785.964 186.474 785.964 186.474 752.625 186.673 c 128,-1,3
 719.287 186.872 719.287 186.872 694.67 201.919 c 128,-1,4
 670.054 216.966 670.054 216.966 651.264 246.376 c 1,5,6
 560.207 176.744 560.207 176.744 487.424 176.744 c 0,7,8
 397.956 176.744 397.956 176.744 332.098 247.604 c 128,-1,9
 266.24 318.464 266.24 318.464 266.24 416.36 c 0,10,11
 266.24 493.229 266.24 493.229 297.989 560.334 c 128,-1,12
 329.737 627.441 329.737 627.441 392.188 670.381 c 128,-1,13
 454.638 713.32 454.638 713.32 534.528 713.32 c 0,14,15
 556.714 713.32 556.714 713.32 567.895 712.208 c 128,-1,16
 579.076 711.097 579.076 711.097 601.481 705.12 c 128,-1,17
 623.886 699.143 623.886 699.143 647.959 682.832 c 128,-1,18
 672.031 666.521 672.031 666.521 700.416 639.592 c 1,19,-1
 712.704 701.032 l 1,20,-1
 802.816 701.032 l 1,21,-1
 735.232 381.544 l 1,22,23
 717.287 287.336 717.287 287.336 755.712 287.336 c 0,24,25
 811.376 287.336 811.376 287.336 856.486 350.746 c 132,-1,26
 901.596 414.155 901.596 414.155 903.168 488.04 c 4,27,28
 906.145 578.079 906.145 578.079 880.297 645.862 c 132,-1,29
 854.45 713.646 854.45 713.646 805.751 753.481 c 132,-1,30
 757.052 793.317 757.052 793.317 694.761 812.71 c 132,-1,31
 632.47 832.104 632.47 832.104 557.056 832.104 c 4,32,33
 453.457 832.104 453.457 832.104 368.682 783.415 c 132,-1,34
 283.906 734.726 283.906 734.726 236.161 650.734 c 132,-1,35
 188.416 566.742 188.416 566.742 188.416 465.512 c 4,36,37
 188.416 354.345 188.416 354.345 240.973 266.712 c 132,-1,38
 293.53 179.079 293.53 179.079 382.984 131.831 c 132,-1,39
 472.438 84.584 472.438 84.584 581.632 84.584 c 4,40,41
 648.251 84.584 648.251 84.584 699.619 93.3135 c 132,-1,42
 750.987 102.042 750.987 102.042 843.776 135.784 c 5,43,-1
 843.776 19.0479 l 5,44,45
 832.678 15.4717 832.678 15.4717 804.14 6.11719 c 132,-1,46
 775.602 -3.2373 775.602 -3.2373 769.485 -4.99414 c 132,-1,47
 763.368 -6.75098 763.368 -6.75098 743.068 -12.6904 c 132,-1,48
 722.767 -18.6299 722.767 -18.6299 714.893 -19.3613 c 132,-1,49
 707.018 -20.0938 707.018 -20.0938 689.099 -23.1465 c 132,-1,50
 671.181 -26.1992 671.181 -26.1992 655.693 -26.4336 c 132,-1,51
 640.204 -26.668 640.204 -26.668 618.811 -27.3623 c 132,-1,52
 597.418 -28.0557 597.418 -28.0557 569.344 -28.0557 c 4,53,54
 466.357 -28.0557 466.357 -28.0557 374.643 9.62695 c 132,-1,55
 282.93 47.3096 282.93 47.3096 216.844 112.437 c 132,-1,56
 150.759 177.564 150.759 177.564 112.243 269.467 c 132,-1,57
 73.7275 361.369 73.7275 361.369 73.7275 465.512 c 4,58,59
 73.7275 599.584 73.7275 599.584 137.451 709.121 c 132,-1,60
 201.175 818.658 201.175 818.658 312.426 880.677 c 132,-1,61
 423.677 942.7 423.677 942.7 559.104 942.7 c 4,62,63
 749.568 942.7 749.568 942.7 864.256 842.344 c 5,64,65
 926.878 789.299 926.878 789.299 962.366 710.806 c 132,-1,66
 997.854 632.312 997.854 632.312 1002.21 555.033 c 132,-1,67
 1006.56 477.753 1006.56 477.753 986.751 406.358 c 132,-1,68
 966.936 334.963 966.936 334.963 925.696 291.432 c 4,0,1
651.264 465.512 m 0,69,70
 660.235 531.303 660.235 531.303 626.926 571.111 c 128,-1,71
 593.617 610.92 593.617 610.92 536.576 610.92 c 0,72,73
 469.979 610.92 469.979 610.92 425.453 553.911 c 128,-1,74
 380.928 496.902 380.928 496.902 380.928 424.552 c 0,75,76
 380.928 362.503 380.928 362.503 410.423 321.848 c 128,-1,77
 439.918 281.192 439.918 281.192 495.616 281.192 c 0,78,79
 532.964 281.192 532.964 281.192 561.894 297.369 c 128,-1,80
 590.823 313.546 590.823 313.546 608.379 341.623 c 128,-1,81
 625.934 369.701 625.934 369.701 636.069 399.897 c 128,-1,82
 646.204 430.093 646.204 430.093 651.264 465.512 c 0,69,70
EndSplineSet
Validated: 33
EndChar

StartChar: eA
Encoding: 34 65 37
Width: 1524
GlyphClass: 2
Flags: W
LayerCount: 2
Fore
SplineSet
1134.25 204 m 1,0,-1
 499.955 204 l 1,1,-1
 392.094 -22.8808 l 2,2,3
 383.955 -40 383.955 -40 365 -40 c 2,4,-1
 170 -40 l 2,5,6
 158 -40 158 -40 149 -31 c 128,-1,7
 140 -22 140 -22 140 -10 c 0,8,9
 140 -3.0651 140 -3.0651 143.044 3.16641 c 2,10,-1
 692.044 1127.17 l 2,11,12
 700.266 1144 700.266 1144 719 1144 c 2,13,-1
 940 1144 l 2,14,15
 958.734 1144 958.734 1144 966.956 1127.17 c 2,16,-1
 1515.96 3.16641 l 2,17,18
 1521.33 -7.84569 1521.33 -7.84569 1517.26 -19.7117 c 128,-1,19
 1513.18 -31.5777 1513.18 -31.5777 1502.17 -36.9564 c 0,20,21
 1495.94 -40 1495.94 -40 1489 -40 c 2,22,-1
 1272 -40 l 2,23,24
 1253.25 -40 1253.25 -40 1245.04 -23.1505 c 2,25,-1
 1134.25 204 l 1,0,-1
818.919 864.058 m 1,26,-1
 600.702 410 l 1,27,-1
 1035.46 410 l 1,28,-1
 818.919 864.058 l 1,26,-1
EndSplineSet
Validated: 1
EndChar

StartChar: eB
Encoding: 35 66 38
Width: 1229
GlyphClass: 2
Flags: W
LayerCount: 2
Fore
SplineSet
170 1144 m 2,0,-1
 793 1144 l 2,1,2
 955.828 1144 955.828 1144 1072.99 1058.01 c 1,3,4
 1191 967.829 1191 967.829 1191 839 c 0,5,6
 1191 712.638 1191 712.638 1101.05 631.682 c 0,7,8
 1064.92 599.226 1064.92 599.226 1012.4 576.466 c 1,9,10
 1130.97 535.006 1130.97 535.006 1191.03 430.909 c 0,11,12
 1224 372.928 1224 372.928 1224 296.5 c 128,-1,13
 1224 220.236 1224 220.236 1189.74 158.451 c 0,14,15
 1156.25 98.0693 1156.25 98.0693 1097.12 55.0825 c 1,16,17
 976.901 -40 976.901 -40 805 -40 c 2,18,-1
 170 -40 l 2,19,20
 158 -40 158 -40 149 -31 c 128,-1,21
 140 -22 140 -22 140 -10 c 2,22,-1
 140 1114 l 2,23,24
 140 1126 140 1126 149 1135 c 128,-1,25
 158 1144 158 1144 170 1144 c 2,0,-1
752 666 m 2,26,27
 825.707 666 825.707 666 880.852 708.891 c 1,28,29
 931 746.096 931 746.096 931 801 c 0,30,31
 931 855.543 931 855.543 880.806 895.537 c 0,32,33
 827.513 938 827.513 938 752 938 c 2,34,-1
 401 938 l 1,35,-1
 401 666 l 1,36,-1
 752 666 l 2,26,27
772 166 m 2,37,38
 853.495 166 853.495 166 909.781 210.944 c 0,39,40
 963 253.438 963 253.438 963 313 c 128,-1,41
 963 372.562 963 372.562 909.781 415.056 c 0,42,43
 853.495 460 853.495 460 772 460 c 2,44,-1
 401 460 l 1,45,-1
 401 166 l 1,46,-1
 772 166 l 2,37,38
EndSplineSet
Validated: 1
EndChar

StartChar: eC
Encoding: 36 67 39
Width: 1325
GlyphClass: 2
Flags: W
LayerCount: 2
Fore
SplineSet
1320 418 m 0,0,1
 1320 184.73 1320 184.73 1145.79 57.8454 c 1,2,3
 992.942 -56 992.942 -56 748 -56 c 0,4,5
 474.263 -56 474.263 -56 315.031 74.758 c 1,6,7
 140 216.703 140 216.703 140 478 c 2,8,-1
 140 626 l 2,9,10
 140 886.237 140 886.237 315.06 1029.27 c 0,11,12
 476.368 1160 476.368 1160 748 1160 c 0,13,14
 997.117 1160 997.117 1160 1151.09 1042.94 c 1,15,16
 1320 915.986 1320 915.986 1320 683 c 0,17,18
 1320 671 1320 671 1311 662 c 128,-1,19
 1302 653 1302 653 1290 653 c 2,20,-1
 1090 653 l 2,21,22
 1078 653 1078 653 1069 662 c 128,-1,23
 1060 671 1060 671 1060 683 c 0,24,25
 1060 819.854 1060 819.854 974.038 890.752 c 1,26,27
 894.409 955 894.409 955 748 955 c 0,28,29
 619.386 955 619.386 955 540.776 911.068 c 128,-1,30
 462.167 867.137 462.167 867.137 426.826 778.787 c 0,31,32
 401 715.142 401 715.142 401 626 c 2,33,-1
 401 478 l 2,34,35
 401 349.807 401 349.807 450.737 274.658 c 128,-1,36
 500.475 199.51 500.475 199.51 602.507 169.769 c 0,37,38
 668.402 150 668.402 150 743.5 150 c 0,39,40
 819.114 150 819.114 150 879.854 166.009 c 0,41,42
 938.215 181.392 938.215 181.392 978.317 213.473 c 0,43,44
 1068 284.509 1068 284.509 1068 418 c 0,45,46
 1068 430 1068 430 1077 439 c 128,-1,47
 1086 448 1086 448 1098 448 c 2,48,-1
 1290 448 l 2,49,50
 1302 448 1302 448 1311 439 c 128,-1,51
 1320 430 1320 430 1320 418 c 0,0,1
EndSplineSet
Validated: 1
EndChar

StartChar: eD
Encoding: 37 68 40
Width: 1274
GlyphClass: 2
Flags: W
LayerCount: 2
Fore
SplineSet
657 166 m 2,0,1
 908.071 166 908.071 166 982.339 342.614 c 0,2,3
 1008 404.012 1008 404.012 1008 495 c 2,4,-1
 1008 609 l 2,5,6
 1008 737.041 1008 737.041 956.89 812.464 c 128,-1,7
 905.779 887.888 905.779 887.888 800.536 918.218 c 0,8,9
 734.598 938 734.598 938 657 938 c 2,10,-1
 401 938 l 1,11,-1
 401 166 l 1,12,-1
 657 166 l 2,0,1
140 -10 m 2,13,-1
 140 1114 l 2,14,15
 140 1126 140 1126 149 1135 c 128,-1,16
 158 1144 158 1144 170 1144 c 2,17,-1
 657 1144 l 2,18,19
 921.47 1144 921.47 1144 1085.59 1013.54 c 1,20,21
 1269 869.585 1269 869.585 1269 609 c 2,22,-1
 1269 495 l 2,23,24
 1269 234.35 1269 234.35 1085.6 91.4608 c 1,25,26
 921.534 -40 921.534 -40 657 -40 c 2,27,-1
 170 -40 l 2,28,29
 158 -40 158 -40 149 -31 c 128,-1,30
 140 -22 140 -22 140 -10 c 2,13,-1
EndSplineSet
Validated: 1
EndChar

StartChar: eE
Encoding: 38 69 41
Width: 1098
GlyphClass: 2
Flags: W
LayerCount: 2
Fore
SplineSet
140 -10 m 2,0,-1
 140 1114 l 2,1,2
 140 1126.8 140 1126.8 149.701 1135.45 c 128,-1,3
 159.403 1144.1 159.403 1144.1 170.27 1144 c 2,4,-1
 1060.27 1136 l 2,5,6
 1072.32 1135.89 1072.32 1135.89 1081.03 1127.16 c 128,-1,7
 1089.74 1118.43 1089.74 1118.43 1089.99 1106.65 c 2,8,-1
 1092.99 968.652 l 2,9,10
 1093.27 955.828 1093.27 955.828 1083.76 946.914 c 128,-1,11
 1074.24 938 1074.24 938 1063 938 c 2,12,-1
 399.182 938 l 1,13,-1
 400.819 667 l 1,14,-1
 893 667 l 2,15,16
 905 667 905 667 914 658 c 128,-1,17
 923 649 923 649 923 637 c 2,18,-1
 923 491 l 2,19,20
 923 479 923 479 914 470 c 128,-1,21
 905 461 905 461 893 461 c 2,22,-1
 401 461 l 1,23,-1
 401 166 l 1,24,-1
 1063 166 l 2,25,26
 1075.79 166 1075.79 166 1084.43 156.3 c 128,-1,27
 1093.07 146.599 1093.07 146.599 1093 135.795 c 2,28,-1
 1092 -10.2055 l 2,29,30
 1091.91 -22.6343 1091.91 -22.6343 1082.67 -31.3172 c 128,-1,31
 1073.42 -40 1073.42 -40 1062 -40 c 2,32,-1
 170 -40 l 2,33,34
 158 -40 158 -40 149 -31 c 128,-1,35
 140 -22 140 -22 140 -10 c 2,0,-1
EndSplineSet
Validated: 1
EndChar

StartChar: eF
Encoding: 39 70 42
Width: 1063
GlyphClass: 2
Flags: W
LayerCount: 2
Fore
SplineSet
1028 938 m 2,0,-1
 401 938 l 1,1,-1
 401 656 l 1,2,-1
 944 656 l 2,3,4
 956 656 956 656 965 647 c 128,-1,5
 974 638 974 638 974 626 c 2,6,-1
 974 480 l 2,7,8
 974 468 974 468 965 459 c 128,-1,9
 956 450 956 450 944 450 c 2,10,-1
 401 450 l 1,11,-1
 401 -10 l 2,12,13
 401 -22 401 -22 392 -31 c 128,-1,14
 383 -40 383 -40 371 -40 c 2,15,-1
 170 -40 l 2,16,17
 158 -40 158 -40 149 -31 c 128,-1,18
 140 -22 140 -22 140 -10 c 2,19,-1
 140 1114 l 2,20,21
 140 1126 140 1126 149 1135 c 128,-1,22
 158 1144 158 1144 170 1144 c 2,23,-1
 1028 1144 l 2,24,25
 1040 1144 1040 1144 1049 1135 c 128,-1,26
 1058 1126 1058 1126 1058 1114 c 2,27,-1
 1058 968 l 2,28,29
 1058 956 1058 956 1049 947 c 128,-1,30
 1040 938 1040 938 1028 938 c 2,0,-1
EndSplineSet
Validated: 1
EndChar

StartChar: eG
Encoding: 40 71 43
Width: 1321
GlyphClass: 2
Flags: W
LayerCount: 2
Fore
SplineSet
748 -56 m 0,0,1
 474.263 -56 474.263 -56 315.031 74.758 c 1,2,3
 140 216.703 140 216.703 140 478 c 2,4,-1
 140 626 l 2,5,6
 140 886.237 140 886.237 315.06 1029.27 c 0,7,8
 476.368 1160 476.368 1160 748 1160 c 0,9,10
 990.411 1160 990.411 1160 1143.22 1053.57 c 1,11,12
 1316 931.527 1316 931.527 1316 719 c 0,13,14
 1316 707 1316 707 1307 698 c 128,-1,15
 1298 689 1298 689 1286 689 c 2,16,-1
 1085 689 l 2,17,18
 1073 689 1073 689 1064 698 c 128,-1,19
 1055 707 1055 707 1055 719 c 0,20,21
 1055 838.561 1055 838.561 969.61 899.554 c 0,22,23
 891.44 955 891.44 955 748 955 c 0,24,25
 619.386 955 619.386 955 540.776 911.068 c 128,-1,26
 462.167 867.137 462.167 867.137 426.826 778.787 c 0,27,28
 401 715.142 401 715.142 401 626 c 2,29,-1
 401 478 l 2,30,31
 401 349.807 401 349.807 450.737 274.658 c 128,-1,32
 500.475 199.51 500.475 199.51 602.507 169.769 c 0,33,34
 668.402 150 668.402 150 748 150 c 0,35,36
 913.041 150 913.041 150 987.659 212.933 c 0,37,38
 1057.69 271.994 1057.69 271.994 1059.93 409 c 1,39,-1
 692 409 l 2,40,41
 680 409 680 409 671 418 c 128,-1,42
 662 427 662 427 662 439 c 2,43,-1
 662 583 l 2,44,45
 662 595 662 595 671 604 c 128,-1,46
 680 613 680 613 692 613 c 2,47,-1
 1286 613 l 2,48,49
 1298 613 1298 613 1307 604 c 128,-1,50
 1316 595 1316 595 1316 583 c 2,51,-1
 1316 454 l 2,52,53
 1316 202 1316 202 1171.5 73 c 128,-1,54
 1027 -56 1027 -56 748 -56 c 0,0,1
EndSplineSet
Validated: 1
EndChar

StartChar: eH
Encoding: 41 72 44
Width: 1247
GlyphClass: 2
Flags: W
LayerCount: 2
Fore
SplineSet
982 -10 m 2,0,-1
 982 461 l 1,1,-1
 401 461 l 1,2,-1
 401 -10 l 2,3,4
 401 -22 401 -22 392 -31 c 128,-1,5
 383 -40 383 -40 371 -40 c 2,6,-1
 170 -40 l 2,7,8
 158 -40 158 -40 149 -31 c 128,-1,9
 140 -22 140 -22 140 -10 c 2,10,-1
 140 1114 l 2,11,12
 140 1126 140 1126 149 1135 c 128,-1,13
 158 1144 158 1144 170 1144 c 2,14,-1
 371 1144 l 2,15,16
 383 1144 383 1144 392 1135 c 128,-1,17
 401 1126 401 1126 401 1114 c 2,18,-1
 401 667 l 1,19,-1
 982 667 l 1,20,-1
 982 1114 l 2,21,22
 982 1126 982 1126 991 1135 c 128,-1,23
 1000 1144 1000 1144 1012 1144 c 2,24,-1
 1212 1144 l 2,25,26
 1224 1144 1224 1144 1233 1135 c 128,-1,27
 1242 1126 1242 1126 1242 1114 c 2,28,-1
 1242 -10 l 2,29,30
 1242 -22 1242 -22 1233 -31 c 128,-1,31
 1224 -40 1224 -40 1212 -40 c 2,32,-1
 1012 -40 l 2,33,34
 1000 -40 1000 -40 991 -31 c 128,-1,35
 982 -22 982 -22 982 -10 c 2,0,-1
EndSplineSet
Validated: 1
EndChar

StartChar: eI
Encoding: 42 73 45
Width: 553
GlyphClass: 2
Flags: W
LayerCount: 2
Fore
SplineSet
171 1144 m 2,0,-1
 518 1144 l 2,1,2
 530 1144 530 1144 539 1135 c 128,-1,3
 548 1126 548 1126 548 1114 c 2,4,-1
 548 968 l 2,5,6
 548 956 548 956 539 947 c 128,-1,7
 530 938 530 938 518 938 c 2,8,-1
 474 938 l 1,9,-1
 474 166 l 1,10,-1
 518 166 l 2,11,12
 530 166 530 166 539 157 c 128,-1,13
 548 148 548 148 548 136 c 2,14,-1
 548 -10 l 2,15,16
 548 -22 548 -22 539 -31 c 128,-1,17
 530 -40 530 -40 518 -40 c 2,18,-1
 171 -40 l 2,19,20
 159 -40 159 -40 150 -31 c 128,-1,21
 141 -22 141 -22 141 -10 c 2,22,-1
 141 136 l 2,23,24
 141 148 141 148 150 157 c 128,-1,25
 159 166 159 166 171 166 c 2,26,-1
 213 166 l 1,27,-1
 213 938 l 1,28,-1
 171 938 l 2,29,30
 159 938 159 938 150 947 c 128,-1,31
 141 956 141 956 141 968 c 2,32,-1
 141 1114 l 2,33,34
 141 1126 141 1126 150 1135 c 128,-1,35
 159 1144 159 1144 171 1144 c 2,0,-1
EndSplineSet
Validated: 1
EndChar

StartChar: eJ
Encoding: 43 74 46
Width: 945
GlyphClass: 2
Flags: W
LayerCount: 2
Fore
SplineSet
70 359 m 2,0,-1
 271 359 l 2,1,2
 283 359 283 359 292 350 c 128,-1,3
 301 341 301 341 301 329 c 2,4,-1
 301 285 l 2,5,6
 301 225.977 301 225.977 351.531 187.977 c 0,7,8
 406.02 147 406.02 147 492 147 c 0,9,10
 576.109 147 576.109 147 629.657 186.617 c 0,11,12
 679 223.123 679 223.123 679 285 c 2,13,-1
 679 1112 l 2,14,15
 679 1124 679 1124 688 1133 c 128,-1,16
 697 1142 697 1142 709 1142 c 2,17,-1
 910 1142 l 2,18,19
 922 1142 922 1142 931 1133 c 128,-1,20
 940 1124 940 1124 940 1112 c 2,21,-1
 940 294 l 2,22,23
 940 123.41 940 123.41 806.433 29.5837 c 1,24,25
 685.742 -58 685.742 -58 494 -58 c 2,26,-1
 475 -58 l 2,27,28
 174.55 -58 174.55 -58 74.2863 140.347 c 0,29,30
 40 206.708 40 206.708 40 294 c 2,31,-1
 40 329 l 2,32,33
 40 341 40 341 49 350 c 128,-1,34
 58 359 58 359 70 359 c 2,0,-1
EndSplineSet
Validated: 1
EndChar

StartChar: eK
Encoding: 44 75 47
Width: 1263
GlyphClass: 2
Flags: W
LayerCount: 2
Fore
SplineSet
170 1144 m 2,0,-1
 371 1144 l 2,1,2
 383 1144 383 1144 392 1135 c 128,-1,3
 401 1126 401 1126 401 1114 c 2,4,-1
 401 599.337 l 1,5,-1
 960.235 1135.65 l 2,6,7
 968.94 1144 968.94 1144 981 1144 c 2,8,-1
 1213 1144 l 2,9,10
 1225 1144 1225 1144 1234 1135 c 128,-1,11
 1243 1126 1243 1126 1243 1114 c 0,12,13
 1243 1101.22 1243 1101.22 1233.79 1092.37 c 2,14,-1
 738.101 615.895 l 1,15,-1
 1251.89 9.39134 l 2,16,17
 1259.81 0.0404758 1259.81 0.0404758 1258.78 -12.4643 c 128,-1,18
 1257.74 -24.9691 1257.74 -24.9691 1248.39 -32.8905 c 0,19,20
 1240 -40 1240 -40 1229 -40 c 2,21,-1
 996 -40 l 2,22,23
 982.058 -40 982.058 -40 973.069 -29.3436 c 2,24,-1
 566.363 452.784 l 1,25,-1
 401 314.012 l 1,26,-1
 401 -10 l 2,27,28
 401 -22 401 -22 392 -31 c 128,-1,29
 383 -40 383 -40 371 -40 c 2,30,-1
 170 -40 l 2,31,32
 158 -40 158 -40 149 -31 c 128,-1,33
 140 -22 140 -22 140 -10 c 2,34,-1
 140 1114 l 2,35,36
 140 1126 140 1126 149 1135 c 128,-1,37
 158 1144 158 1144 170 1144 c 2,0,-1
EndSplineSet
Validated: 1
EndChar

StartChar: eL
Encoding: 45 76 48
Width: 1051
GlyphClass: 2
Flags: W
LayerCount: 2
Fore
SplineSet
140 -10 m 2,0,-1
 140 1114 l 2,1,2
 140 1126 140 1126 149 1135 c 128,-1,3
 158 1144 158 1144 170 1144 c 2,4,-1
 371 1144 l 2,5,6
 383 1144 383 1144 392 1135 c 128,-1,7
 401 1126 401 1126 401 1114 c 2,8,-1
 401 166 l 1,9,-1
 1016 166 l 2,10,11
 1028 166 1028 166 1037 157 c 128,-1,12
 1046 148 1046 148 1046 136 c 2,13,-1
 1046 -10 l 2,14,15
 1046 -22 1046 -22 1037 -31 c 128,-1,16
 1028 -40 1028 -40 1016 -40 c 2,17,-1
 170 -40 l 2,18,19
 158 -40 158 -40 149 -31 c 128,-1,20
 140 -22 140 -22 140 -10 c 2,0,-1
EndSplineSet
Validated: 1
EndChar

StartChar: eM
Encoding: 46 77 49
Width: 1749
GlyphClass: 2
Flags: W
LayerCount: 2
Fore
SplineSet
1484 -10 m 2,0,-1
 1484 827.984 l 1,1,-1
 1042.64 -23.802 l 2,2,3
 1034.24 -40 1034.24 -40 1016 -40 c 2,4,-1
 846 -40 l 2,5,6
 827.722 -40 827.722 -40 819.34 -23.7571 c 2,7,-1
 382 823.759 l 1,8,-1
 382 -10 l 2,9,10
 382 -22 382 -22 373 -31 c 128,-1,11
 364 -40 364 -40 352 -40 c 2,12,-1
 170 -40 l 2,13,14
 158 -40 158 -40 149 -31 c 128,-1,15
 140 -22 140 -22 140 -10 c 2,16,-1
 140 1114 l 2,17,18
 140 1126 140 1126 149 1135 c 128,-1,19
 158 1144 158 1144 170 1144 c 2,20,-1
 485 1144 l 2,21,22
 503.345 1144 503.345 1144 511.705 1127.67 c 2,23,-1
 942.05 286.929 l 1,24,-1
 1374.32 1127.72 l 2,25,26
 1382.69 1144 1382.69 1144 1401 1144 c 2,27,-1
 1714 1144 l 2,28,29
 1726 1144 1726 1144 1735 1135 c 128,-1,30
 1744 1126 1744 1126 1744 1114 c 2,31,-1
 1744 -10 l 2,32,33
 1744 -22 1744 -22 1735 -31 c 128,-1,34
 1726 -40 1726 -40 1714 -40 c 2,35,-1
 1514 -40 l 2,36,37
 1502 -40 1502 -40 1493 -31 c 128,-1,38
 1484 -22 1484 -22 1484 -10 c 2,0,-1
EndSplineSet
Validated: 1
EndChar

StartChar: eN
Encoding: 47 78 50
Width: 1249
GlyphClass: 2
Flags: W
LayerCount: 2
Fore
SplineSet
1021.97 -29.2248 m 2,0,-1
 382 737.434 l 1,1,-1
 382 -10 l 2,2,3
 382 -22 382 -22 373 -31 c 128,-1,4
 364 -40 364 -40 352 -40 c 2,5,-1
 170 -40 l 2,6,7
 158 -40 158 -40 149 -31 c 128,-1,8
 140 -22 140 -22 140 -10 c 2,9,-1
 140 1114 l 2,10,11
 140 1126 140 1126 149 1135 c 128,-1,12
 158 1144 158 1144 170 1144 c 2,13,-1
 346 1144 l 2,14,15
 360.019 1144 360.019 1144 369.012 1133.25 c 2,16,-1
 1002 376.454 l 1,17,-1
 1002 1114 l 2,18,19
 1002 1126 1002 1126 1011 1135 c 128,-1,20
 1020 1144 1020 1144 1032 1144 c 2,21,-1
 1214 1144 l 2,22,23
 1226 1144 1226 1144 1235 1135 c 128,-1,24
 1244 1126 1244 1126 1244 1114 c 2,25,-1
 1244 -10 l 2,26,27
 1244 -22 1244 -22 1235 -31 c 128,-1,28
 1226 -40 1226 -40 1214 -40 c 2,29,-1
 1045 -40 l 2,30,31
 1030.96 -40 1030.96 -40 1021.97 -29.2248 c 2,0,-1
EndSplineSet
Validated: 1
EndChar

StartChar: eO
Encoding: 48 79 51
Width: 1368
GlyphClass: 2
Flags: W
LayerCount: 2
Fore
SplineSet
1103 626 m 2,0,1
 1103 754.112 1103 754.112 1052.16 829.227 c 128,-1,2
 1001.33 904.342 1001.33 904.342 896.445 934.244 c 1,3,4
 829.454 955 829.454 955 752 955 c 0,5,6
 672.301 955 672.301 955 606.432 935.709 c 0,7,8
 542.797 917.073 542.797 917.073 498.623 878.306 c 0,9,10
 401 795.149 401 795.149 401 626 c 2,11,-1
 401 478 l 2,12,13
 401 349.904 401 349.904 451.626 274.764 c 128,-1,14
 502.251 199.623 502.251 199.623 606.44 169.789 c 0,15,16
 672.402 150 672.402 150 752 150 c 0,17,18
 829.827 150 829.827 150 896.312 168.861 c 0,19,20
 960.299 187.013 960.299 187.013 1004.43 225.739 c 1,21,22
 1103 308.94 1103 308.94 1103 478 c 2,23,-1
 1103 626 l 2,0,1
1363 478 m 2,24,25
 1363 218.52 1363 218.52 1181.56 74.4263 c 1,26,27
 1014.31 -56 1014.31 -56 752 -56 c 128,-1,28
 489.734 -56 489.734 -56 321.482 74.3968 c 1,29,30
 140 218.514 140 218.514 140 478 c 2,31,-1
 140 626 l 2,32,33
 140 886.561 140 886.561 321.521 1029.63 c 1,34,35
 489.74 1160 489.74 1160 752 1160 c 128,-1,36
 1014.32 1160 1014.32 1160 1181.51 1029.61 c 1,37,38
 1363 886.566 1363 886.566 1363 626 c 2,39,-1
 1363 478 l 2,24,25
EndSplineSet
Validated: 1
EndChar

StartChar: eP
Encoding: 49 80 52
Width: 1231
GlyphClass: 2
Flags: W
LayerCount: 2
Fore
SplineSet
401 938 m 1,0,-1
 401 634 l 1,1,-1
 758 634 l 2,2,3
 843.854 634 843.854 634 907.863 682.897 c 0,4,5
 965 725.959 965 725.959 965 786.5 c 128,-1,6
 965 846.913 965 846.913 909.812 890.142 c 1,7,8
 845.528 938 845.528 938 758 938 c 2,9,-1
 401 938 l 1,0,-1
401 429 m 1,10,-1
 401 -10 l 2,11,12
 401 -22 401 -22 392 -31 c 128,-1,13
 383 -40 383 -40 371 -40 c 2,14,-1
 170 -40 l 2,15,16
 158 -40 158 -40 149 -31 c 128,-1,17
 140 -22 140 -22 140 -10 c 2,18,-1
 140 1114 l 2,19,20
 140 1126 140 1126 149 1135 c 128,-1,21
 158 1144 158 1144 170 1144 c 2,22,-1
 776 1144 l 2,23,24
 963.886 1144 963.886 1144 1091.03 1049.98 c 1,25,26
 1226 946.838 1226 946.838 1226 786.5 c 128,-1,27
 1226 626.172 1226 626.172 1091.03 523.02 c 1,28,29
 963.886 429 963.886 429 776 429 c 2,30,-1
 401 429 l 1,10,-1
EndSplineSet
Validated: 1
EndChar

StartChar: eQ
Encoding: 50 81 53
Width: 1368
GlyphClass: 2
Flags: W
LayerCount: 2
Fore
SplineSet
1323.23 -248.396 m 0,0,1
 1196.39 -305 1196.39 -305 1067 -305 c 0,2,3
 937.377 -305 937.377 -305 866.466 -282.607 c 0,4,5
 794.93 -260.017 794.93 -260.017 747.674 -223.752 c 0,6,7
 672.194 -165.157 672.194 -165.157 646.198 -78.5653 c 1,8,9
 427.59 -51.8946 427.59 -51.8946 292.73 69.883 c 1,10,11
 140 211.933 140 211.933 140 451 c 2,12,-1
 140 598 l 2,13,14
 140 858.561 140 858.561 321.482 1001.6 c 0,15,16
 489.666 1133 489.666 1133 752 1133 c 128,-1,17
 1014.38 1133 1014.38 1133 1181.55 1001.58 c 0,18,19
 1363 858.567 1363 858.567 1363 598 c 2,20,-1
 1363 451 l 2,21,22
 1363 221.448 1363 221.448 1221.14 81.7107 c 1,23,24
 1105.37 -34.0441 1105.37 -34.0441 913.155 -69.2639 c 1,25,26
 921.861 -80.3306 921.861 -80.3306 933.435 -87.2752 c 0,27,28
 991.309 -122 991.309 -122 1071 -122 c 0,29,30
 1158.36 -122 1158.36 -122 1277.42 -84.2486 c 1,31,-1
 1302.91 -77.1111 l 2,32,33
 1314.71 -73.8068 1314.71 -73.8068 1325.65 -79.9582 c 128,-1,34
 1336.58 -86.1096 1336.58 -86.1096 1339.89 -97.9111 c 0,35,36
 1341 -101.879 1341 -101.879 1341 -106 c 2,37,-1
 1341 -221 l 2,38,39
 1341 -240.464 1341 -240.464 1323.23 -248.396 c 0,0,1
1103 598 m 2,40,41
 1103 726.047 1103 726.047 1052.11 801.481 c 128,-1,42
 1001.21 876.915 1001.21 876.915 896.582 907.205 c 0,43,44
 829.658 927 829.658 927 752 927 c 0,45,46
 672.301 927 672.301 927 606.432 907.709 c 0,47,48
 542.797 889.073 542.797 889.073 498.56 850.252 c 1,49,50
 401 768.05 401 768.05 401 598 c 2,51,-1
 401 451 l 2,52,53
 401 322.909 401 322.909 451.665 247.483 c 128,-1,54
 502.33 172.058 502.33 172.058 606.498 141.772 c 0,55,56
 672.402 122 672.402 122 752 122 c 0,57,58
 829.73 122 829.73 122 896.124 141.307 c 0,59,60
 960.398 159.997 960.398 159.997 1004.56 197.853 c 0,61,62
 1103 280.94 1103 280.94 1103 451 c 2,63,-1
 1103 598 l 2,40,41
EndSplineSet
Validated: 1
EndChar

StartChar: eR
Encoding: 51 82 54
Width: 1307
GlyphClass: 2
Flags: W
LayerCount: 2
Fore
SplineSet
1281.12 -34.5798 m 0,0,1
 1229.67 -51 1229.67 -51 1176 -51 c 0,2,3
 1131.56 -51 1131.56 -51 1085.43 -40.273 c 0,4,5
 996.739 -21.0961 996.739 -21.0961 957.408 74.2116 c 1,6,7
 937 120.296 937 120.296 937 201.5 c 0,8,9
 937 271.01 937 271.01 915.8 321.979 c 0,10,11
 894.751 372.588 894.751 372.588 862.525 403.072 c 0,12,13
 807.282 454 807.282 454 727 454 c 2,14,-1
 401 454 l 1,15,-1
 401 -11 l 2,16,17
 401 -23 401 -23 392 -32 c 128,-1,18
 383 -41 383 -41 371 -41 c 2,19,-1
 170 -41 l 2,20,21
 158 -41 158 -41 149 -32 c 128,-1,22
 140 -23 140 -23 140 -11 c 2,23,-1
 140 1113 l 2,24,25
 140 1125 140 1125 149 1134 c 128,-1,26
 158 1143 158 1143 170 1143 c 2,27,-1
 768 1143 l 2,28,29
 1073.11 1143 1073.11 1143 1184.03 975.54 c 0,30,31
 1224 915.007 1224 915.007 1224 849 c 0,32,33
 1224 783.653 1224 783.653 1201.93 733.845 c 0,34,35
 1180.42 685.318 1180.42 685.318 1142.19 643.808 c 0,36,37
 1091.44 587.343 1091.44 587.343 1022.92 559.778 c 1,38,39
 1116.27 508.745 1116.27 508.745 1165.91 410.269 c 1,40,41
 1197 345.855 1197 345.855 1197 267 c 0,42,43
 1197 196.938 1197 196.938 1203.93 161.809 c 0,44,45
 1210.4 129.04 1210.4 129.04 1220.14 109.762 c 1,46,47
 1239.11 79.7162 1239.11 79.7162 1279.66 69.0051 c 0,48,49
 1289.56 66.3893 1289.56 66.3893 1295.78 57.8031 c 128,-1,50
 1302 49.2169 1302 49.2169 1302 40 c 2,51,-1
 1302 -6 l 2,52,53
 1302 -15.7508 1302 -15.7508 1295.92 -23.7734 c 128,-1,54
 1289.84 -31.796 1289.84 -31.796 1281.12 -34.5798 c 0,0,1
770 659 m 2,55,56
 850.007 659 850.007 659 910.447 701.33 c 1,57,58
 963 740.523 963 740.523 963 795 c 2,59,-1
 963 802 l 2,60,61
 963 857.412 963 857.412 913.974 895.904 c 0,62,63
 861.631 937 861.631 937 770 937 c 2,64,-1
 401 937 l 1,65,-1
 401 659 l 1,66,-1
 770 659 l 2,55,56
EndSplineSet
Validated: 1
EndChar

StartChar: eS
Encoding: 52 83 55
Width: 1274
GlyphClass: 2
Flags: W
LayerCount: 2
Fore
SplineSet
402.948 340.238 m 2,0,-1
 401.002 307.152 l 1,1,2
 401.379 229.351 401.379 229.351 475.416 192.333 c 0,3,4
 560.082 150 560.082 150 706.5 150 c 128,-1,5
 852.848 150 852.848 150 935.463 191.772 c 0,6,7
 1008 228.449 1008 228.449 1008 288.5 c 0,8,9
 1008 350.037 1008 350.037 961.034 378.294 c 0,10,11
 903.412 412.962 903.412 412.962 814.798 434.877 c 0,12,13
 722.718 457.65 722.718 457.65 615.193 476.973 c 0,14,15
 503.848 496.983 503.848 496.983 408.17 534.023 c 0,16,17
 309.377 572.269 309.377 572.269 243.461 637.114 c 0,18,19
 173 706.43 173 706.43 173 811 c 0,20,21
 173 912.478 173 912.478 218.443 977.233 c 0,22,23
 262.332 1039.77 262.332 1039.77 335.22 1081.11 c 0,24,25
 475.122 1160 475.122 1160 707 1160 c 0,26,27
 931.711 1160 931.711 1160 1071.54 1083.24 c 1,28,29
 1232 993.611 1232 993.611 1232 816 c 2,30,-1
 1232 796 l 2,31,32
 1232 784 1232 784 1223 775 c 128,-1,33
 1214 766 1214 766 1202 766 c 2,34,-1
 1001 766 l 2,35,36
 989 766 989 766 980 775 c 128,-1,37
 971 784 971 784 971 796 c 2,38,-1
 971 821 l 2,39,40
 971 882.713 971 882.713 905.757 916.333 c 0,41,42
 830.721 955 830.721 955 711 955 c 0,43,44
 510.094 955 510.094 955 450.743 883.428 c 0,45,46
 433 863.557 433 863.557 433 836 c 0,47,48
 433 787.569 433 787.569 479.178 761.664 c 0,49,50
 537.115 729.162 537.115 729.162 626.666 707.132 c 0,51,52
 719.31 684.34 719.31 684.34 827.07 663.978 c 0,53,54
 938.143 642.99 938.143 642.99 1033.57 607.077 c 0,55,56
 1132.45 569.863 1132.45 569.863 1198.45 505.473 c 0,57,58
 1269 436.647 1269 436.647 1269 326 c 0,59,60
 1269 217.499 1269 217.499 1223.54 143.756 c 0,61,62
 1178.51 70.7255 1178.51 70.7255 1099.84 25.9293 c 0,63,64
 955.942 -56 955.942 -56 705 -56 c 0,65,66
 318.02 -56 318.02 -56 188.099 137.269 c 0,67,68
 140 208.857 140 208.857 140 310 c 0,69,70
 140 310.936 140 310.936 140.058 311.871 c 2,71,-1
 142.058 343.871 l 2,72,73
 142.804 355.797 142.804 355.797 151.953 363.898 c 128,-1,74
 161.102 372 161.102 372 172 372 c 2,75,-1
 373 372 l 2,76,77
 385.9 372 385.9 372 394.786 362.279 c 128,-1,78
 403.673 352.558 403.673 352.558 402.948 340.238 c 2,0,-1
EndSplineSet
Validated: 1
EndChar

StartChar: eT
Encoding: 53 84 56
Width: 1217
GlyphClass: 2
Flags: W
LayerCount: 2
Fore
SplineSet
771 938 m 1,0,-1
 771 -10 l 2,1,2
 771 -22 771 -22 762 -31 c 128,-1,3
 753 -40 753 -40 741 -40 c 2,4,-1
 541 -40 l 2,5,6
 529 -40 529 -40 520 -31 c 128,-1,7
 511 -22 511 -22 511 -10 c 2,8,-1
 511 938 l 1,9,-1
 100 938 l 2,10,11
 88 938 88 938 79 947 c 128,-1,12
 70 956 70 956 70 968 c 2,13,-1
 70 1114 l 2,14,15
 70 1126 70 1126 79 1135 c 128,-1,16
 88 1144 88 1144 100 1144 c 2,17,-1
 1182 1144 l 2,18,19
 1194 1144 1194 1144 1203 1135 c 128,-1,20
 1212 1126 1212 1126 1212 1114 c 2,21,-1
 1212 968 l 2,22,23
 1212 956 1212 956 1203 947 c 128,-1,24
 1194 938 1194 938 1182 938 c 2,25,-1
 771 938 l 1,0,-1
EndSplineSet
Validated: 1
EndChar

StartChar: eU
Encoding: 54 85 57
Width: 1245
GlyphClass: 2
Flags: W
LayerCount: 2
Fore
SplineSet
1240 1112 m 2,0,-1
 1240 347 l 2,1,2
 1240 160.89 1240 160.89 1088.75 48.8124 c 1,3,4
 941.754 -58 941.754 -58 703 -58 c 2,5,-1
 676 -58 l 2,6,7
 437.197 -58 437.197 -58 291.268 48.8015 c 0,8,9
 140 159.804 140 159.804 140 347 c 2,10,-1
 140 1112 l 2,11,12
 140 1124 140 1124 149 1133 c 128,-1,13
 158 1142 158 1142 170 1142 c 2,14,-1
 371 1142 l 2,15,16
 383 1142 383 1142 392 1133 c 128,-1,17
 401 1124 401 1124 401 1112 c 2,18,-1
 401 350 l 2,19,20
 401 264.07 401 264.07 474.87 209.097 c 0,21,22
 558.883 147 558.883 147 694.5 147 c 0,23,24
 829.843 147 829.843 147 906.776 205.831 c 0,25,26
 980 261.824 980 261.824 980 350 c 2,27,-1
 980 1112 l 2,28,29
 980 1124 980 1124 989 1133 c 128,-1,30
 998 1142 998 1142 1010 1142 c 2,31,-1
 1210 1142 l 2,32,33
 1222 1142 1222 1142 1231 1133 c 128,-1,34
 1240 1124 1240 1124 1240 1112 c 2,0,-1
EndSplineSet
Validated: 1
EndChar

StartChar: eV
Encoding: 55 86 58
Width: 1350
GlyphClass: 2
Flags: W
LayerCount: 2
Fore
SplineSet
717.027 269.117 m 1,0,-1
 1092.52 1126.04 l 2,1,2
 1100.39 1144 1100.39 1144 1120 1144 c 2,3,-1
 1315 1144 l 2,4,5
 1327 1144 1327 1144 1336 1135 c 128,-1,6
 1345 1126 1345 1126 1345 1114 c 0,7,8
 1345 1107.63 1345 1107.63 1342.41 1101.81 c 2,9,-1
 842.41 -22.1932 l 2,10,11
 834.489 -40 834.489 -40 815 -40 c 2,12,-1
 600 -40 l 2,13,14
 580.511 -40 580.511 -40 572.59 -22.1932 c 2,15,-1
 72.5897 1101.81 l 2,16,17
 67.6086 1113 67.6086 1113 72.1089 1124.72 c 128,-1,18
 76.6092 1136.43 76.6092 1136.43 87.8068 1141.41 c 0,19,20
 93.6275 1144 93.6275 1144 100 1144 c 2,21,-1
 315 1144 l 2,22,23
 334.627 1144 334.627 1144 342.489 1126.02 c 2,24,-1
 717.027 269.117 l 1,0,-1
EndSplineSet
Validated: 1
EndChar

StartChar: eW
Encoding: 56 87 59
Width: 1957
GlyphClass: 2
Flags: W
LayerCount: 2
Fore
SplineSet
1011.64 731.81 m 1,0,-1
 736.174 -21.3052 l 2,1,2
 728.971 -41 728.971 -41 708 -41 c 2,3,-1
 503 -41 l 2,4,5
 493.479 -41 493.479 -41 485.535 -35.0297 c 128,-1,6
 477.591 -29.0595 477.591 -29.0595 474.744 -21.0805 c 2,7,-1
 73.7443 1102.92 l 2,8,9
 69.6263 1114.46 69.6263 1114.46 75.0014 1125.8 c 128,-1,10
 80.3764 1137.14 80.3764 1137.14 91.9194 1141.26 c 0,11,12
 96.8084 1143 96.8084 1143 102 1143 c 2,13,-1
 317 1143 l 2,14,15
 326.559 1143 326.559 1143 334.515 1137.01 c 128,-1,16
 342.471 1131.02 342.471 1131.02 345.31 1122.93 c 2,17,-1
 620.075 339.338 l 1,18,-1
 896.711 1122.99 l 2,19,20
 899.888 1131.99 899.888 1131.99 908.175 1137.49 c 128,-1,21
 916.462 1143 916.462 1143 925 1143 c 2,22,-1
 1120 1143 l 2,23,24
 1129.56 1143 1129.56 1143 1137.51 1137.01 c 128,-1,25
 1145.47 1131.02 1145.47 1131.02 1148.31 1122.93 c 2,26,-1
 1423.07 339.338 l 1,27,-1
 1699.71 1122.99 l 2,28,29
 1702.89 1131.99 1702.89 1131.99 1711.18 1137.49 c 128,-1,30
 1719.46 1143 1719.46 1143 1728 1143 c 2,31,-1
 1922 1143 l 2,32,33
 1934 1143 1934 1143 1943 1134 c 128,-1,34
 1952 1125 1952 1125 1952 1113 c 0,35,36
 1952 1107.69 1952 1107.69 1950.18 1102.7 c 2,37,-1
 1539.18 -21.3026 l 2,38,39
 1531.97 -41 1531.97 -41 1511 -41 c 2,40,-1
 1306 -41 l 2,41,42
 1296.46 -41 1296.46 -41 1288.51 -35.0199 c 128,-1,43
 1280.56 -29.0399 1280.56 -29.0399 1277.71 -20.9974 c 2,44,-1
 1011.64 731.81 l 1,0,-1
EndSplineSet
Validated: 1
EndChar

StartChar: eX
Encoding: 57 88 60
Width: 1388
GlyphClass: 2
Flags: W
LayerCount: 2
Fore
SplineSet
722.713 396.343 m 1,0,-1
 346.491 -29.8536 l 2,1,2
 337.534 -40 337.534 -40 324 -40 c 2,3,-1
 100 -40 l 2,4,5
 88 -40 88 -40 79 -31 c 128,-1,6
 70 -22 70 -22 70 -10 c 0,7,8
 70 1.31782 70 1.31782 77.4755 9.81535 c 2,9,-1
 572.247 572.232 l 1,10,-1
 125.246 1092.45 l 2,11,12
 117.259 1101.74 117.259 1101.74 118.206 1114.26 c 128,-1,13
 119.153 1126.77 119.153 1126.77 128.448 1134.75 c 0,14,15
 136.881 1142 136.881 1142 148 1142 c 2,16,-1
 389 1142 l 2,17,18
 402.791 1142 402.791 1142 411.77 1131.53 c 2,19,-1
 733.513 756.478 l 1,20,21
 792.713 822.587 792.713 822.587 845.865 883.689 c 0,22,23
 909.376 956.704 909.376 956.704 957.397 1011.73 c 0,24,25
 1005.6 1066.96 1005.6 1066.96 1034.62 1098.98 c 2,26,-1
 1063.47 1131.8 l 2,27,28
 1072.43 1142 1072.43 1142 1086 1142 c 2,29,-1
 1309 1142 l 2,30,31
 1321 1142 1321 1142 1330 1133 c 128,-1,32
 1339 1124 1339 1124 1339 1112 c 0,33,34
 1339 1100.62 1339 1100.62 1331.45 1092.1 c 2,35,-1
 1292.6 1048.26 l 1,36,37
 1224.71 969.393 1224.71 969.393 1089.5 816.151 c 0,38,39
 967.341 677.713 967.341 677.713 883.637 580.987 c 1,40,-1
 1376.71 9.59959 l 2,41,42
 1384.72 0.321207 1384.72 0.321207 1383.8 -12.1923 c 128,-1,43
 1382.88 -24.7058 1382.88 -24.7058 1373.6 -32.7125 c 0,44,45
 1365.15 -40 1365.15 -40 1354 -40 c 2,46,-1
 1112 -40 l 2,47,48
 1098.24 -40 1098.24 -40 1089.26 -29.5693 c 2,49,-1
 722.713 396.343 l 1,0,-1
EndSplineSet
Validated: 1
EndChar

StartChar: eY
Encoding: 58 89 61
Width: 1327
GlyphClass: 2
Flags: W
LayerCount: 2
Fore
SplineSet
828 414.368 m 1,0,-1
 828 -10 l 2,1,2
 828 -22 828 -22 819 -31 c 128,-1,3
 810 -40 810 -40 798 -40 c 2,4,-1
 597 -40 l 2,5,6
 585 -40 585 -40 576 -31 c 128,-1,7
 567 -22 567 -22 567 -10 c 2,8,-1
 567 414.352 l 1,9,-1
 77.6239 1096.51 l 2,10,11
 70.48 1106.47 70.48 1106.47 72.5174 1118.85 c 128,-1,12
 74.5548 1131.23 74.5548 1131.23 84.5128 1138.38 c 0,13,14
 92.3526 1144 92.3526 1144 102 1144 c 2,15,-1
 331 1144 l 2,16,17
 346.404 1144 346.404 1144 355.38 1131.48 c 2,18,-1
 709.89 637.058 l 1,19,-1
 1060.53 1131.36 l 2,20,21
 1069.5 1144 1069.5 1144 1085 1144 c 2,22,-1
 1292 1144 l 2,23,24
 1304 1144 1304 1144 1313 1135 c 128,-1,25
 1322 1126 1322 1126 1322 1114 c 0,26,27
 1322 1104.37 1322 1104.37 1316.39 1096.54 c 2,28,-1
 828 414.368 l 1,0,-1
EndSplineSet
Validated: 1
EndChar

StartChar: eZ
Encoding: 59 90 62
Width: 1276
GlyphClass: 2
Flags: W
LayerCount: 2
Fore
SplineSet
140 -10 m 2,0,-1
 140 52 l 2,1,2
 140 62.6929 140 62.6929 146.763 70.975 c 2,3,-1
 854.77 938 l 1,4,-1
 219 938 l 2,5,6
 207 938 207 938 198 947 c 128,-1,7
 189 956 189 956 189 968 c 2,8,-1
 189 1114 l 2,9,10
 189 1126 189 1126 198 1135 c 128,-1,11
 207 1144 207 1144 219 1144 c 2,12,-1
 1225 1144 l 2,13,14
 1237 1144 1237 1144 1246 1135 c 128,-1,15
 1255 1126 1255 1126 1255 1114 c 2,16,-1
 1255 1052 l 2,17,18
 1255 1041.28 1255 1041.28 1248.21 1032.99 c 2,19,-1
 538.336 166 l 1,20,-1
 1241 166 l 2,21,22
 1253 166 1253 166 1262 157 c 128,-1,23
 1271 148 1271 148 1271 136 c 2,24,-1
 1271 -10 l 2,25,26
 1271 -22 1271 -22 1262 -31 c 128,-1,27
 1253 -40 1253 -40 1241 -40 c 2,28,-1
 170 -40 l 2,29,30
 158 -40 158 -40 149 -31 c 128,-1,31
 140 -22 140 -22 140 -10 c 2,0,-1
EndSplineSet
Validated: 1
EndChar

StartChar: asbl
Encoding: 60 91 63
Width: 599
GlyphClass: 2
Flags: W
LayerCount: 2
Fore
SplineSet
594 -55 m 6,0,-1
 594 -175 l 6,1,2
 594 -187 594 -187 585 -196 c 132,-1,3
 576 -205 576 -205 564 -205 c 6,4,-1
 140 -205 l 6,5,6
 128 -205 128 -205 119 -196 c 132,-1,7
 110 -187 110 -187 110 -175 c 6,8,-1
 110 1277 l 6,9,10
 110 1289 110 1289 119 1298 c 132,-1,11
 128 1307 128 1307 140 1307 c 6,12,-1
 564 1307 l 6,13,14
 576 1307 576 1307 585 1298 c 132,-1,15
 594 1289 594 1289 594 1277 c 6,16,-1
 594 1157 l 6,17,18
 594 1145 594 1145 585 1136 c 132,-1,19
 576 1127 576 1127 564 1127 c 6,20,-1
 287 1127 l 5,21,-1
 287 -25 l 5,22,-1
 564 -25 l 6,23,24
 576 -25 576 -25 585 -34 c 132,-1,25
 594 -43 594 -43 594 -55 c 6,0,-1
EndSplineSet
Validated: 1
EndChar

StartChar: abs
Encoding: 61 92 64
Width: 655
GlyphClass: 2
Flags: W
LayerCount: 2
Fore
SplineSet
512.514 -111.411 m 2,0,-1
 141.514 1011.59 l 2,1,2
 138.009 1022.2 138.009 1022.2 142.299 1032.52 c 2,3,-1
 221.299 1222.52 l 2,4,5
 226.004 1233.83 226.004 1233.83 237.603 1238.62 c 128,-1,6
 249.201 1243.41 249.201 1243.41 260.518 1238.7 c 0,7,8
 273.183 1233.43 273.183 1233.43 277.486 1220.41 c 2,9,-1
 648.486 97.4107 l 2,10,11
 651.991 86.8 651.991 86.8 647.701 76.4822 c 2,12,-1
 568.701 -113.518 l 2,13,14
 563.996 -124.834 563.996 -124.834 552.397 -129.62 c 128,-1,15
 540.798 -134.406 540.798 -134.406 529.482 -129.701 c 0,16,17
 516.816 -124.434 516.816 -124.434 512.514 -111.411 c 2,0,-1
EndSplineSet
Validated: 1
EndChar

StartChar: asbr
Encoding: 62 93 65
Width: 599
GlyphClass: 2
Flags: W
LayerCount: 2
Fore
SplineSet
110 -55 m 6,0,-1
 110 -175 l 6,1,2
 110 -187 110 -187 119 -196 c 132,-1,3
 128 -205 128 -205 140 -205 c 6,4,-1
 564 -205 l 6,5,6
 576 -205 576 -205 585 -196 c 132,-1,7
 594 -187 594 -187 594 -175 c 6,8,-1
 594 1277 l 6,9,10
 594 1289 594 1289 585 1298 c 132,-1,11
 576 1307 576 1307 564 1307 c 6,12,-1
 140 1307 l 6,13,14
 128 1307 128 1307 119 1298 c 132,-1,15
 110 1289 110 1289 110 1277 c 6,16,-1
 110 1157 l 6,17,18
 110 1145 110 1145 119 1136 c 132,-1,19
 128 1127 128 1127 140 1127 c 6,20,-1
 417 1127 l 5,21,-1
 417 -25 l 5,22,-1
 140 -25 l 6,23,24
 128 -25 128 -25 119 -34 c 132,-1,25
 110 -43 110 -43 110 -55 c 6,0,-1
EndSplineSet
Validated: 9
EndChar

StartChar: acir
Encoding: 63 94 66
Width: 932
GlyphClass: 2
Flags: W
LayerCount: 2
Fore
SplineSet
143.783 637.583 m 2,0,-1
 504.783 1286.58 l 2,1,2
 510.741 1297.29 510.741 1297.29 522.807 1300.73 c 128,-1,3
 534.873 1304.17 534.873 1304.17 545.583 1298.22 c 0,4,5
 552.976 1294.1 552.976 1294.1 557.131 1286.74 c 2,6,-1
 923.131 637.737 l 2,7,8
 929.67 626.142 929.67 626.142 925.461 613.513 c 2,9,-1
 885.461 493.513 l 2,10,11
 881.585 481.887 881.585 481.887 870.362 476.275 c 128,-1,12
 859.14 470.664 859.14 470.664 847.513 474.539 c 0,13,14
 836.761 478.124 836.761 478.124 831.065 487.921 c 2,15,-1
 532.12 1002.11 l 1,16,-1
 235.996 488.026 l 2,17,18
 229.878 477.406 229.878 477.406 217.762 474.147 c 128,-1,19
 205.645 470.887 205.645 470.887 195.026 477.004 c 0,20,21
 185.145 482.696 185.145 482.696 181.54 493.513 c 2,22,-1
 141.54 613.513 l 2,23,24
 137.363 626.042 137.363 626.042 143.783 637.583 c 2,0,-1
EndSplineSet
Validated: 1
EndChar

StartChar: aus
Encoding: 64 95 67
Width: 1029
GlyphClass: 2
Flags: W
LayerCount: 2
Fore
SplineSet
170 -565 m 1,0,-1
 170 -404 l 1,1,-1
 1024 -404 l 1,2,-1
 1024 -565 l 1,3,-1
 170 -565 l 1,0,-1
EndSplineSet
Validated: 1
EndChar

StartChar: agrv
Encoding: 65 96 68
Width: 582
GlyphClass: 2
Flags: W
LayerCount: 2
Fore
SplineSet
577 1040 m 1,1,-1
 543 942 l 1,2,3
 332.214 981.356 332.214 981.356 246.213 1086.02 c 0,4,5
 146.311 1209.47 146.311 1209.47 157 1236 c 0,6,7
 214.213 1378.02 214.213 1378.02 286 1363 c 1,8,9
 482.213 1274.02 482.213 1274.02 577 1040 c 1,1,-1
EndSplineSet
Validated: 33
EndChar

StartChar: ea
Encoding: 66 97 69
Width: 833
GlyphClass: 2
Flags: W
LayerCount: 2
Fore
SplineSet
344 498 m 2,0,-1
 194 498 l 2,1,2
 180.428 498 180.428 498 171.631 508.584 c 128,-1,3
 162.834 519.168 162.834 519.168 164.183 531.313 c 0,4,5
 170.701 589.97 170.701 589.97 189.651 632.33 c 0,6,7
 213.139 684.002 213.139 684.002 258.707 713.194 c 0,8,9
 302.743 742.282 302.743 742.282 359.956 754.385 c 0,10,11
 418.033 766 418.033 766 498 766 c 0,12,13
 663.875 766 663.875 766 745.226 713.234 c 0,14,15
 828 660.45 828 660.45 828 535 c 2,16,-1
 828 1 l 2,17,18
 828 -11 828 -11 819 -20 c 128,-1,19
 810 -29 810 -29 798 -29 c 2,20,-1
 647 -29 l 2,21,22
 635 -29 635 -29 626 -20 c 128,-1,23
 617 -11 617 -11 617 1 c 2,24,-1
 617 15.881 l 1,25,26
 585.684 -9.21014 585.684 -9.21014 540.189 -25.218 c 0,27,28
 481.377 -47 481.377 -47 395 -47 c 0,29,30
 261.27 -47 261.27 -47 200.545 9.05455 c 0,31,32
 140 66.0382 140 66.0382 140 172 c 0,33,34
 140 222.366 140 222.366 152.384 264.021 c 1,35,36
 166.079 305.107 166.079 305.107 187.235 333.314 c 0,37,38
 209.25 361.122 209.25 361.122 239.14 381.816 c 0,39,40
 269.433 402.011 269.433 402.011 300.91 413.252 c 0,41,42
 331.639 424.227 331.639 424.227 367.444 429.652 c 2,43,-1
 609 467.335 l 1,44,-1
 609 505 l 2,45,46
 609 550.826 609 550.826 584.351 567.043 c 0,47,48
 557.805 585 557.805 585 490 585 c 0,49,50
 442.027 585 442.027 585 417.634 576.588 c 0,51,52
 394.722 568.951 394.722 568.951 385.44 554.1 c 0,53,54
 378.102 542.359 378.102 542.359 373.232 521.254 c 0,55,56
 370.887 511.091 370.887 511.091 362.401 504.546 c 128,-1,57
 353.916 498 353.916 498 344 498 c 2,0,-1
609 270 m 2,58,-1
 609 318.434 l 1,59,-1
 481.647 297.361 l 2,60,61
 456.024 293.565 456.024 293.565 439.075 289.84 c 0,62,63
 422.833 285.509 422.833 285.509 405.04 278.505 c 1,64,65
 389.062 270.636 389.062 270.636 379.713 261.287 c 0,66,67
 370.919 252.493 370.919 252.493 365.031 236.3 c 0,68,69
 359 221.223 359 221.223 359 199 c 0,70,71
 359 159.158 359 159.158 381.996 140.22 c 0,72,73
 405.651 121 405.651 121 467 121 c 0,74,75
 509.365 121 509.365 121 538.578 131.136 c 1,76,77
 566.269 142.114 566.269 142.114 581.005 162.008 c 0,78,79
 596.171 181.963 596.171 181.963 601.864 207.171 c 0,80,81
 609 233.928 609 233.928 609 270 c 2,58,-1
EndSplineSet
Validated: 1
EndChar

StartChar: eb
Encoding: 67 98 70
Width: 900
GlyphClass: 2
Flags: W
LayerCount: 2
Fore
SplineSet
140 3 m 2,0,-1
 140 991 l 2,1,2
 140 1003 140 1003 149 1012 c 128,-1,3
 158 1021 158 1021 170 1021 c 2,4,-1
 329 1021 l 2,5,6
 341 1021 341 1021 350 1012 c 128,-1,7
 359 1003 359 1003 359 991 c 2,8,-1
 359 698.984 l 1,9,10
 430.921 768 430.921 768 571 768 c 0,11,12
 742.627 768 742.627 768 819.671 669.43 c 0,13,14
 895 572.274 895 572.274 895 371 c 0,15,16
 895 155.341 895 155.341 814.299 56.1018 c 0,17,18
 733.393 -43.9045 733.393 -43.9045 569.1 -45 c 0,19,20
 485.306 -45 485.306 -45 427.675 -26.5144 c 0,21,22
 383.403 -11.757 383.403 -11.757 352 24.8803 c 1,23,-1
 352 3 l 2,24,25
 352 -9 352 -9 343 -18 c 128,-1,26
 334 -27 334 -27 322 -27 c 2,27,-1
 170 -27 l 2,28,29
 158 -27 158 -27 149 -18 c 128,-1,30
 140 -9 140 -9 140 3 c 2,0,-1
353 363 m 0,31,32
 353 290.329 353 290.329 363.265 244.6 c 0,33,34
 373.441 199.655 373.441 199.655 394.779 177.132 c 0,35,36
 416.31 154.405 416.31 154.405 441.955 146.633 c 0,37,38
 468.719 138 468.719 138 511 138 c 0,39,40
 556.132 138 556.132 138 584.759 147.543 c 0,41,42
 611.644 155.992 611.644 155.992 631.98 180.237 c 0,43,44
 651.993 204.252 651.993 204.252 661.575 247.862 c 1,45,46
 670 294.297 670 294.297 670 366 c 0,47,48
 670 487.146 670 487.146 636.323 536.94 c 1,49,50
 602.895 584 602.895 584 508 584 c 0,51,52
 452.062 584 452.062 584 419.449 566.708 c 1,53,54
 388.26 548.882 388.26 548.882 371.17 501.682 c 0,55,56
 353 452.624 353 452.624 353 363 c 0,31,32
EndSplineSet
Validated: 1
EndChar

StartChar: ec
Encoding: 68 99 71
Width: 862
GlyphClass: 2
Flags: W
LayerCount: 2
Fore
SplineSet
827 484 m 2,0,-1
 666 484 l 2,1,2
 656.006 484 656.006 484 647.883 490.187 c 128,-1,3
 639.76 496.374 639.76 496.374 637.094 505.971 c 0,4,5
 624.443 551.518 624.443 551.518 601.882 571.745 c 0,6,7
 576.377 595 576.377 595 508 595 c 0,8,9
 467.328 595 467.328 595 442.04 585.728 c 0,10,11
 417.986 577.46 417.986 577.46 399.469 554.313 c 0,12,13
 381.225 531.309 381.225 531.309 373.506 487.572 c 0,14,15
 365 443.156 365 443.156 365 371 c 0,16,17
 365 299.787 365 299.787 373.516 254.371 c 0,18,19
 381.237 210.619 381.237 210.619 398.897 188.143 c 0,20,21
 415.733 165.186 415.733 165.186 438.064 157.261 c 0,22,23
 461.197 149 461.197 149 498 149 c 0,24,25
 572.488 149 572.488 149 603.844 177.22 c 0,26,27
 631.074 202.117 631.074 202.117 638.394 246.845 c 0,28,29
 640.169 257.691 640.169 257.691 648.882 264.845 c 128,-1,30
 657.596 272 657.596 272 668 272 c 2,31,-1
 827 272 l 2,32,33
 840.581 272 840.581 272 849.413 261.412 c 128,-1,34
 858.245 250.823 858.245 250.823 856.794 238.495 c 0,35,36
 850.355 183.749 850.355 183.749 833.928 141.043 c 0,37,38
 813.728 90.5428 813.728 90.5428 774.654 49.2361 c 0,39,40
 734.249 7.6766 734.249 7.6766 667.133 -13.5761 c 0,41,42
 600.718 -35 600.718 -35 508 -35 c 0,43,44
 419.507 -35 419.507 -35 353.077 -14.6425 c 0,45,46
 287.082 6.25574 287.082 6.25574 246.608 41.1086 c 0,47,48
 205.661 75.2315 205.661 75.2315 180.729 128.497 c 0,49,50
 156.967 181.42 156.967 181.42 148.349 237.438 c 0,51,52
 140 291.707 140 291.707 140 364 c 0,53,54
 140 440.314 140 440.314 149.414 500.984 c 1,55,56
 160.161 560.092 160.161 560.092 184.949 613.98 c 1,57,58
 211.957 667.995 211.957 667.995 253.885 703.123 c 0,59,60
 296.537 737.919 296.537 737.919 363.354 758.729 c 1,61,62
 429.735 778 429.735 778 518 778 c 0,63,64
 682.999 778 682.999 778 763.489 709.807 c 0,65,66
 836.97 646.503 836.97 646.503 856.651 518.562 c 0,67,68
 858.722 505.102 858.722 505.102 849.605 494.551 c 128,-1,69
 840.487 484 840.487 484 827 484 c 2,0,-1
EndSplineSet
Validated: 1
EndChar

StartChar: ed
Encoding: 69 100 72
Width: 900
GlyphClass: 2
Flags: W
LayerCount: 2
Fore
SplineSet
865 -29 m 2,0,-1
 713 -29 l 2,1,2
 701 -29 701 -29 692 -20 c 128,-1,3
 683 -11 683 -11 683 1 c 2,4,-1
 683 22.2261 l 1,5,6
 650.889 -13.993 650.889 -13.993 607.574 -28.4314 c 0,7,8
 552.96 -47 552.96 -47 467.905 -47 c 0,9,10
 294.736 -45.9041 294.736 -45.9041 216.806 60.2614 c 0,11,12
 140 165.195 140 165.195 140 361 c 0,13,14
 140 471.174 140 471.174 162.103 549.06 c 0,15,16
 184.008 629.016 184.008 629.016 227.507 675.903 c 128,-1,17
 270.921 722.699 270.921 722.699 329.558 744.125 c 0,18,19
 387.533 766 387.533 766 465 766 c 0,20,21
 605.473 766 605.473 766 676 697.395 c 1,22,-1
 676 989 l 2,23,24
 676 1001 676 1001 685 1010 c 128,-1,25
 694 1019 694 1019 706 1019 c 2,26,-1
 865 1019 l 2,27,28
 877 1019 877 1019 886 1010 c 128,-1,29
 895 1001 895 1001 895 989 c 2,30,-1
 895 1 l 2,31,32
 895 -11 895 -11 886 -20 c 128,-1,33
 877 -29 877 -29 865 -29 c 2,0,-1
682 360 m 0,34,35
 682 449.967 682 449.967 664.716 499.997 c 0,36,37
 647.68 547.048 647.68 547.048 617.404 564.786 c 1,38,39
 584.938 582 584.938 582 528 582 c 0,40,41
 432.62 582 432.62 582 399.562 534.774 c 0,42,43
 365 485.525 365 485.525 365 364 c 0,44,45
 365 292.032 365 292.032 374.373 246.103 c 0,46,47
 383.713 201.952 383.713 201.952 403.874 177.413 c 1,48,49
 424.47 153.956 424.47 153.956 451.241 145.542 c 0,50,51
 479.868 136 479.868 136 524 136 c 0,52,53
 567.281 136 567.281 136 594.161 144.671 c 0,54,55
 620.502 152.419 620.502 152.419 641.354 175.237 c 128,-1,56
 662.34 198.204 662.34 198.204 671.688 242.392 c 0,57,58
 682 288.323 682 288.323 682 360 c 0,34,35
EndSplineSet
Validated: 1
EndChar

StartChar: ee
Encoding: 70 101 73
Width: 879
GlyphClass: 2
Flags: W
LayerCount: 2
Fore
SplineSet
665 225 m 2,0,-1
 832 225 l 2,1,2
 846.315 225 846.315 225 855.187 213.499 c 128,-1,3
 864.06 201.998 864.06 201.998 861.388 188.972 c 0,4,5
 838.919 79.4245 838.919 79.4245 748.816 24.7123 c 128,-1,6
 658.714 -30 658.714 -30 511 -30 c 0,7,8
 329 -30 329 -30 234.5 76.5 c 128,-1,9
 140 183 140 183 140 384 c 0,10,11
 140 578.097 140 578.097 236.918 680.282 c 128,-1,12
 333.837 782.466 333.837 782.466 519.957 783 c 0,13,14
 692.7 783 692.7 783 782.047 669.348 c 128,-1,15
 871.394 555.697 871.394 555.697 873.998 341.364 c 0,16,17
 874.153 328.559 874.153 328.559 864.557 319.779 c 128,-1,18
 854.96 311 854.96 311 844 311 c 2,19,-1
 365.624 311 l 1,20,21
 372.213 226.452 372.213 226.452 406.824 189.726 c 128,-1,22
 441.435 153 441.435 153 510 153 c 0,23,24
 612.751 153 612.751 153 637.728 207.5 c 0,25,26
 645.749 225 645.749 225 665 225 c 2,0,-1
366.681 457 m 1,27,-1
 654.261 457 l 1,28,29
 646.863 532.721 646.863 532.721 612.607 565.86 c 128,-1,30
 578.351 599 578.351 599 510 599 c 128,-1,31
 441.605 599 441.605 599 407.479 565.395 c 128,-1,32
 373.353 531.79 373.353 531.79 366.681 457 c 1,27,-1
EndSplineSet
Validated: 33
EndChar

StartChar: ef
Encoding: 71 102 74
Width: 615
GlyphClass: 2
Flags: W
LayerCount: 2
Fore
SplineSet
170 742 m 2,0,-1
 250 742 l 1,1,-1
 250 808 l 2,2,3
 250 862.904 250 862.904 260.058 900.9 c 0,4,5
 270.786 939.043 270.786 939.043 296.124 968.415 c 0,6,7
 322.365 999.27 322.365 999.27 369.057 1013.64 c 0,8,9
 414.357 1028 414.357 1028 483 1028 c 0,10,11
 510.038 1028 510.038 1028 540.659 1024.89 c 0,12,13
 567.601 1022.89 567.601 1022.89 581.996 1021.93 c 0,14,15
 593.903 1021.14 593.903 1021.14 601.952 1011.96 c 128,-1,16
 610 1002.78 610 1002.78 610 992 c 2,17,-1
 610 875 l 2,18,19
 610 862.097 610 862.097 600.278 853.201 c 128,-1,20
 590.557 844.305 590.557 844.305 578.185 845.055 c 0,21,22
 546.086 847 546.086 847 531 847 c 0,23,24
 512.139 847 512.139 847 499.985 842.71 c 0,25,26
 499.231 842.444 499.231 842.444 498.465 842.219 c 0,27,28
 487.13 838.885 487.13 838.885 481.517 834.395 c 0,29,30
 476.721 830.706 476.721 830.706 474.091 819.659 c 0,31,32
 470.907 807.719 470.907 807.719 470 798.652 c 2,33,-1
 470 742 l 1,34,-1
 576 742 l 2,35,36
 588 742 588 742 597 733 c 128,-1,37
 606 724 606 724 606 712 c 2,38,-1
 606 592 l 2,39,40
 606 580 606 580 597 571 c 128,-1,41
 588 562 588 562 576 562 c 2,42,-1
 470 562 l 1,43,-1
 470 -3 l 2,44,45
 470 -15 470 -15 461 -24 c 128,-1,46
 452 -33 452 -33 440 -33 c 2,47,-1
 280 -33 l 2,48,49
 268 -33 268 -33 259 -24 c 128,-1,50
 250 -15 250 -15 250 -3 c 2,51,-1
 250 562 l 1,52,-1
 170 562 l 2,53,54
 158 562 158 562 149 571 c 128,-1,55
 140 580 140 580 140 592 c 2,56,-1
 140 712 l 2,57,58
 140 724 140 724 149 733 c 128,-1,59
 158 742 158 742 170 742 c 2,0,-1
EndSplineSet
Validated: 1
EndChar

StartChar: eg
Encoding: 72 103 75
Width: 898
GlyphClass: 2
Flags: W
LayerCount: 2
Fore
SplineSet
191 -83 m 2,0,-1
 375 -83 l 2,1,2
 385.805 -83 385.805 -83 394.173 -90.3687 c 128,-1,3
 402.542 -97.7374 402.542 -97.7374 404.417 -107.117 c 0,4,5
 404.997 -110.015 404.997 -110.015 405.686 -113.002 c 0,6,7
 408.695 -120.036 408.695 -120.036 416.353 -130.478 c 0,8,9
 424.161 -141.539 424.161 -141.539 435.416 -147.167 c 0,10,11
 447.458 -153.188 447.458 -153.188 472.694 -157.539 c 1,12,13
 498.178 -163 498.178 -163 533 -163 c 0,14,15
 579.329 -163 579.329 -163 607.573 -155.206 c 0,16,17
 634.008 -146.915 634.008 -146.915 649.047 -127.93 c 1,18,19
 663.466 -107.894 663.466 -107.894 668.388 -80.1905 c 0,20,21
 673 -50.0974 673 -50.0974 673 -1 c 2,22,-1
 673 41.2955 l 1,23,24
 644.91 11.8739 644.91 11.8739 606.626 -4.65701 c 0,25,26
 556.9 -25 556.9 -25 475 -25 c 0,27,28
 306.567 -25 306.567 -25 222.505 69.1508 c 1,29,30
 140 163.757 140 163.757 140 372 c 0,31,32
 140 577.919 140 577.919 220.008 673.271 c 0,33,34
 300.988 770 300.988 770 463 770 c 0,35,36
 616.039 770 616.039 770 683 691.893 c 1,37,-1
 683 722 l 2,38,39
 683 734 683 734 692 743 c 128,-1,40
 701 752 701 752 713 752 c 2,41,-1
 863 752 l 2,42,43
 875 752 875 752 884 743 c 128,-1,44
 893 734 893 734 893 722 c 2,45,-1
 893 38 l 2,46,47
 893 -2.53672 893 -2.53672 891.978 -30.1477 c 0,48,49
 890.932 -57.329 890.932 -57.329 886.782 -92.6129 c 0,50,51
 882.401 -127.666 882.401 -127.666 874.461 -151.487 c 0,52,53
 866.863 -174.28 866.863 -174.28 853.829 -201.432 c 1,54,55
 839.315 -229.251 839.315 -229.251 819.144 -247.238 c 0,56,57
 799.576 -265.456 799.576 -265.456 770.366 -282.766 c 0,58,59
 741.971 -299.803 741.971 -299.803 704.314 -309.097 c 0,60,61
 668.204 -318.575 668.204 -318.575 620.88 -324.748 c 0,62,63
 572.947 -331 572.947 -331 514 -331 c 0,64,65
 432.225 -331 432.225 -331 370.408 -319.474 c 0,66,67
 308.586 -307.544 308.586 -307.544 261.352 -281.181 c 0,68,69
 212.844 -253.968 212.844 -253.968 186.689 -206.412 c 0,70,71
 165.656 -167.853 165.656 -167.853 161.113 -115.599 c 0,72,73
 159.94 -102.112 159.94 -102.112 169.716 -92.556 c 128,-1,74
 179.492 -83 179.492 -83 191 -83 c 2,0,-1
365 369 m 0,75,76
 365 248.497 365 248.497 397.551 202.241 c 0,77,78
 428.598 158 428.598 158 514 158 c 0,79,80
 604.32 158 604.32 158 639.647 205.521 c 1,81,82
 675 256.101 675 256.101 675 376 c 0,83,84
 675 494.047 675 494.047 639.918 541.11 c 0,85,86
 605.893 587 605.893 587 513 587 c 0,87,88
 456.921 587 456.921 587 426.782 569.894 c 0,89,90
 397.57 553.416 397.57 553.416 381.357 507.207 c 0,91,92
 365 459.047 365 459.047 365 369 c 0,75,76
EndSplineSet
Validated: 1
EndChar

StartChar: eh
Encoding: 73 104 76
Width: 850
GlyphClass: 2
Flags: W
LayerCount: 2
Fore
SplineSet
359 988 m 2,0,-1
 359 695.732 l 1,1,2
 423.182 764 423.182 764 564 764 c 0,3,4
 632.692 764 632.692 764 681.143 749.877 c 0,5,6
 731.738 735.854 731.738 735.854 763.454 708.837 c 0,7,8
 796.259 680.893 796.259 680.893 813.906 635.015 c 0,9,10
 832.31 589.545 832.31 589.545 838.789 535.553 c 0,11,12
 845 482.749 845 482.749 845 406 c 2,13,-1
 845 0 l 2,14,15
 845 -12 845 -12 836 -21 c 128,-1,16
 827 -30 827 -30 815 -30 c 2,17,-1
 656 -30 l 2,18,19
 644 -30 644 -30 635 -21 c 128,-1,20
 626 -12 626 -12 626 0 c 2,21,-1
 626 437.283 l 2,22,23
 625.008 457.894 625.008 457.894 623.058 487.126 c 0,24,25
 621.389 515.512 621.389 515.512 616.549 525.882 c 0,26,27
 611.837 537.19 611.837 537.19 603.574 552.798 c 0,28,29
 597.354 564.199 597.354 564.199 586.353 568.583 c 0,30,31
 572.071 572.992 572.071 572.992 553.734 576.659 c 0,32,33
 534.633 581 534.633 581 508 581 c 0,34,35
 460.734 581 460.734 581 431.255 571.463 c 0,36,37
 403.711 562.529 403.711 562.529 387.439 539.601 c 0,38,39
 371.336 517.056 371.336 517.056 365.503 484.561 c 0,40,41
 359 450.185 359 450.185 359 394 c 2,42,-1
 359 0 l 2,43,44
 359 -12 359 -12 350 -21 c 128,-1,45
 341 -30 341 -30 329 -30 c 2,46,-1
 170 -30 l 2,47,48
 158 -30 158 -30 149 -21 c 128,-1,49
 140 -12 140 -12 140 0 c 2,50,-1
 140 988 l 2,51,52
 140 1000 140 1000 149 1009 c 128,-1,53
 158 1018 158 1018 170 1018 c 2,54,-1
 329 1018 l 2,55,56
 341 1018 341 1018 350 1009 c 128,-1,57
 359 1000 359 1000 359 988 c 2,0,-1
EndSplineSet
Validated: 1
EndChar

StartChar: ei
Encoding: 74 105 77
Width: 393
GlyphClass: 2
Flags: W
LayerCount: 2
Fore
SplineSet
154 2 m 2,0,-1
 154 718 l 2,1,2
 154 730 154 730 163 739 c 128,-1,3
 172 748 172 748 184 748 c 2,4,-1
 344 748 l 2,5,6
 356 748 356 748 365 739 c 128,-1,7
 374 730 374 730 374 718 c 2,8,-1
 374 2 l 2,9,10
 374 -10 374 -10 365 -19 c 128,-1,11
 356 -28 356 -28 344 -28 c 2,12,-1
 184 -28 l 2,13,14
 172 -28 172 -28 163 -19 c 128,-1,15
 154 -10 154 -10 154 2 c 2,0,-1
140 922 m 0,16,17
 140 985.411 140 985.411 166.506 1012.94 c 0,18,19
 193.154 1040 193.154 1040 263 1040 c 0,20,21
 334.426 1040 334.426 1040 361.5 1012.93 c 1,22,23
 388 984.954 388 984.954 388 923 c 0,24,25
 388 860.574 388 860.574 361.213 833.787 c 128,-1,26
 334.426 807 334.426 807 263 807 c 0,27,28
 227.336 807 227.336 807 204.398 812.058 c 128,-1,29
 181.459 817.115 181.459 817.115 165.484 833.09 c 0,30,31
 140 860.071 140 860.071 140 922 c 0,16,17
EndSplineSet
Validated: 1
EndChar

StartChar: ej
Encoding: 75 106 78
Width: 483
GlyphClass: 2
Flags: W
LayerCount: 2
Fore
SplineSet
464 852 m 2,0,-1
 464 149 l 2,1,2
 464 78.0509 464 78.0509 460.939 30.0801 c 0,3,4
 457.777 -18.3806 457.777 -18.3806 448.278 -59.5446 c 0,5,6
 439.157 -101.728 439.157 -101.728 423.259 -126.187 c 0,7,8
 407.776 -150.702 407.776 -150.702 380.106 -168.31 c 0,9,10
 353.029 -185.541 353.029 -185.541 317.864 -191.604 c 0,11,12
 283.329 -197 283.329 -197 235 -197 c 0,13,14
 207.249 -197 207.249 -197 186.502 -195.963 c 0,15,16
 185.757 -195.925 185.757 -195.925 185.015 -195.851 c 0,17,18
 174.646 -194.814 174.646 -194.814 166.279 -193.768 c 0,19,20
 154.949 -192.352 154.949 -192.352 147.474 -183.33 c 128,-1,21
 140 -174.308 140 -174.308 140 -164 c 2,22,-1
 140 -39 l 2,23,24
 140 -25.4428 140 -25.4428 150.576 -16.7042 c 128,-1,25
 161.152 -7.9656 161.152 -7.9656 172.985 -9.14888 c 0,26,27
 181.496 -10 181.496 -10 187 -10 c 0,28,29
 216.819 -10 216.819 -10 230.74 6.94643 c 0,30,31
 245 24.6021 245 24.6021 245 79 c 2,32,-1
 245 852 l 2,33,34
 245 864 245 864 254 873 c 128,-1,35
 263 882 263 882 275 882 c 2,36,-1
 434 882 l 2,37,38
 446 882 446 882 455 873 c 128,-1,39
 464 864 464 864 464 852 c 2,0,-1
230 1057 m 0,40,41
 230 1112 230 1112 263.5 1143 c 128,-1,42
 297 1174 297 1174 354 1174 c 128,-1,43
 411 1174 411 1174 444.5 1143 c 128,-1,44
 478 1112 478 1112 478 1057 c 0,45,46
 478 1003 478 1003 444.5 972 c 128,-1,47
 411 941 411 941 354 941 c 128,-1,48
 297 941 297 941 263.5 972 c 128,-1,49
 230 1003 230 1003 230 1057 c 0,40,41
EndSplineSet
Validated: 1
EndChar

StartChar: ek
Encoding: 76 107 79
Width: 849
GlyphClass: 2
Flags: W
LayerCount: 2
Fore
SplineSet
140 -4 m 2,0,-1
 140 984 l 2,1,2
 140 996 140 996 149 1005 c 128,-1,3
 158 1014 158 1014 170 1014 c 2,4,-1
 329 1014 l 2,5,6
 341 1014 341 1014 350 1005 c 128,-1,7
 359 996 359 996 359 984 c 2,8,-1
 359 478.833 l 1,9,-1
 580.428 731.761 l 2,10,11
 589.392 742 589.392 742 603 742 c 2,12,-1
 794 742 l 2,13,14
 806 742 806 742 815 733 c 128,-1,15
 824 724 824 724 824 712 c 0,16,17
 824 700.291 824 700.291 816.068 691.677 c 2,18,-1
 587.679 443.684 l 1,19,-1
 840.89 11.1564 l 2,20,21
 847.081 0.57995 847.081 0.57995 843.907 -11.559 c 128,-1,22
 840.733 -23.698 840.733 -23.698 830.156 -29.8898 c 0,23,24
 823.136 -34 823.136 -34 815 -34 c 2,25,-1
 631 -34 l 2,26,27
 613.413 -34 613.413 -34 604.822 -18.6531 c 2,28,-1
 433.023 288.269 l 1,29,-1
 359 211.664 l 1,30,-1
 359 -4 l 2,31,32
 359 -16 359 -16 350 -25 c 128,-1,33
 341 -34 341 -34 329 -34 c 2,34,-1
 170 -34 l 2,35,36
 158 -34 158 -34 149 -25 c 128,-1,37
 140 -16 140 -16 140 -4 c 2,0,-1
EndSplineSet
Validated: 1
EndChar

StartChar: el
Encoding: 77 108 80
Width: 364
GlyphClass: 2
Flags: W
LayerCount: 2
Fore
SplineSet
140 -2 m 2,0,-1
 140 986 l 2,1,2
 140 998 140 998 149 1007 c 128,-1,3
 158 1016 158 1016 170 1016 c 2,4,-1
 329 1016 l 2,5,6
 341 1016 341 1016 350 1007 c 128,-1,7
 359 998 359 998 359 986 c 2,8,-1
 359 -2 l 2,9,10
 359 -14 359 -14 350 -23 c 128,-1,11
 341 -32 341 -32 329 -32 c 2,12,-1
 170 -32 l 2,13,14
 158 -32 158 -32 149 -23 c 128,-1,15
 140 -14 140 -14 140 -2 c 2,0,-1
EndSplineSet
Validated: 1
EndChar

StartChar: em
Encoding: 78 109 81
Width: 1259
GlyphClass: 2
Flags: W
LayerCount: 2
Fore
SplineSet
170 745 m 2,0,-1
 319 745 l 2,1,2
 331 745 331 745 340 736 c 128,-1,3
 349 727 349 727 349 715 c 2,4,-1
 349 682.952 l 1,5,6
 381.818 720.604 381.818 720.604 425.179 739.574 c 0,7,8
 480.96 763 480.96 763 566 763 c 0,9,10
 653.542 763 653.542 763 701.185 737.435 c 0,11,12
 744.086 714.414 744.086 714.414 774.446 665.862 c 1,13,14
 786.182 681.486 786.182 681.486 797.395 692.821 c 0,15,16
 813.025 709.406 813.025 709.406 839.487 727.047 c 0,17,18
 867.094 745.052 867.094 745.052 907.491 754.286 c 0,19,20
 947.8 763 947.8 763 1000 763 c 0,21,22
 1073.37 763 1073.37 763 1124.42 744.131 c 0,23,24
 1175.8 725.015 1175.8 725.015 1204.3 686.59 c 1,25,26
 1231.85 647.569 1231.85 647.569 1243.2 599.879 c 0,27,28
 1254 553.452 1254 553.452 1254 488 c 2,29,-1
 1254 -1 l 2,30,31
 1254 -13 1254 -13 1245 -22 c 128,-1,32
 1236 -31 1236 -31 1224 -31 c 2,33,-1
 1065 -31 l 2,34,35
 1053 -31 1053 -31 1044 -22 c 128,-1,36
 1035 -13 1035 -13 1035 -1 c 2,37,-1
 1035 428 l 2,38,39
 1035 517.821 1035 517.821 1013 550.421 c 0,40,41
 993.736 580 993.736 580 931 580 c 0,42,43
 905.846 580 905.846 580 886.573 574.971 c 0,44,45
 867.849 570.087 867.849 570.087 854.095 563.039 c 1,46,47
 841.991 555.017 841.991 555.017 834.008 541.047 c 0,48,49
 824.615 524.823 824.615 524.823 819.607 508.966 c 0,50,51
 819.395 508.293 819.395 508.293 819.15 507.629 c 0,52,53
 813.503 492.3 813.503 492.3 810.86 464.103 c 0,54,55
 807.994 435.441 807.994 435.441 807 409.441 c 2,56,-1
 807 -1 l 2,57,58
 807 -13 807 -13 798 -22 c 128,-1,59
 789 -31 789 -31 777 -31 c 2,60,-1
 617 -31 l 2,61,62
 605 -31 605 -31 596 -22 c 128,-1,63
 587 -13 587 -13 587 -1 c 2,64,-1
 587 455 l 2,65,66
 587 465.207 587 465.207 586.041 483.423 c 0,67,68
 586 484.211 586 484.211 586 485 c 0,69,70
 586 501.769 586 501.769 584.768 508.235 c 0,71,72
 582.513 517.561 582.513 517.561 580.472 531.571 c 1,73,74
 577.876 542.295 577.876 542.295 575.447 545.418 c 0,75,76
 571.278 550.63 571.278 550.63 564.791 559.278 c 0,77,78
 560.173 565.744 560.173 565.744 555.137 567.665 c 0,79,80
 546.036 570.714 546.036 570.714 535.512 574.529 c 0,81,82
 525.703 577.467 525.703 577.467 512.176 579.124 c 0,83,84
 499.417 579.999 499.417 579.999 483 580.001 c 0,85,86
 452.226 580 452.226 580 431.919 575.586 c 0,87,88
 412.614 572.011 412.614 572.011 399.613 561.295 c 0,89,90
 385.837 548.876 385.837 548.876 378.548 535.028 c 0,91,92
 370.936 520.566 370.936 520.566 366.661 491.504 c 0,93,94
 361.93 461.226 361.93 461.226 360.972 429.609 c 1,95,96
 359 398.063 359 398.063 359 346 c 2,97,-1
 359 -1 l 2,98,99
 359 -13 359 -13 350 -22 c 128,-1,100
 341 -31 341 -31 329 -31 c 2,101,-1
 170 -31 l 2,102,103
 158 -31 158 -31 149 -22 c 128,-1,104
 140 -13 140 -13 140 -1 c 2,105,-1
 140 715 l 2,106,107
 140 727 140 727 149 736 c 128,-1,108
 158 745 158 745 170 745 c 2,0,-1
EndSplineSet
Validated: 1
EndChar

StartChar: en
Encoding: 79 110 82
Width: 850
GlyphClass: 2
Flags: W
LayerCount: 2
Fore
SplineSet
626 0 m 2,0,-1
 626 452 l 2,1,2
 626 463.424 626 463.424 624.165 480.859 c 0,3,4
 624.075 481.716 624.075 481.716 624.034 482.573 c 0,5,6
 623.176 500.605 623.176 500.605 620.896 509.724 c 0,7,8
 620.722 510.417 620.722 510.417 620.583 511.117 c 0,9,10
 619.011 518.973 619.011 518.973 614.56 531.435 c 0,11,12
 610.847 543.193 610.847 543.193 606.548 548.91 c 1,13,14
 599.154 555.407 599.154 555.407 590.309 563.361 c 0,15,16
 582.831 569.514 582.831 569.514 573.129 571.797 c 0,17,18
 572.44 571.96 572.44 571.96 571.758 572.154 c 0,19,20
 559.395 575.687 559.395 575.687 543.068 578.408 c 0,21,22
 527.52 581 527.52 581 507 581 c 0,23,24
 466.507 581 466.507 581 439.129 571.758 c 0,25,26
 418.698 563.972 418.698 563.972 404.418 552.909 c 0,27,28
 400.615 549.963 400.615 549.963 396.968 546.541 c 0,29,30
 381.916 531.185 381.916 531.185 373.958 500.151 c 0,31,32
 364.671 467.646 364.671 467.646 361.904 432.605 c 0,33,34
 359 396.783 359 396.783 359 338 c 2,35,-1
 359 0 l 2,36,37
 359 -12 359 -12 350 -21 c 128,-1,38
 341 -30 341 -30 329 -30 c 2,39,-1
 170 -30 l 2,40,41
 158 -30 158 -30 149 -21 c 128,-1,42
 140 -12 140 -12 140 0 c 2,43,-1
 140 715 l 2,44,45
 140 727 140 727 149 736 c 128,-1,46
 158 745 158 745 170 745 c 2,47,-1
 319 745 l 2,48,49
 331 745 331 745 340 736 c 128,-1,50
 349 727 349 727 349 715 c 2,51,-1
 349 666.311 l 1,52,53
 388.186 711.203 388.186 711.203 433.768 734.672 c 0,54,55
 490.728 764 490.728 764 592 764 c 0,56,57
 665.975 764 665.975 764 714.791 747.357 c 0,58,59
 763.448 730.329 763.448 730.329 794.287 689.621 c 1,60,61
 823.262 647.897 823.262 647.897 834.489 589.515 c 0,62,63
 845 531.707 845 531.707 845 442 c 2,64,-1
 845 0 l 2,65,66
 845 -12 845 -12 836 -21 c 128,-1,67
 827 -30 827 -30 815 -30 c 2,68,-1
 656 -30 l 2,69,70
 644 -30 644 -30 635 -21 c 128,-1,71
 626 -12 626 -12 626 0 c 2,0,-1
EndSplineSet
Validated: 1
EndChar

StartChar: eo
Encoding: 80 111 83
Width: 941
GlyphClass: 2
Flags: W
LayerCount: 2
Fore
SplineSet
936 370 m 0,0,1
 936 363.441 936 363.441 935.896 356.98 c 0,2,3
 932.736 160.879 932.736 160.879 830.502 60.2549 c 128,-1,4
 728.269 -40.3688 728.269 -40.3688 535.716 -37.0004 c 1,5,6
 341.441 -36.7217 341.441 -36.7217 240.721 67.2929 c 128,-1,7
 140 171.307 140 171.307 140 370 c 0,8,9
 140 569 140 569 241.5 673 c 128,-1,10
 343 777 343 777 537 777 c 0,11,12
 732 777 732 777 834 673 c 128,-1,13
 936 569 936 569 936 370 c 0,0,1
711 370 m 128,-1,15
 711 488 711 488 668.5 540.5 c 128,-1,16
 626 593 626 593 537 593 c 0,17,18
 449 593 449 593 407 540.5 c 128,-1,19
 365 488 365 488 365 369.5 c 128,-1,20
 365 251 365 251 407 198.5 c 128,-1,21
 449 146 449 146 538 146 c 128,-1,22
 627 146 627 146 669 199 c 128,-1,14
 711 252 711 252 711 370 c 128,-1,15
EndSplineSet
Validated: 33
EndChar

StartChar: ep
Encoding: 81 112 84
Width: 899
GlyphClass: 2
Flags: W
LayerCount: 2
Fore
SplineSet
170 764 m 2,0,-1
 319 764 l 2,1,2
 331 764 331 764 340 755 c 128,-1,3
 349 746 349 746 349 734 c 2,4,-1
 349 701.115 l 1,5,6
 383.727 741.436 383.727 741.436 428.624 759.76 c 0,7,8
 485.067 783 485.067 783 570 783 c 0,9,10
 651.956 783 651.956 783 709.736 763.376 c 0,11,12
 769.087 742.834 769.087 742.834 811.759 695.613 c 128,-1,13
 854.323 648.512 854.323 648.512 874.12 568.213 c 0,14,15
 894 488.698 894 488.698 894 373 c 0,16,17
 894 271.786 894 271.786 878.297 199.543 c 0,18,19
 861.964 126.578 861.964 126.578 824.426 73.5825 c 0,20,21
 786.274 20.3989 786.274 20.3989 723.185 -4.8371 c 0,22,23
 660.823 -30 660.823 -30 570 -30 c 0,24,25
 426.67 -30 426.67 -30 359 36.2268 c 1,26,-1
 359 -272 l 2,27,28
 359 -284 359 -284 350 -293 c 128,-1,29
 341 -302 341 -302 329 -302 c 2,30,-1
 170 -302 l 2,31,32
 158 -302 158 -302 149 -293 c 128,-1,33
 140 -284 140 -284 140 -272 c 2,34,-1
 140 734 l 2,35,36
 140 746 140 746 149 755 c 128,-1,37
 158 764 158 764 170 764 c 2,0,-1
352 380 m 0,38,39
 352 254.588 352 254.588 388.517 203.289 c 0,40,41
 423.641 153 423.641 153 516 153 c 0,42,43
 605.798 153 605.798 153 636.875 200.394 c 0,44,45
 669 249.881 669 249.881 669 373 c 0,46,47
 669 501.27 669 501.27 635.257 552.034 c 1,48,49
 601.901 599 601.901 599 510 599 c 0,50,51
 421.105 599 421.105 599 387.082 553.11 c 0,52,53
 352 506.047 352 506.047 352 380 c 0,38,39
EndSplineSet
Validated: 1
EndChar

StartChar: eq
Encoding: 82 113 85
Width: 900
GlyphClass: 2
Flags: W
LayerCount: 2
Fore
SplineSet
895 733 m 2,0,-1
 895 -274 l 2,1,2
 895 -286 895 -286 886 -295 c 128,-1,3
 877 -304 877 -304 865 -304 c 2,4,-1
 706 -304 l 2,5,6
 694 -304 694 -304 685 -295 c 128,-1,7
 676 -286 676 -286 676 -274 c 2,8,-1
 676 30.2479 l 1,9,10
 648.467 0.866538 648.467 0.866538 608.753 -12.3719 c 0,11,12
 556.156 -31 556.156 -31 475 -31 c 0,13,14
 381.053 -31 381.053 -31 317.218 -9.3608 c 0,15,16
 251.69 13.6313 251.69 13.6313 212.291 64.6183 c 0,17,18
 173.224 114.847 173.224 114.847 156.761 187.287 c 0,19,20
 140 259.567 140 259.567 140 364 c 0,21,22
 140 584.18 140 584.18 215.278 682.365 c 1,23,24
 292.369 781 292.369 781 467 781 c 0,25,26
 554.302 781 554.302 781 610.292 756.367 c 0,27,28
 654.059 736.308 654.059 736.308 688 697.493 c 1,29,-1
 688 733 l 2,30,31
 688 745 688 745 697 754 c 128,-1,32
 706 763 706 763 718 763 c 2,33,-1
 865 763 l 2,34,35
 877 763 877 763 886 754 c 128,-1,36
 895 745 895 745 895 733 c 2,0,-1
680 371 m 0,37,38
 680 443.678 680 443.678 669.749 489.338 c 0,39,40
 659.543 533.566 659.543 533.566 637.87 557.245 c 128,-1,41
 616.312 580.799 616.312 580.799 589.024 589.374 c 0,42,43
 561.422 598 561.422 598 517 598 c 0,44,45
 474.868 598 474.868 598 449.095 589.409 c 0,46,47
 424.016 581.81 424.016 581.81 404.196 558.881 c 0,48,49
 383.791 535.276 383.791 535.276 374.396 490.009 c 0,50,51
 365 443.026 365 443.026 365 369 c 0,52,53
 365 240.848 365 240.848 398.186 195.75 c 0,54,55
 430.216 152 430.216 152 520 152 c 0,56,57
 579.099 152 579.099 152 612.829 169.443 c 1,58,59
 644.802 187.273 644.802 187.273 662.845 233.367 c 1,60,61
 680 282.694 680 282.694 680 371 c 0,37,38
EndSplineSet
Validated: 1
EndChar

StartChar: er
Encoding: 83 114 86
Width: 599
GlyphClass: 2
Flags: W
LayerCount: 2
Fore
SplineSet
329 -26 m 2,0,-1
 170 -26 l 2,1,2
 158 -26 158 -26 149 -17 c 128,-1,3
 140 -8 140 -8 140 4 c 2,4,-1
 140 719 l 2,5,6
 140 731 140 731 149 740 c 128,-1,7
 158 749 158 749 170 749 c 2,8,-1
 318 749 l 2,9,10
 330 749 330 749 339 740 c 128,-1,11
 348 731 348 731 348 719 c 2,12,-1
 348 678.711 l 1,13,14
 376.904 718.811 376.904 718.811 411.008 738.486 c 0,15,16
 456.969 765 456.969 765 533 765 c 0,17,18
 548.027 765 548.027 765 561.224 764 c 1,19,-1
 564 764 l 2,20,21
 576 764 576 764 585 755 c 128,-1,22
 594 746 594 746 594 734 c 2,23,-1
 594 583 l 2,24,25
 594 570.106 594 570.106 584.281 561.236 c 128,-1,26
 574.561 552.367 574.561 552.367 562.336 553.046 c 0,27,28
 545.172 554 545.172 554 521 554 c 0,29,30
 489.55 554 489.55 554 464.892 546.348 c 0,31,32
 440.928 538.911 440.928 538.911 423.814 526.856 c 0,33,34
 407.852 514.507 407.852 514.507 395.954 494.947 c 0,35,36
 383.52 472.567 383.52 472.567 376.517 450.684 c 0,37,38
 369.466 429.53 369.466 429.53 365.805 396.588 c 128,-1,39
 361.948 363.797 361.948 363.797 359.968 333.535 c 0,40,41
 359 303.939 359 303.939 359 263 c 2,42,-1
 359 4 l 2,43,44
 359 -8 359 -8 350 -17 c 128,-1,45
 341 -26 341 -26 329 -26 c 2,0,-1
EndSplineSet
Validated: 1
EndChar

StartChar: es
Encoding: 84 115 87
Width: 862
GlyphClass: 2
Flags: W
LayerCount: 2
Fore
SplineSet
170 240 m 2,0,-1
 330 240 l 2,1,2
 340.9 240 340.9 240 349.315 232.592 c 128,-1,3
 357.731 225.184 357.731 225.184 359.516 215.367 c 0,4,5
 367.098 173.666 367.098 173.666 393.64 157.601 c 0,6,7
 499.055 92.5949 499.055 92.5949 610.959 152.512 c 0,8,9
 637 166.153 637 166.153 637 200 c 0,10,11
 637 227.105 637 227.105 622.314 240.363 c 0,12,13
 605.376 254.694 605.376 254.694 555.72 267.895 c 1,14,-1
 346.87 317.859 l 2,15,16
 254.469 340.958 254.469 340.958 208.52 388.057 c 0,17,18
 161 436.795 161 436.795 161 536 c 0,19,20
 161 679.307 161 679.307 247.309 723.694 c 0,21,22
 468.358 836.858 468.358 836.858 729.175 734.842 c 0,23,24
 773.557 716.568 773.557 716.568 804.649 656.778 c 0,25,26
 825.144 616.926 825.144 616.926 831.786 561.574 c 0,27,28
 833.405 548.088 833.405 548.088 823.944 538.044 c 128,-1,29
 814.483 528 814.483 528 802 528 c 2,30,-1
 641 528 l 2,31,32
 630.497 528 630.497 528 622.175 534.826 c 128,-1,33
 613.853 541.653 613.853 541.653 611.685 551.627 c 0,34,35
 604.171 586.196 604.171 586.196 586.747 598.457 c 0,36,37
 501.706 658.235 501.706 658.235 403.384 599.245 c 0,38,39
 381 585.936 381 585.936 381 557 c 0,40,41
 381 534.563 381 534.563 395.715 521.613 c 0,42,43
 412.259 507.325 412.259 507.325 456.158 496.135 c 2,44,-1
 641.988 452.175 l 2,45,46
 752.387 425.38 752.387 425.38 803.669 375.748 c 0,47,48
 857 325.331 857 325.331 857 229 c 0,49,50
 857 78.561 857 78.561 759.528 29.2231 c 0,51,52
 508.306 -97.4403 508.306 -97.4403 253.654 25.1294 c 1,53,54
 204.475 50.3188 204.475 50.3188 170.979 108.069 c 0,55,56
 146.932 150.437 146.932 150.437 140.214 206.426 c 0,57,58
 138.595 219.912 138.595 219.912 148.056 229.956 c 128,-1,59
 157.517 240 157.517 240 170 240 c 2,0,-1
EndSplineSet
Validated: 33
EndChar

StartChar: et
Encoding: 85 116 88
Width: 592
GlyphClass: 2
Flags: W
LayerCount: 2
Fore
SplineSet
587 723 m 2,0,-1
 587 602 l 2,1,2
 587 590 587 590 578 581 c 128,-1,3
 569 572 569 572 557 572 c 2,4,-1
 458 572 l 1,5,-1
 458 228 l 2,6,7
 458 219.997 458 219.997 458.934 205.996 c 0,8,9
 459 204.999 459 204.999 459 204 c 0,10,11
 459 193.243 459 193.243 459.867 189.166 c 0,12,13
 460.423 187.17 460.423 187.17 460.698 185.243 c 0,14,15
 461.58 179.069 461.58 179.069 463.417 169.883 c 0,16,17
 464.535 164.298 464.535 164.298 465.938 161.419 c 0,18,19
 469.687 157.242 469.687 157.242 473.452 151.864 c 0,20,21
 476.211 149.232 476.211 149.232 479.229 147.933 c 0,22,23
 484.656 146.76 484.656 146.76 491.276 145.104 c 0,24,25
 491.953 144.935 491.953 144.935 492.62 144.735 c 0,26,27
 498.947 142.837 498.947 142.837 507.315 142 c 2,28,-1
 528 142 l 2,29,30
 528.89 142 528.89 142 554.784 143.918 c 0,31,32
 567.675 144.873 567.675 144.873 577.337 135.834 c 128,-1,33
 587 126.795 587 126.795 587 114 c 2,34,-1
 587 4 l 2,35,36
 587 -7.12187 587 -7.12187 579.508 -15.6802 c 128,-1,37
 572.016 -24.2384 572.016 -24.2384 561.031 -25.728 c 0,38,39
 500.026 -34 500.026 -34 435 -34 c 0,40,41
 402.964 -34 402.964 -34 379.112 -30.7475 c 0,42,43
 353.874 -27.5928 353.874 -27.5928 334.603 -23.3102 c 0,44,45
 312.964 -18.6735 312.964 -18.6735 296.847 -3.2983 c 0,46,47
 284.091 8.50834 284.091 8.50834 275.259 15.5739 c 0,48,49
 273.962 16.6118 273.962 16.6118 272.787 17.7868 c 0,50,51
 262.065 28.5089 262.065 28.5089 255.887 53.729 c 0,52,53
 250.076 74.9928 250.076 74.9928 246.327 87.1774 c 0,54,55
 246.091 87.9448 246.091 87.9448 245.896 88.7239 c 0,56,57
 242.196 103.523 242.196 103.523 241.028 137.628 c 0,58,59
 239 171.481 239 171.481 239 192 c 2,60,-1
 239 572 l 1,61,-1
 170 572 l 2,62,63
 158 572 158 572 149 581 c 128,-1,64
 140 590 140 590 140 602 c 2,65,-1
 140 723 l 2,66,67
 140 735 140 735 149 744 c 128,-1,68
 158 753 158 753 170 753 c 2,69,-1
 239 753 l 1,70,-1
 239 909 l 2,71,72
 239 921 239 921 248 930 c 128,-1,73
 257 939 257 939 269 939 c 2,74,-1
 428 939 l 2,75,76
 440 939 440 939 449 930 c 128,-1,77
 458 921 458 921 458 909 c 2,78,-1
 458 753 l 1,79,-1
 557 753 l 2,80,81
 569 753 569 753 578 744 c 128,-1,82
 587 735 587 735 587 723 c 2,0,-1
EndSplineSet
Validated: 1
EndChar

StartChar: eu
Encoding: 86 117 89
Width: 847
GlyphClass: 2
Flags: W
LayerCount: 2
Fore
SplineSet
635 0 m 2,0,-1
 635 29.7699 l 1,1,2
 601.233 -9.9935 601.233 -9.9935 553.029 -27.2742 c 0,3,4
 491.11 -49 491.11 -49 411 -49 c 0,5,6
 314.294 -49 314.294 -49 257.253 -22.1571 c 0,7,8
 198.258 5.53424 198.258 5.53424 168.617 70.7445 c 0,9,10
 140 135.683 140 135.683 140 245 c 2,11,-1
 140 716 l 2,12,13
 140 728 140 728 149 737 c 128,-1,14
 158 746 158 746 170 746 c 2,15,-1
 329 746 l 2,16,17
 341 746 341 746 350 737 c 128,-1,18
 359 728 359 728 359 716 c 2,19,-1
 359 258 l 2,20,21
 359 186.298 359 186.298 384.367 160.558 c 128,-1,22
 409.555 135 409.555 135 481 135 c 0,23,24
 559.154 135 559.154 135 591.276 168.69 c 0,25,26
 623 202.001 623 202.001 623 300 c 2,27,-1
 623 716 l 2,28,29
 623 728 623 728 632 737 c 128,-1,30
 641 746 641 746 653 746 c 2,31,-1
 812 746 l 2,32,33
 824 746 824 746 833 737 c 128,-1,34
 842 728 842 728 842 716 c 2,35,-1
 842 0 l 2,36,37
 842 -12 842 -12 833 -21 c 128,-1,38
 824 -30 824 -30 812 -30 c 2,39,-1
 665 -30 l 2,40,41
 653 -30 653 -30 644 -21 c 128,-1,42
 635 -12 635 -12 635 0 c 2,0,-1
EndSplineSet
Validated: 1
EndChar

StartChar: ev
Encoding: 87 118 90
Width: 916
GlyphClass: 2
Flags: W
LayerCount: 2
Fore
SplineSet
410.75 -10.095 m 0,0,1
 282.014 350.182 282.014 350.182 142.092 704.994 c 0,2,3
 137.596 716.395 137.596 716.395 142.594 727.903 c 128,-1,4
 147.593 739.412 147.593 739.412 158.994 743.908 c 0,5,6
 164.298 746 164.298 746 170 746 c 2,7,-1
 345 746 l 2,8,9
 354.824 746 354.824 746 362.875 739.888 c 128,-1,10
 370.926 733.777 370.926 733.777 373.68 724.801 c 0,11,12
 454.299 462.09 454.299 462.09 528.075 223.815 c 1,13,14
 613.728 463.916 613.728 463.916 685.069 723.938 c 0,15,16
 687.763 733.757 687.763 733.757 696.376 739.879 c 128,-1,17
 704.99 746 704.99 746 714 746 c 2,18,-1
 881 746 l 2,19,20
 893 746 893 746 902 737 c 128,-1,21
 911 728 911 728 911 716 c 0,22,23
 911 710.817 911 710.817 909.261 705.935 c 0,24,25
 783.916 354 783.916 354 639.907 -11.0098 c 0,26,27
 632.414 -30 632.414 -30 612 -30 c 2,28,-1
 439 -30 l 2,29,30
 429.483 -30 429.483 -30 421.54 -24.0314 c 128,-1,31
 413.597 -18.0629 413.597 -18.0629 410.75 -10.095 c 0,0,1
EndSplineSet
Validated: 1
EndChar

StartChar: ew
Encoding: 88 119 91
Width: 1251
GlyphClass: 2
Flags: W
LayerCount: 2
Fore
SplineSet
567 -30 m 2,0,-1
 381 -30 l 2,1,2
 371.075 -30 371.075 -30 362.982 -23.8433 c 128,-1,3
 354.89 -17.6865 354.89 -17.6865 352.185 -8.34759 c 0,4,5
 248.221 350.519 248.221 350.519 141.263 707.387 c 0,6,7
 137.744 719.126 137.744 719.126 143.696 730.172 c 128,-1,8
 149.647 741.218 149.647 741.218 161.387 744.737 c 0,9,10
 165.601 746 165.601 746 170 746 c 2,11,-1
 336 746 l 2,12,13
 346.232 746 346.232 746 354.432 739.291 c 128,-1,14
 362.633 732.582 362.633 732.582 364.992 723.71 c 0,15,16
 429.457 481.284 429.457 481.284 476.764 255.645 c 1,17,-1
 580.717 722.52 l 2,18,19
 582.994 732.744 582.994 732.744 591.451 739.372 c 128,-1,20
 599.908 746 599.908 746 610 746 c 2,21,-1
 776 746 l 2,22,23
 786.445 746 786.445 746 794.738 739.198 c 128,-1,24
 803.031 732.396 803.031 732.396 805.249 722.671 c 2,25,-1
 913.222 249.252 l 1,26,27
 977.575 493.894 977.575 493.894 1025.64 722.18 c 0,28,29
 1027.82 732.494 1027.82 732.494 1036.23 739.247 c 128,-1,30
 1044.64 746 1044.64 746 1055 746 c 2,31,-1
 1216 746 l 2,32,33
 1228 746 1228 746 1237 737 c 128,-1,34
 1246 728 1246 728 1246 716 c 0,35,36
 1246 711.639 1246 711.639 1244.76 707.459 c 0,37,38
 1135.94 341.031 1135.94 341.031 1029.71 -8.71637 c 0,39,40
 1026.84 -18.1365 1026.84 -18.1365 1018.65 -24.0683 c 128,-1,41
 1010.45 -30 1010.45 -30 1001 -30 c 2,42,-1
 817 -30 l 2,43,44
 806.553 -30 806.553 -30 798.259 -23.1968 c 128,-1,45
 789.965 -16.3937 789.965 -16.3937 787.748 -6.65939 c 2,46,-1
 690.639 419.897 l 1,47,-1
 596.291 -6.48152 l 2,48,49
 594.027 -16.7156 594.027 -16.7156 585.574 -23.3578 c 128,-1,50
 577.122 -30 577.122 -30 567 -30 c 2,0,-1
EndSplineSet
Validated: 1
EndChar

StartChar: ex
Encoding: 89 120 92
Width: 890
GlyphClass: 2
Flags: W
LayerCount: 2
Fore
SplineSet
145.201 17.8827 m 2,0,-1
 382.53 366.49 l 1,1,-1
 155.232 699.073 l 2,2,3
 148.317 709.191 148.317 709.191 150.636 721.522 c 128,-1,4
 152.954 733.853 152.954 733.853 163.073 740.768 c 0,5,6
 170.728 746 170.728 746 180 746 c 2,7,-1
 375 746 l 2,8,9
 392.028 746 392.028 746 400.758 731.38 c 2,10,-1
 515.07 539.93 l 1,11,-1
 631.352 731.563 l 2,12,13
 640.112 746 640.112 746 657 746 c 2,14,-1
 842 746 l 2,15,16
 854 746 854 746 863 737 c 128,-1,17
 872 728 872 728 872 716 c 0,18,19
 872 706.693 872 706.693 866.732 699.02 c 2,20,-1
 640.486 369.488 l 1,21,-1
 880.768 17.9281 l 2,22,23
 887.683 7.80997 887.683 7.80997 885.365 -4.52106 c 128,-1,24
 883.046 -16.8521 883.046 -16.8521 872.928 -23.7677 c 0,25,26
 865.273 -29 865.273 -29 856 -29 c 2,27,-1
 660 -29 l 2,28,29
 643.146 -29 643.146 -29 634.379 -14.6058 c 2,30,-1
 509.032 191.186 l 1,31,-1
 384.673 -14.5206 l 2,32,33
 375.92 -29 375.92 -29 359 -29 c 2,34,-1
 170 -29 l 2,35,36
 158 -29 158 -29 149 -20 c 128,-1,37
 140 -11 140 -11 140 1 c 0,38,39
 140 10.2426 140 10.2426 145.201 17.8827 c 2,0,-1
EndSplineSet
Validated: 1
EndChar

StartChar: ey
Encoding: 90 121 93
Width: 912
GlyphClass: 2
Flags: W
LayerCount: 2
Fore
SplineSet
170 783 m 2,0,-1
 347 783 l 2,1,2
 357.556 783 357.556 783 365.906 776.152 c 128,-1,3
 374.257 769.304 374.257 769.304 376.375 759.093 c 0,4,5
 429.076 505.002 429.076 505.002 529.286 251.541 c 1,6,-1
 681.249 761.566 l 2,7,8
 684.069 771.032 684.069 771.032 692.254 777.016 c 128,-1,9
 700.439 783 700.439 783 710 783 c 2,10,-1
 877 783 l 2,11,12
 889 783 889 783 898 774 c 128,-1,13
 907 765 907 765 907 753 c 0,14,15
 907 747.81 907 747.81 905.257 742.922 c 2,16,-1
 645.252 13.9099 l 2,17,18
 629.995 -28.8167 629.995 -28.8167 621.227 -53.1616 c 0,19,20
 611.962 -78.8948 611.962 -78.8948 598.762 -110.372 c 0,21,22
 586.323 -141.47 586.323 -141.47 577.169 -159.239 c 0,23,24
 568.369 -176.322 568.369 -176.322 556.008 -197.953 c 0,25,26
 542.993 -220.433 542.993 -220.433 531.213 -232.213 c 0,27,28
 520.368 -243.059 520.368 -243.059 504.499 -255.819 c 1,29,30
 487.957 -270.637 487.957 -270.637 470.487 -276.461 c 0,31,32
 455.246 -281.541 455.246 -281.541 436.034 -287.607 c 0,33,34
 435.339 -287.827 435.339 -287.827 434.635 -288.012 c 0,35,36
 413.178 -293.658 413.178 -293.658 390.103 -294.932 c 0,37,38
 366.774 -297 366.774 -297 339 -297 c 0,39,40
 314.394 -297 314.394 -297 288.802 -295.976 c 0,41,42
 287.906 -295.94 287.906 -295.94 287.015 -295.851 c 0,43,44
 267.274 -293.877 267.274 -293.877 255.509 -292.896 c 0,45,46
 243.959 -291.934 243.959 -291.934 235.979 -283.159 c 128,-1,47
 228 -274.385 228 -274.385 228 -263 c 2,48,-1
 228 -147 l 2,49,50
 228 -133.392 228 -133.392 238.607 -124.416 c 128,-1,51
 249.214 -115.44 249.214 -115.44 262.243 -117.302 c 0,52,53
 267.132 -118 267.132 -118 271 -118 c 0,54,55
 304.295 -118 304.295 -118 323.85 -114.444 c 0,56,57
 343.121 -111.233 343.121 -111.233 362.571 -100.697 c 0,58,59
 381.547 -90.1551 381.547 -90.1551 394.513 -66.9087 c 0,60,61
 406.799 -42.8856 406.799 -42.8856 415.657 -5.14207 c 1,62,63
 250.361 359.047 250.361 359.047 141.135 744.828 c 0,64,65
 137.796 756.62 137.796 756.62 143.916 767.573 c 128,-1,66
 150.036 778.527 150.036 778.527 161.828 781.865 c 0,67,68
 165.835 783 165.835 783 170 783 c 2,0,-1
EndSplineSet
Validated: 1
EndChar

StartChar: az
Encoding: 91 122 94
Width: 826
GlyphClass: 2
Flags: W
LayerCount: 2
Fore
SplineSet
140 0 m 2,0,-1
 140 123 l 2,1,2
 140 134.225 140 134.225 147.368 142.693 c 2,3,-1
 514.843 565 l 1,4,-1
 197 565 l 2,5,6
 185 565 185 565 176 574 c 128,-1,7
 167 583 167 583 167 595 c 2,8,-1
 167 715 l 2,9,10
 167 727 167 727 176 736 c 128,-1,11
 185 745 185 745 197 745 c 2,12,-1
 774 745 l 2,13,14
 786 745 786 745 795 736 c 128,-1,15
 804 727 804 727 804 715 c 2,16,-1
 804 588 l 2,17,18
 804 576.661 804 576.661 796.5 568.156 c 2,19,-1
 430.355 153 l 1,20,-1
 791 153 l 2,21,22
 803 153 803 153 812 144 c 128,-1,23
 821 135 821 135 821 123 c 2,24,-1
 821 0 l 2,25,26
 821 -12 821 -12 812 -21 c 128,-1,27
 803 -30 803 -30 791 -30 c 2,28,-1
 170 -30 l 2,29,30
 158 -30 158 -30 149 -21 c 128,-1,31
 140 -12 140 -12 140 0 c 2,0,-1
EndSplineSet
Validated: 1
EndChar

StartChar: acbl
Encoding: 92 123 95
Width: 550
GlyphClass: 2
Flags: W
LayerCount: 2
Fore
SplineSet
145.491 407.301 m 4,0,1
 237.521 537.672 237.521 537.672 248 568.14 c 5,2,-1
 248 922 l 6,3,4
 248 1047 248 1047 306.5 1115 c 132,-1,5
 365 1183 365 1183 476 1183 c 6,6,-1
 515 1183 l 6,7,8
 527 1183 527 1183 536 1174 c 132,-1,9
 545 1165 545 1165 545 1153 c 6,10,-1
 545 984 l 6,11,12
 545 972 545 972 536 963 c 132,-1,13
 527 954 527 954 515 954 c 4,14,15
 473.798 954 473.798 954 457.768 943.47 c 132,-1,16
 441.738 932.939 441.738 932.939 438.898 911.374 c 5,17,18
 438 894.908 438 894.908 438 867 c 6,19,-1
 438 556 l 6,20,21
 438 430.652 438 430.652 367.823 370 c 5,22,23
 438 309.348 438 309.348 438 184 c 6,24,-1
 438 -129 l 6,25,26
 438 -178 438 -178 455.5 -197 c 132,-1,27
 473 -216 473 -216 515 -216 c 4,28,29
 527 -216 527 -216 536 -225 c 132,-1,30
 545 -234 545 -234 545 -246 c 6,31,-1
 545 -414 l 6,32,33
 545 -426 545 -426 536 -435 c 132,-1,34
 527 -444 527 -444 515 -444 c 6,35,-1
 476 -444 l 6,36,37
 365 -444 365 -444 306.5 -376 c 132,-1,38
 248 -308 248 -308 248 -184 c 6,39,-1
 248 166.918 l 5,40,-1
 143.167 376.584 l 6,41,42
 135.14 392.637 135.14 392.637 145.491 407.301 c 4,0,1
EndSplineSet
Validated: 1
EndChar

StartChar: abar
Encoding: 93 124 96
Width: 265
GlyphClass: 2
Flags: W
LayerCount: 2
Fore
SplineSet
230 -132 m 2,0,-1
 170 -132 l 2,1,2
 158 -132 158 -132 149 -123 c 128,-1,3
 140 -114 140 -114 140 -102 c 2,4,-1
 140 1141 l 2,5,6
 140 1153 140 1153 149 1162 c 128,-1,7
 158 1171 158 1171 170 1171 c 2,8,-1
 230 1171 l 2,9,10
 242 1171 242 1171 251 1162 c 128,-1,11
 260 1153 260 1153 260 1141 c 2,12,-1
 260 -102 l 2,13,14
 260 -114 260 -114 251 -123 c 128,-1,15
 242 -132 242 -132 230 -132 c 2,0,-1
EndSplineSet
Validated: 1
EndChar

StartChar: acbr
Encoding: 94 125 97
Width: 547
GlyphClass: 2
Flags: W
LayerCount: 2
Fore
SplineSet
539.676 407.301 m 0,0,1
 447.646 537.672 447.646 537.672 437.167 568.14 c 1,2,-1
 437.167 922 l 2,3,4
 437.167 1047 437.167 1047 378.667 1115 c 128,-1,5
 320.167 1183 320.167 1183 209.167 1183 c 2,6,-1
 170.167 1183 l 2,7,8
 158.167 1183 158.167 1183 149.167 1174 c 128,-1,9
 140.167 1165 140.167 1165 140.167 1153 c 2,10,-1
 140.167 984 l 2,11,12
 140.167 972 140.167 972 149.167 963 c 128,-1,13
 158.167 954 158.167 954 170.167 954 c 0,14,15
 211.369 954 211.369 954 227.399 943.47 c 128,-1,16
 243.429 932.939 243.429 932.939 246.269 911.374 c 1,17,18
 247.167 894.908 247.167 894.908 247.167 867 c 2,19,-1
 247.167 556 l 2,20,21
 247.167 430.651 247.167 430.651 317.344 370 c 1,22,23
 247.167 309.349 247.167 309.349 247.167 184 c 2,24,-1
 247.167 -129 l 2,25,26
 247.167 -178 247.167 -178 229.667 -197 c 128,-1,27
 212.167 -216 212.167 -216 170.167 -216 c 0,28,29
 158.167 -216 158.167 -216 149.167 -225 c 128,-1,30
 140.167 -234 140.167 -234 140.167 -246 c 2,31,-1
 140.167 -414 l 2,32,33
 140.167 -426 140.167 -426 149.167 -435 c 128,-1,34
 158.167 -444 158.167 -444 170.167 -444 c 2,35,-1
 209.167 -444 l 2,36,37
 320.167 -444 320.167 -444 378.667 -376 c 128,-1,38
 437.167 -308 437.167 -308 437.167 -184 c 2,39,-1
 437.167 166.918 l 1,40,-1
 542 376.584 l 2,41,42
 550.026 392.638 550.026 392.638 539.676 407.301 c 0,0,1
EndSplineSet
Validated: 9
EndChar

StartChar: a_h
Encoding: 95 126 98
Width: 1210
GlyphClass: 2
Flags: W
LayerCount: 2
Fore
SplineSet
1164.14 747.15 m 2,0,-1
 1204.14 584.15 l 2,1,2
 1207.12 571.993 1207.12 571.993 1200.58 561.323 c 0,3,4
 1090.23 381.289 1090.23 381.289 929.862 347.141 c 128,-1,5
 769.495 312.992 769.495 312.992 573.317 425.838 c 1,6,7
 455.009 491.048 455.009 491.048 371.25 503.67 c 1,8,9
 311.898 492.528 311.898 492.528 244 402 c 0,10,11
 237 392 237 392 224.5 390.5 c 128,-1,12
 212 389 212 389 202 396 c 0,13,14
 193.44 402.42 193.44 402.42 190.875 412.809 c 2,15,-1
 150.875 574.809 l 2,16,17
 147.763 587.411 147.763 587.411 154.819 598.307 c 0,18,19
 230.104 714.556 230.104 714.556 352.793 725.89 c 128,-1,20
 475.482 737.224 475.482 737.224 626.941 648.015 c 0,21,22
 628.073 647.365 628.073 647.365 629.145 646.618 c 0,23,24
 664.249 622.172 664.249 622.172 697.469 604.488 c 0,25,26
 828.771 533.723 828.771 533.723 929.252 569.753 c 128,-1,27
 1029.73 605.784 1029.73 605.784 1108.51 754.075 c 0,28,29
 1114.26 764.897 1114.26 764.897 1126.25 768.571 c 128,-1,30
 1138.25 772.244 1138.25 772.244 1149.07 766.494 c 0,31,32
 1160.94 760.192 1160.94 760.192 1164.14 747.15 c 2,0,-1
EndSplineSet
Validated: 33
EndChar

StartChar: M_m
Encoding: 96 3330 99
Width: 659
GlyphClass: 2
Flags: W
LayerCount: 2
Fore
SplineSet
396 0.616211 m 0,0,1
 334.493 0.616211 334.493 0.616211 284.661 30.3535 c 128,-1,2
 234.829 60.0928 234.829 60.0928 203.883 109.886 c 128,-1,3
 172.938 159.679 172.938 159.679 156.469 221.586 c 128,-1,4
 140 283.494 140 283.494 140 350.824 c 0,5,6
 140 419.846 140 419.846 156.18 482.456 c 128,-1,7
 172.359 545.065 172.359 545.065 203.116 595.32 c 128,-1,8
 233.873 645.575 233.873 645.575 283.796 675.352 c 128,-1,9
 333.718 705.128 333.718 705.128 396 705.128 c 0,10,11
 524.41 705.128 524.41 705.128 590.023 608.477 c 128,-1,12
 655.635 511.826 655.635 511.826 654.048 346.728 c 0,13,14
 653.266 280.243 653.266 280.243 636.111 219.007 c 128,-1,15
 618.956 157.771 618.956 157.771 587.601 108.593 c 128,-1,16
 556.246 59.415 556.246 59.415 506.511 30.0146 c 128,-1,17
 456.776 0.616211 456.776 0.616211 396 0.616211 c 0,0,1
396 535.144 m 0,18,19
 362.126 535.144 362.126 535.144 338.373 498.017 c 128,-1,20
 314.62 460.891 314.62 460.891 308.58 407.906 c 128,-1,21
 302.54 354.92 302.54 354.92 307.374 301.934 c 128,-1,22
 312.209 248.948 312.209 248.948 335.581 211.822 c 128,-1,23
 358.952 174.696 358.952 174.696 393.952 174.696 c 0,24,25
 426.7 174.696 426.7 174.696 450.413 211.822 c 128,-1,26
 474.126 248.948 474.126 248.948 480.769 301.934 c 128,-1,27
 487.412 354.92 487.412 354.92 483.181 407.906 c 128,-1,28
 478.949 460.891 478.949 460.891 455.538 498.017 c 128,-1,29
 432.127 535.144 432.127 535.144 396 535.144 c 0,18,19
EndSplineSet
Validated: 33
EndChar

StartChar: M_h
Encoding: 97 3331 100
Width: 538
GlyphClass: 2
Flags: W
LayerCount: 2
Fore
SplineSet
336.608 848.488 m 2,0,-1
 342.753 848.488 l 2,1,2
 427.433 848.488 427.433 848.488 480.324 796.41 c 128,-1,3
 533.217 744.331 533.217 744.331 533.217 666.216 c 0,4,5
 533.217 628.786 533.217 628.786 521.721 595.626 c 128,-1,6
 510.226 562.465 510.226 562.465 487.209 535.11 c 128,-1,7
 464.191 507.755 464.191 507.755 424.889 491.754 c 128,-1,8
 385.586 475.752 385.586 475.752 334.561 475.752 c 0,9,10
 232.058 475.752 232.058 475.752 187.053 527.295 c 128,-1,11
 142.049 578.839 142.049 578.839 142.049 666.216 c 1,12,13
 143.532 749.31 143.532 749.31 200.031 798.899 c 128,-1,14
 256.531 848.488 256.531 848.488 336.608 848.488 c 2,0,-1
277.217 653.928 m 0,15,16
 277.217 618.02 277.217 618.02 295.504 597.294 c 128,-1,17
 313.791 576.569 313.791 576.569 340.704 578.152 c 0,18,19
 367.871 579.75 367.871 579.75 383.984 599.007 c 128,-1,20
 400.097 618.263 400.097 618.263 400.097 653.928 c 0,21,22
 400.097 693.491 400.097 693.491 382.312 717.742 c 128,-1,23
 364.529 741.992 364.529 741.992 336.608 741.992 c 0,24,25
 310.301 741.992 310.301 741.992 293.759 717.784 c 128,-1,26
 277.217 693.577 277.217 693.577 277.217 653.928 c 0,15,16
334.561 432.744 m 2,27,-1
 340.704 432.744 l 2,28,29
 425.385 432.744 425.385 432.744 478.276 380.666 c 128,-1,30
 531.169 328.587 531.169 328.587 531.169 250.472 c 0,31,32
 531.169 213.042 531.169 213.042 519.674 179.882 c 128,-1,33
 508.178 146.721 508.178 146.721 485.16 119.366 c 128,-1,34
 462.144 92.0107 462.144 92.0107 422.841 76.0098 c 128,-1,35
 383.537 60.0078 383.537 60.0078 332.513 60.0078 c 0,36,37
 230.01 60.0078 230.01 60.0078 185.005 111.551 c 128,-1,38
 140 163.095 140 163.095 140 250.472 c 1,39,40
 141.484 333.566 141.484 333.566 197.983 383.155 c 128,-1,41
 254.482 432.744 254.482 432.744 334.561 432.744 c 2,27,-1
275.169 238.184 m 0,42,43
 275.169 205.575 275.169 205.575 293.278 187.062 c 128,-1,44
 311.388 168.552 311.388 168.552 338.656 168.552 c 128,-1,45
 365.781 168.552 365.781 168.552 381.914 186.26 c 128,-1,46
 398.049 203.967 398.049 203.967 398.049 238.184 c 0,47,48
 398.049 277.747 398.049 277.747 380.266 301.998 c 128,-1,49
 362.481 326.248 362.481 326.248 334.561 326.248 c 0,50,51
 308.253 326.248 308.253 326.248 291.711 302.04 c 128,-1,52
 275.169 277.833 275.169 277.833 275.169 238.184 c 0,42,43
EndSplineSet
Validated: 1
EndChar

StartChar: ma
Encoding: 98 3333 101
Width: 1881
GlyphClass: 2
Flags: W
LayerCount: 2
Fore
SplineSet
1313.2 2.66406 m 1,0,-1
 1141.17 2.66406 l 1,1,-1
 1141.17 709.224 l 2,2,3
 1141.17 757.693 1141.17 757.693 1104.14 781.559 c 128,-1,4
 1067.1 805.424 1067.1 805.424 1018.29 797.288 c 1,5,6
 1056.24 756.421 1056.24 756.421 1059.73 691.469 c 128,-1,7
 1063.23 626.516 1063.23 626.516 1038.28 568.601 c 128,-1,8
 1013.33 510.685 1013.33 510.685 973.232 481.896 c 1,9,10
 1020.83 446.016 1020.83 446.016 1043.31 383.336 c 128,-1,11
 1065.78 320.657 1065.78 320.657 1062.04 258.184 c 128,-1,12
 1058.29 195.71 1058.29 195.71 1034.67 139.688 c 128,-1,13
 1011.04 83.666 1011.04 83.666 973.232 57.96 c 0,14,15
 888.752 1.12793 888.752 1.12793 796.08 1.12793 c 128,-1,16
 703.408 1.12793 703.408 1.12793 625.072 57.96 c 0,17,18
 553.678 110.953 553.678 110.953 514.486 209.893 c 128,-1,19
 475.293 308.832 475.293 308.832 472.426 415.883 c 128,-1,20
 469.56 522.935 469.56 522.935 494.902 628.773 c 128,-1,21
 520.244 734.611 520.244 734.611 569.776 805.48 c 1,22,23
 425.15 806.331 425.15 806.331 354.909 670.968 c 0,24,25
 296.047 557.533 296.047 557.533 312.643 408.786 c 0,26,27
 327.904 272 327.904 272 396.297 208.223 c 0,28,29
 434.446 172.648 434.446 172.648 481.712 172.648 c 1,30,-1
 481.712 -1.43164 l 1,31,32
 386.683 0.257812 386.683 0.257812 311.539 53.5215 c 128,-1,33
 236.396 106.785 236.396 106.785 197.318 191.202 c 128,-1,34
 158.241 275.619 158.241 275.619 140.379 377.702 c 128,-1,35
 122.517 479.786 122.517 479.786 142.733 582.913 c 128,-1,36
 162.949 686.041 162.949 686.041 205.664 772.674 c 128,-1,37
 248.379 859.306 248.379 859.306 331.186 916.87 c 128,-1,38
 413.991 974.439 413.991 974.439 520.624 981.61 c 1,39,40
 551.614 981.49 551.614 981.49 609.674 983.05 c 128,-1,41
 667.735 984.61 667.735 984.61 736.044 975.39 c 128,-1,42
 804.354 966.17 804.354 966.17 823.729 946.79 c 1,43,44
 847.839 963.9 847.839 963.9 904.473 973.41 c 128,-1,45
 961.104 982.92 961.104 982.92 1024.36 981.71 c 128,-1,46
 1087.62 980.5 1087.62 980.5 1147.48 960.55 c 128,-1,47
 1207.34 940.6 1207.34 940.6 1233.33 903.784 c 1,48,49
 1256.1 943.25 1256.1 943.25 1338.87 965.29 c 128,-1,50
 1421.64 987.34 1421.64 987.34 1511.86 979.561 c 0,51,52
 1588.65 973.29 1588.65 973.29 1652 940.46 c 128,-1,53
 1715.35 907.633 1715.35 907.633 1764.26 847.97 c 128,-1,54
 1813.17 788.307 1813.17 788.307 1841.89 695.087 c 128,-1,55
 1870.61 601.866 1870.61 601.866 1874.35 481.896 c 1,56,57
 1874.26 437.061 1874.26 437.061 1875.72 389.88 c 128,-1,58
 1877.19 342.698 1877.19 342.698 1871.5 295.212 c 128,-1,59
 1865.81 247.725 1865.81 247.725 1857.1 204.019 c 128,-1,60
 1848.39 160.312 1848.39 160.312 1827.95 122.427 c 128,-1,61
 1807.5 84.542 1807.5 84.542 1779.45 56.5615 c 128,-1,62
 1751.39 28.583 1751.39 28.583 1707.02 12.5518 c 128,-1,63
 1662.64 -3.48047 1662.64 -3.48047 1606.07 -3.48047 c 0,64,65
 1492.29 -3.48047 1492.29 -3.48047 1433.04 118.653 c 0,66,67
 1378.59 230.911 1378.59 230.911 1395.19 378.256 c 0,68,69
 1411.74 525.229 1411.74 525.229 1488.85 595.845 c 0,70,71
 1564.82 665.418 1564.82 665.418 1673.65 625.256 c 1,72,73
 1664.94 721.105 1664.94 721.105 1603.53 765.977 c 128,-1,74
 1542.13 810.849 1542.13 810.849 1452.47 807.528 c 0,75,76
 1429.53 806.737 1429.53 806.737 1414.59 805.156 c 128,-1,77
 1399.64 803.575 1399.64 803.575 1378.38 796.974 c 128,-1,78
 1357.11 790.372 1357.11 790.372 1344.53 779.171 c 128,-1,79
 1331.95 767.969 1331.95 767.969 1322.57 746.412 c 128,-1,80
 1313.2 724.855 1313.2 724.855 1313.2 694.888 c 2,81,-1
 1313.2 2.66406 l 1,0,-1
795.057 795.24 m 0,82,83
 757.02 793.238 757.02 793.238 722.742 748.229 c 128,-1,84
 688.464 703.218 688.464 703.218 668.032 631.308 c 128,-1,85
 647.601 559.398 647.601 559.398 647.601 481.896 c 0,86,87
 647.601 400.539 647.601 400.539 659.94 334.113 c 128,-1,88
 672.28 267.686 672.28 267.686 700.796 222.128 c 128,-1,89
 729.312 176.569 729.312 176.569 770.48 172.648 c 0,90,91
 829.507 167.2 829.507 167.2 856.503 221.751 c 0,92,93
 882.401 274.085 882.401 274.085 857.552 328.238 c 0,94,95
 826.656 395.567 826.656 395.567 740.514 395.236 c 0,96,97
 729.229 395.192 729.229 395.192 717.232 393.832 c 1,98,-1
 717.232 574.056 l 1,99,100
 814.84 551.918 814.84 551.918 857.778 620.374 c 0,101,102
 889.779 671.393 889.779 671.393 872.449 731.6 c 0,103,104
 856.629 786.564 856.629 786.564 811.273 794.325 c 0,105,106
 803.433 795.666 803.433 795.666 795.057 795.24 c 0,82,83
1556.91 307.816 m 0,107,108
 1556.91 246.69 1556.91 246.69 1577.06 205.573 c 128,-1,109
 1597.21 164.456 1597.21 164.456 1626.55 164.456 c 0,110,111
 1663.82 164.456 1663.82 164.456 1683.07 200.316 c 128,-1,112
 1702.32 236.176 1702.32 236.176 1702.32 320.104 c 0,113,114
 1702.32 385.113 1702.32 385.113 1696.08 414.863 c 128,-1,115
 1689.85 444.613 1689.85 444.613 1673.74 456.086 c 128,-1,116
 1657.64 467.56 1657.64 467.56 1622.45 467.56 c 0,117,118
 1592.62 467.56 1592.62 467.56 1574.77 416.497 c 128,-1,119
 1556.91 365.434 1556.91 365.434 1556.91 307.816 c 0,107,108
EndSplineSet
Validated: 33
EndChar

StartChar: mA
Encoding: 99 3334 102
Width: 2125
GlyphClass: 2
Flags: W
LayerCount: 2
Fore
SplineSet
1663.91 647.784 m 1,0,1
 1662.94 702.148 1662.94 702.148 1629.89 739.952 c 128,-1,2
 1596.84 777.755 1596.84 777.755 1550.47 793.184 c 128,-1,3
 1504.09 808.614 1504.09 808.614 1450.92 807.528 c 0,4,5
 1427.98 806.737 1427.98 806.737 1413.04 805.156 c 128,-1,6
 1398.09 803.575 1398.09 803.575 1376.83 796.974 c 128,-1,7
 1355.56 790.372 1355.56 790.372 1342.98 779.171 c 128,-1,8
 1330.4 767.969 1330.4 767.969 1321.02 746.412 c 128,-1,9
 1311.65 724.855 1311.65 724.855 1311.65 694.888 c 2,10,-1
 1311.65 2.66406 l 1,11,-1
 1139.62 2.66406 l 1,12,-1
 1139.62 709.224 l 2,13,14
 1139.62 757.693 1139.62 757.693 1102.59 781.559 c 128,-1,15
 1065.56 805.424 1065.56 805.424 1016.74 797.288 c 1,16,17
 1054.69 756.421 1054.69 756.421 1058.19 691.469 c 128,-1,18
 1061.69 626.516 1061.69 626.516 1036.74 568.601 c 128,-1,19
 1011.79 510.685 1011.79 510.685 971.688 481.896 c 1,20,21
 1019.28 446.016 1019.28 446.016 1041.76 383.336 c 128,-1,22
 1064.24 320.657 1064.24 320.657 1060.49 258.184 c 128,-1,23
 1056.75 195.71 1056.75 195.71 1033.12 139.688 c 128,-1,24
 1009.49 83.666 1009.49 83.666 971.688 57.96 c 0,25,26
 887.207 1.12793 887.207 1.12793 794.535 1.12793 c 128,-1,27
 701.863 1.12793 701.863 1.12793 623.527 57.96 c 0,28,29
 552.134 110.953 552.134 110.953 512.941 209.893 c 128,-1,30
 473.748 308.832 473.748 308.832 470.882 415.883 c 128,-1,31
 468.015 522.935 468.015 522.935 493.357 628.773 c 128,-1,32
 518.699 734.611 518.699 734.611 568.231 805.48 c 1,33,34
 429.737 806.335 429.737 806.335 362.263 669.71 c 0,35,36
 305.529 554.834 305.529 554.834 321.669 405.004 c 0,37,38
 336.504 267.284 336.504 267.284 402.45 205.385 c 0,39,40
 437.328 172.648 437.328 172.648 480.168 172.648 c 1,41,-1
 480.168 -7.57617 l 1,42,43
 385.115 -5.88672 385.115 -5.88672 310.212 47.4062 c 128,-1,44
 235.309 100.698 235.309 100.698 196.487 185.352 c 128,-1,45
 157.667 270.005 157.667 270.005 140.126 372.519 c 128,-1,46
 122.586 475.033 122.586 475.033 142.905 579.069 c 128,-1,47
 163.225 683.105 163.225 683.105 205.913 771.001 c 128,-1,48
 248.602 858.896 248.602 858.896 330.928 918.48 c 128,-1,49
 413.253 978.05 413.253 978.05 519.079 987.75 c 1,50,51
 549.993 988.62 549.993 988.62 608.13 990.1 c 128,-1,52
 666.267 991.59 666.267 991.59 734.5 981.99 c 128,-1,53
 802.731 972.39 802.731 972.39 822.184 952.939 c 1,54,55
 846.295 970.05 846.295 970.05 902.928 979.561 c 128,-1,56
 959.56 989.061 959.56 989.061 1022.82 987.85 c 128,-1,57
 1086.07 986.64 1086.07 986.64 1145.93 966.689 c 128,-1,58
 1205.79 946.74 1205.79 946.74 1231.78 909.928 c 1,59,60
 1254.55 949.39 1254.55 949.39 1337.32 971.439 c 128,-1,61
 1420.09 993.48 1420.09 993.48 1510.31 985.7 c 0,62,63
 1623.28 976.29 1623.28 976.29 1717.41 893.479 c 128,-1,64
 1811.53 810.668 1811.53 810.668 1846.18 682.6 c 1,65,66
 1846.18 678.497 1846.18 678.497 1858.47 635.496 c 1,67,68
 1975.37 631.785 1975.37 631.785 2050 504.754 c 0,69,70
 2124.34 378.204 2124.34 378.204 2119.94 203.209 c 0,71,72
 2114.99 6.51562 2114.99 6.51562 2010.83 -122.99 c 0,73,74
 1872.96 -294.399 1872.96 -294.399 1614.85 -266.684 c 0,75,76
 1530.8 -257.659 1530.8 -257.659 1436.58 -226.712 c 1,77,-1
 1436.58 -50.584 l 1,78,79
 1514.89 -90.2979 1514.89 -90.2979 1587.05 -101.247 c 128,-1,80
 1659.21 -112.197 1659.21 -112.197 1714.46 -97.2158 c 128,-1,81
 1769.71 -82.2354 1769.71 -82.2354 1815.34 -48.543 c 128,-1,82
 1860.97 -14.8516 1860.97 -14.8516 1889.95 32.1924 c 128,-1,83
 1918.93 79.2354 1918.93 79.2354 1934.57 135.105 c 128,-1,84
 1950.22 190.974 1950.22 190.974 1949.47 247.616 c 128,-1,85
 1948.72 304.257 1948.72 304.257 1930.92 359.841 c 128,-1,86
 1913.13 415.424 1913.13 415.424 1878.95 459.368 c 1,87,88
 1876.53 413.351 1876.53 413.351 1875.11 364.22 c 128,-1,89
 1873.7 315.088 1873.7 315.088 1872.54 286.911 c 128,-1,90
 1871.39 258.734 1871.39 258.734 1868.71 238.184 c 0,91,92
 1861.26 186.067 1861.26 186.067 1845.86 145.973 c 128,-1,93
 1830.46 105.879 1830.46 105.879 1802.37 71.3867 c 128,-1,94
 1774.27 36.8936 1774.27 36.8936 1727.4 18.1016 c 128,-1,95
 1680.52 -0.69043 1680.52 -0.69043 1616.8 -1.43164 c 0,96,97
 1545.01 -2.41504 1545.01 -2.41504 1493.21 43.2822 c 128,-1,98
 1441.42 88.9805 1441.42 88.9805 1417.49 160.701 c 128,-1,99
 1393.57 232.423 1393.57 232.423 1393.57 320.104 c 0,100,101
 1393.57 428.524 1393.57 428.524 1438.03 516.248 c 128,-1,102
 1482.5 603.973 1482.5 603.973 1563.56 633.448 c 1,103,104
 1609.81 645.621 1609.81 645.621 1663.91 647.784 c 1,0,1
793.512 795.24 m 0,105,106
 755.475 793.238 755.475 793.238 721.197 748.229 c 128,-1,107
 686.92 703.218 686.92 703.218 666.487 631.308 c 128,-1,108
 646.056 559.398 646.056 559.398 646.056 481.896 c 0,109,110
 646.056 400.539 646.056 400.539 658.396 334.113 c 128,-1,111
 670.735 267.686 670.735 267.686 699.252 222.128 c 128,-1,112
 727.768 176.569 727.768 176.569 768.936 172.648 c 0,113,114
 827.963 167.2 827.963 167.2 854.959 221.751 c 0,115,116
 880.856 274.085 880.856 274.085 856.008 328.238 c 0,117,118
 825.111 395.567 825.111 395.567 738.969 395.236 c 0,119,120
 727.683 395.192 727.683 395.192 715.688 393.832 c 1,121,-1
 715.688 574.056 l 1,122,123
 813.296 551.918 813.296 551.918 856.233 620.374 c 0,124,125
 888.234 671.393 888.234 671.393 870.904 731.6 c 0,126,127
 855.085 786.564 855.085 786.564 809.729 794.325 c 0,128,129
 801.888 795.666 801.888 795.666 793.512 795.24 c 0,105,106
1563.56 299.624 m 0,130,131
 1563.56 251.562 1563.56 251.562 1579.67 211.081 c 128,-1,132
 1595.78 170.6 1595.78 170.6 1622.95 170.6 c 1,133,-1
 1627.04 168.552 l 1,134,135
 1646.23 168.552 1646.23 168.552 1659.66 178.662 c 128,-1,136
 1673.09 188.773 1673.09 188.773 1680.73 208.841 c 128,-1,137
 1688.37 228.909 1688.37 228.909 1692.24 250.023 c 128,-1,138
 1696.11 271.136 1696.11 271.136 1698.72 301.672 c 0,139,140
 1701.56 339.529 1701.56 339.529 1702.92 377.867 c 128,-1,141
 1704.27 416.205 1704.27 416.205 1704.09 437.786 c 128,-1,142
 1703.91 459.368 1703.91 459.368 1702.82 459.368 c 0,143,144
 1667.09 469.576 1667.09 469.576 1639.04 458.26 c 128,-1,145
 1610.99 446.944 1610.99 446.944 1595.24 420.732 c 128,-1,146
 1579.49 394.521 1579.49 394.521 1571.52 363.412 c 128,-1,147
 1563.56 332.303 1563.56 332.303 1563.56 299.624 c 0,130,131
EndSplineSet
Validated: 33
EndChar

StartChar: mi
Encoding: 100 3335 103
Width: 1262
GlyphClass: 2
Flags: W
LayerCount: 2
Fore
SplineSet
386.391 604.776 m 0,0,1
 358.621 604.776 358.621 604.776 335.642 579.195 c 128,-1,2
 312.662 553.614 312.662 553.614 312.662 529 c 0,3,4
 312.662 503.39 312.662 503.39 333.435 476.259 c 128,-1,5
 354.206 449.128 354.206 449.128 386.391 449.128 c 2,6,-1
 390.486 449.128 l 2,7,8
 422.897 449.128 422.897 449.128 445.604 472.247 c 128,-1,9
 468.311 495.367 468.311 495.367 468.311 529 c 0,10,11
 468.311 561.306 468.311 561.306 442.814 583.041 c 128,-1,12
 417.317 604.776 417.317 604.776 386.391 604.776 c 0,0,1
384.343 246.376 m 2,13,-1
 791.895 246.376 l 2,14,15
 850.665 246.376 850.665 246.376 891.653 251.695 c 128,-1,16
 932.642 257.014 932.642 257.014 964.946 271.265 c 128,-1,17
 997.25 285.516 997.25 285.516 1016.6 307.067 c 128,-1,18
 1035.95 328.617 1035.95 328.617 1048.53 364.639 c 128,-1,19
 1061.12 400.66 1061.12 400.66 1065.77 445.724 c 128,-1,20
 1070.42 490.788 1070.42 490.788 1070.42 555.624 c 0,21,22
 1070.42 666.606 1070.42 666.606 1032.95 739.115 c 128,-1,23
 995.47 811.624 995.47 811.624 937.303 811.624 c 0,24,25
 894.318 811.624 894.318 811.624 866.658 785.568 c 128,-1,26
 838.998 759.511 838.998 759.511 838.998 713.32 c 2,27,-1
 838.998 332.392 l 1,28,-1
 666.967 332.392 l 1,29,-1
 666.967 707.176 l 2,30,31
 666.967 746.002 666.967 746.002 643.922 770.812 c 128,-1,32
 620.877 795.624 620.877 795.624 588.295 804.648 c 128,-1,33
 555.713 813.672 555.713 813.672 513.366 813.672 c 0,34,35
 361.956 813.672 361.956 813.672 347.479 729.704 c 1,36,37
 382.623 736.546 382.623 736.546 419.191 737.224 c 128,-1,38
 455.76 737.903 455.76 737.903 490.609 724.002 c 128,-1,39
 525.459 710.102 525.459 710.102 552.59 687.974 c 128,-1,40
 579.721 665.846 579.721 665.846 595.99 627.075 c 128,-1,41
 612.262 588.303 612.262 588.303 611.671 539.24 c 0,42,43
 611.671 439.188 611.671 439.188 553.269 375.55 c 128,-1,44
 494.866 311.912 494.866 311.912 396.632 311.912 c 0,45,46
 248.253 311.912 248.253 311.912 179.331 430.455 c 0,47,48
 118.826 534.521 118.826 534.521 144.803 675.298 c 0,49,50
 171.27 818.735 171.27 818.735 271.497 905.296 c 0,51,52
 362.229 983.66 362.229 983.66 486.742 983.66 c 0,53,54
 489.478 983.66 489.478 983.66 512.988 983.8 c 128,-1,55
 536.5 983.939 536.5 983.939 544.818 983.74 c 128,-1,56
 553.137 983.55 553.137 983.55 576.614 982.99 c 128,-1,57
 600.093 982.43 600.093 982.43 612.052 980.811 c 128,-1,58
 624.01 979.189 624.01 979.189 644.893 976.72 c 128,-1,59
 665.774 974.25 665.774 974.25 678.812 969.99 c 128,-1,60
 691.85 965.73 691.85 965.73 707.573 960.13 c 128,-1,61
 723.299 954.54 723.299 954.54 734.854 946.42 c 128,-1,62
 746.406 938.31 746.406 938.31 755.03 928.36 c 1,63,64
 780.561 960.98 780.561 960.98 829.566 972.32 c 128,-1,65
 878.571 983.66 878.571 983.66 955.734 983.66 c 0,66,67
 1018.21 984.25 1018.21 984.25 1069.19 959.96 c 128,-1,68
 1120.18 935.66 1120.18 935.66 1154.24 894.258 c 128,-1,69
 1188.3 852.857 1188.3 852.857 1211.64 796.082 c 128,-1,70
 1234.97 739.307 1234.97 739.307 1245.56 677.301 c 128,-1,71
 1256.15 615.295 1256.15 615.295 1256.79 547.432 c 0,72,73
 1262.02 74.3438 1262.02 74.3438 873.814 74.3438 c 2,74,-1
 386.391 74.3438 l 2,75,76
 351.574 74.3438 351.574 74.3438 331.777 55.7842 c 128,-1,77
 311.979 37.2236 311.979 37.2236 311.979 14.9521 c 128,-1,78
 311.979 -7.32031 311.979 -7.32031 331.777 -25.8809 c 128,-1,79
 351.574 -44.4404 351.574 -44.4404 386.391 -44.4404 c 2,80,-1
 1252.69 -44.4404 l 1,81,-1
 1252.69 -216.472 l 1,82,-1
 384.343 -216.472 l 2,83,84
 331.17 -216.472 331.17 -216.472 286.646 -200.639 c 128,-1,85
 242.122 -184.806 242.122 -184.806 213.372 -158.021 c 128,-1,86
 184.623 -131.235 184.623 -131.235 164.523 -96.5137 c 128,-1,87
 144.425 -61.792 144.425 -61.792 140.1 -23.4199 c 128,-1,88
 135.774 14.9521 135.774 14.9521 140.1 53.3242 c 128,-1,89
 144.425 91.6973 144.425 91.6973 164.523 126.418 c 128,-1,90
 184.623 161.14 184.623 161.14 213.372 187.925 c 128,-1,91
 242.122 214.71 242.122 214.71 286.646 230.543 c 128,-1,92
 331.17 246.376 331.17 246.376 384.343 246.376 c 2,13,-1
EndSplineSet
Validated: 33
EndChar

StartChar: mI
Encoding: 101 3336 104
Width: 2255
GlyphClass: 2
Flags: W
LayerCount: 2
Fore
SplineSet
386.391 604.776 m 0,0,1
 358.621 604.776 358.621 604.776 335.642 579.195 c 128,-1,2
 312.662 553.614 312.662 553.614 312.662 529 c 0,3,4
 312.662 503.39 312.662 503.39 333.435 476.259 c 128,-1,5
 354.206 449.128 354.206 449.128 386.391 449.128 c 2,6,-1
 390.486 449.128 l 2,7,8
 422.897 449.128 422.897 449.128 445.604 472.247 c 128,-1,9
 468.311 495.367 468.311 495.367 468.311 529 c 0,10,11
 468.311 561.306 468.311 561.306 442.814 583.041 c 128,-1,12
 417.317 604.776 417.317 604.776 386.391 604.776 c 0,0,1
384.343 246.376 m 2,13,-1
 791.895 246.376 l 2,14,15
 850.665 246.376 850.665 246.376 891.653 251.695 c 128,-1,16
 932.642 257.014 932.642 257.014 964.946 271.265 c 128,-1,17
 997.25 285.516 997.25 285.516 1016.6 307.067 c 128,-1,18
 1035.95 328.617 1035.95 328.617 1048.53 364.639 c 128,-1,19
 1061.12 400.66 1061.12 400.66 1065.77 445.724 c 128,-1,20
 1070.42 490.788 1070.42 490.788 1070.42 555.624 c 0,21,22
 1070.42 666.606 1070.42 666.606 1032.95 739.115 c 128,-1,23
 995.47 811.624 995.47 811.624 937.303 811.624 c 0,24,25
 894.318 811.624 894.318 811.624 866.658 785.568 c 128,-1,26
 838.998 759.511 838.998 759.511 838.998 713.32 c 2,27,-1
 838.998 332.392 l 1,28,-1
 666.967 332.392 l 1,29,-1
 666.967 707.176 l 2,30,31
 666.967 746.002 666.967 746.002 643.922 770.812 c 128,-1,32
 620.877 795.624 620.877 795.624 588.295 804.648 c 128,-1,33
 555.713 813.672 555.713 813.672 513.366 813.672 c 0,34,35
 361.956 813.672 361.956 813.672 347.479 729.704 c 1,36,37
 382.623 736.546 382.623 736.546 419.191 737.224 c 128,-1,38
 455.76 737.903 455.76 737.903 490.609 724.002 c 128,-1,39
 525.459 710.102 525.459 710.102 552.59 687.974 c 128,-1,40
 579.721 665.846 579.721 665.846 595.99 627.075 c 128,-1,41
 612.262 588.303 612.262 588.303 611.671 539.24 c 0,42,43
 611.671 439.188 611.671 439.188 553.269 375.55 c 128,-1,44
 494.866 311.912 494.866 311.912 396.632 311.912 c 0,45,46
 248.253 311.912 248.253 311.912 179.331 430.455 c 0,47,48
 118.826 534.521 118.826 534.521 144.803 675.298 c 0,49,50
 171.27 818.735 171.27 818.735 271.497 905.296 c 0,51,52
 362.229 983.66 362.229 983.66 486.742 983.66 c 0,53,54
 489.478 983.66 489.478 983.66 512.988 983.8 c 128,-1,55
 536.5 983.939 536.5 983.939 544.818 983.74 c 128,-1,56
 553.137 983.55 553.137 983.55 576.614 982.99 c 128,-1,57
 600.093 982.43 600.093 982.43 612.052 980.811 c 128,-1,58
 624.01 979.189 624.01 979.189 644.893 976.72 c 128,-1,59
 665.774 974.25 665.774 974.25 678.812 969.99 c 128,-1,60
 691.85 965.73 691.85 965.73 707.573 960.13 c 128,-1,61
 723.299 954.54 723.299 954.54 734.854 946.42 c 128,-1,62
 746.406 938.31 746.406 938.31 755.03 928.36 c 1,63,64
 780.561 960.98 780.561 960.98 829.566 972.32 c 128,-1,65
 878.571 983.66 878.571 983.66 955.734 983.66 c 0,66,67
 1018.21 984.25 1018.21 984.25 1069.19 959.96 c 128,-1,68
 1120.18 935.66 1120.18 935.66 1154.24 894.258 c 128,-1,69
 1188.3 852.857 1188.3 852.857 1211.64 796.082 c 128,-1,70
 1234.97 739.307 1234.97 739.307 1245.56 677.301 c 128,-1,71
 1256.15 615.295 1256.15 615.295 1256.79 547.432 c 0,72,73
 1262.02 74.3438 1262.02 74.3438 873.814 74.3438 c 2,74,-1
 386.391 74.3438 l 2,75,76
 351.574 74.3438 351.574 74.3438 331.777 55.7842 c 128,-1,77
 311.979 37.2236 311.979 37.2236 311.979 14.9521 c 128,-1,78
 311.979 -7.32031 311.979 -7.32031 331.777 -25.8809 c 128,-1,79
 351.574 -44.4404 351.574 -44.4404 386.391 -44.4404 c 2,80,-1
 1252.69 -44.4404 l 1,81,-1
 1252.69 -216.472 l 1,82,-1
 384.343 -216.472 l 2,83,84
 331.17 -216.472 331.17 -216.472 286.646 -200.639 c 128,-1,85
 242.122 -184.806 242.122 -184.806 213.372 -158.021 c 128,-1,86
 184.623 -131.235 184.623 -131.235 164.523 -96.5137 c 128,-1,87
 144.425 -61.792 144.425 -61.792 140.1 -23.4199 c 128,-1,88
 135.774 14.9521 135.774 14.9521 140.1 53.3242 c 128,-1,89
 144.425 91.6973 144.425 91.6973 164.523 126.418 c 128,-1,90
 184.623 161.14 184.623 161.14 213.372 187.925 c 128,-1,91
 242.122 214.71 242.122 214.71 286.646 230.543 c 128,-1,92
 331.17 246.376 331.17 246.376 384.343 246.376 c 2,13,-1
1331.76 387.688 m 1,93,-1
 1516.08 387.688 l 1,94,95
 1523.5 325.358 1523.5 325.358 1544.18 281.555 c 128,-1,96
 1564.86 237.753 1564.86 237.753 1596.46 214.268 c 128,-1,97
 1628.06 190.783 1628.06 190.783 1663.61 180.691 c 128,-1,98
 1699.15 170.6 1699.15 170.6 1743.41 170.6 c 0,99,100
 1911.23 170.6 1911.23 170.6 2002.48 319.052 c 0,101,102
 2073.82 435.117 2073.82 435.117 2070.72 584.736 c 0,103,104
 2068.01 715.695 2068.01 715.695 2010.09 775.75 c 0,105,106
 1979.83 807.13 1979.83 807.13 1940.02 807.528 c 0,107,108
 1901.25 807.528 1901.25 807.528 1874.56 784.817 c 128,-1,109
 1847.86 762.105 1847.86 762.105 1847.86 717.416 c 2,110,-1
 1847.86 461.416 l 1,111,-1
 1690.16 461.416 l 1,112,-1
 1690.16 672.36 l 2,113,114
 1690.16 735.354 1690.16 735.354 1666.73 772.779 c 128,-1,115
 1643.29 810.205 1643.29 810.205 1583.67 811.624 c 1,116,117
 1536.3 811.624 1536.3 811.624 1509.81 785.911 c 128,-1,118
 1483.32 760.198 1483.32 760.198 1483.32 709.224 c 0,119,120
 1483.32 673.72 1483.32 673.72 1508.39 652.56 c 128,-1,121
 1533.47 631.4 1533.47 631.4 1583.67 631.4 c 1,122,-1
 1583.67 461.416 l 1,123,124
 1529.9 461.416 1529.9 461.416 1498.07 464.859 c 128,-1,125
 1466.25 468.302 1466.25 468.302 1437.23 479.861 c 128,-1,126
 1408.22 491.421 1408.22 491.421 1389.08 513.243 c 128,-1,127
 1369.95 535.064 1369.95 535.064 1352.24 572.008 c 0,128,129
 1292.68 694.122 1292.68 694.122 1366.58 858.729 c 0,130,131
 1388.77 908.289 1388.77 908.289 1441.24 940.23 c 128,-1,132
 1493.71 972.17 1493.71 972.17 1551.89 979.6 c 128,-1,133
 1610.07 987.02 1610.07 987.02 1667.29 969.92 c 128,-1,134
 1724.51 952.82 1724.51 952.82 1755.7 911.976 c 1,135,136
 1773.15 936.13 1773.15 936.13 1795.37 951.41 c 128,-1,137
 1817.59 966.689 1817.59 966.689 1842.35 972.061 c 128,-1,138
 1867.11 977.439 1867.11 977.439 1881.11 978.64 c 128,-1,139
 1895.12 979.85 1895.12 979.85 1914.95 979.61 c 0,140,141
 1919.59 979.561 1919.59 979.561 1921.59 979.561 c 0,142,143
 2077.17 983.03 2077.17 983.03 2169.26 844.444 c 0,144,145
 2253.72 717.345 2253.72 717.345 2250 532.557 c 0,146,147
 2246.02 335.059 2246.02 335.059 2142.8 190.762 c 0,148,149
 2015.72 13.1025 2015.72 13.1025 1789.69 1.37598 c 0,150,151
 1772.91 0.504883 1772.91 0.504883 1755.7 0.616211 c 0,152,153
 1749.06 0.616211 1749.06 0.616211 1735.25 0.509766 c 0,154,155
 1694.71 0.196289 1694.71 0.196289 1672.24 0.984375 c 128,-1,156
 1649.77 1.77148 1649.77 1.77148 1607.61 8.80273 c 128,-1,157
 1565.45 15.834 1565.45 15.834 1538.75 29.5381 c 128,-1,158
 1512.05 43.2422 1512.05 43.2422 1475.98 71.5078 c 128,-1,159
 1439.91 99.7744 1439.91 99.7744 1415.83 140.101 c 128,-1,160
 1391.75 180.428 1391.75 180.428 1368.63 243.637 c 128,-1,161
 1345.51 306.846 1345.51 306.846 1331.76 387.688 c 1,93,-1
EndSplineSet
Validated: 33
EndChar

StartChar: mu
Encoding: 102 3337 105
Width: 1011
GlyphClass: 2
Flags: W
LayerCount: 2
Fore
SplineSet
355.04 748.136 m 1,0,1
 502.593 801.574 502.593 801.574 599.14 717.991 c 0,2,3
 672.711 654.299 672.711 654.299 682.015 545.795 c 0,4,5
 691.771 432.021 691.771 432.021 623.643 353.982 c 0,6,7
 552.945 273 552.945 273 424.672 273 c 0,8,9
 359.544 273 359.544 273 308.812 290.332 c 128,-1,10
 258.08 307.665 258.08 307.665 226.892 335.589 c 128,-1,11
 195.705 363.512 195.705 363.512 175.578 402.432 c 128,-1,12
 155.45 441.351 155.45 441.351 147.725 480.62 c 128,-1,13
 140 519.889 140 519.889 140 563.816 c 0,14,15
 140 757.794 140 757.794 243.09 867.156 c 128,-1,16
 346.18 976.52 346.18 976.52 539.36 979.561 c 0,17,18
 664.999 981.82 664.999 981.82 756.172 953.65 c 128,-1,19
 847.345 925.49 847.345 925.49 901.524 869.531 c 128,-1,20
 955.703 813.574 955.703 813.574 981.004 738.101 c 128,-1,21
 1006.3 662.629 1006.3 662.629 1006.3 563.816 c 0,22,23
 1006.3 448.11 1006.3 448.11 986.627 358.164 c 128,-1,24
 966.951 268.218 966.951 268.218 926.428 202.685 c 128,-1,25
 885.906 137.151 885.906 137.151 820.291 102.676 c 128,-1,26
 754.677 68.2002 754.677 68.2002 666.336 68.2002 c 2,27,-1
 377.568 68.2002 l 2,28,29
 354.221 68.2002 354.221 68.2002 338.036 55.9648 c 128,-1,30
 321.85 43.7314 321.85 43.7314 317.863 26.2686 c 128,-1,31
 313.875 8.80762 313.875 8.80762 317.26 -8.65332 c 128,-1,32
 320.646 -26.1143 320.646 -26.1143 336.409 -38.3496 c 128,-1,33
 352.172 -50.584 352.172 -50.584 375.52 -50.584 c 2,34,-1
 991.968 -50.584 l 1,35,-1
 991.968 -220.568 l 1,36,-1
 377.568 -220.568 l 2,37,38
 326.376 -220.568 326.376 -220.568 283.512 -204.805 c 128,-1,39
 240.648 -189.042 240.648 -189.042 212.97 -162.376 c 128,-1,40
 185.292 -135.709 185.292 -135.709 165.941 -101.141 c 128,-1,41
 146.591 -66.5732 146.591 -66.5732 142.428 -28.3701 c 128,-1,42
 138.264 9.83203 138.264 9.83203 142.428 48.0352 c 128,-1,43
 146.591 86.2373 146.591 86.2373 165.941 120.805 c 128,-1,44
 185.292 155.373 185.292 155.373 212.97 182.04 c 128,-1,45
 240.648 208.706 240.648 208.706 283.512 224.469 c 128,-1,46
 326.376 240.232 326.376 240.232 377.568 240.232 c 2,47,-1
 664.288 240.232 l 2,48,49
 707.012 240.232 707.012 240.232 739.773 272.357 c 128,-1,50
 772.533 304.482 772.533 304.482 789.636 354.027 c 128,-1,51
 806.738 403.572 806.738 403.572 814.781 453.861 c 128,-1,52
 822.824 504.15 822.824 504.15 821.984 549.48 c 0,53,54
 821.307 588.781 821.307 588.781 815.066 622.941 c 128,-1,55
 808.825 657.102 808.825 657.102 791.497 693.418 c 128,-1,56
 774.169 729.734 774.169 729.734 746.876 755.258 c 128,-1,57
 719.582 780.782 719.582 780.782 673.172 797.227 c 128,-1,58
 626.762 813.672 626.762 813.672 565.984 813.672 c 0,59,60
 401.851 813.672 401.851 813.672 355.04 748.136 c 1,0,1
416.48 617.064 m 128,-1,62
 377.288 617.064 377.288 617.064 349.78 591.609 c 128,-1,63
 322.272 566.155 322.272 566.155 322.272 526.952 c 0,64,65
 322.272 485.801 322.272 485.801 350.021 457.225 c 128,-1,66
 377.769 428.648 377.769 428.648 416.48 428.648 c 128,-1,67
 455.192 428.648 455.192 428.648 482.94 457.225 c 128,-1,68
 510.688 485.801 510.688 485.801 510.688 526.952 c 0,69,70
 510.688 566.154 510.688 566.154 483.181 591.609 c 128,-1,61
 455.673 617.064 455.673 617.064 416.48 617.064 c 128,-1,62
EndSplineSet
Validated: 33
EndChar

StartChar: mU
Encoding: 103 3338 106
Width: 1963
GlyphClass: 2
Flags: W
LayerCount: 2
Fore
SplineSet
1040.28 387.688 m 1,0,-1
 1224.6 387.688 l 1,1,2
 1232.02 325.358 1232.02 325.358 1252.7 281.555 c 128,-1,3
 1273.38 237.753 1273.38 237.753 1304.98 214.268 c 128,-1,4
 1336.58 190.783 1336.58 190.783 1372.13 180.691 c 128,-1,5
 1407.67 170.6 1407.67 170.6 1451.93 170.6 c 0,6,7
 1619.75 170.6 1619.75 170.6 1711 319.052 c 0,8,9
 1782.34 435.117 1782.34 435.117 1779.24 584.736 c 0,10,11
 1776.53 715.695 1776.53 715.695 1718.61 775.75 c 0,12,13
 1688.35 807.13 1688.35 807.13 1648.54 807.528 c 0,14,15
 1609.77 807.528 1609.77 807.528 1583.08 784.817 c 128,-1,16
 1556.38 762.105 1556.38 762.105 1556.38 717.416 c 2,17,-1
 1556.38 461.416 l 1,18,-1
 1398.68 461.416 l 1,19,-1
 1398.68 672.36 l 2,20,21
 1398.68 735.354 1398.68 735.354 1375.25 772.779 c 128,-1,22
 1351.81 810.205 1351.81 810.205 1292.19 811.624 c 1,23,24
 1244.82 811.624 1244.82 811.624 1218.33 785.911 c 128,-1,25
 1191.84 760.198 1191.84 760.198 1191.84 709.224 c 0,26,27
 1191.84 673.72 1191.84 673.72 1216.91 652.56 c 128,-1,28
 1241.99 631.4 1241.99 631.4 1292.19 631.4 c 1,29,-1
 1292.19 461.416 l 1,30,31
 1238.42 461.416 1238.42 461.416 1206.59 464.859 c 128,-1,32
 1174.77 468.302 1174.77 468.302 1145.75 479.861 c 128,-1,33
 1116.74 491.421 1116.74 491.421 1097.6 513.243 c 128,-1,34
 1078.47 535.064 1078.47 535.064 1060.76 572.008 c 0,35,36
 1001.19 694.122 1001.19 694.122 1075.1 858.729 c 0,37,38
 1097.29 908.289 1097.29 908.289 1149.76 940.23 c 128,-1,39
 1202.23 972.17 1202.23 972.17 1260.41 979.6 c 128,-1,40
 1318.59 987.02 1318.59 987.02 1375.81 969.92 c 128,-1,41
 1433.03 952.82 1433.03 952.82 1464.22 911.976 c 1,42,43
 1481.67 936.13 1481.67 936.13 1503.89 951.41 c 128,-1,44
 1526.11 966.689 1526.11 966.689 1550.87 972.061 c 128,-1,45
 1575.63 977.439 1575.63 977.439 1589.63 978.64 c 128,-1,46
 1603.64 979.85 1603.64 979.85 1623.47 979.61 c 0,47,48
 1628.11 979.561 1628.11 979.561 1630.11 979.561 c 0,49,50
 1785.69 983.03 1785.69 983.03 1877.78 844.444 c 0,51,52
 1962.24 717.345 1962.24 717.345 1958.52 532.557 c 0,53,54
 1954.54 335.059 1954.54 335.059 1851.32 190.762 c 0,55,56
 1724.24 13.1025 1724.24 13.1025 1498.21 1.37598 c 0,57,58
 1481.43 0.504883 1481.43 0.504883 1464.22 0.616211 c 0,59,60
 1457.58 0.616211 1457.58 0.616211 1443.77 0.509766 c 0,61,62
 1403.23 0.196289 1403.23 0.196289 1380.76 0.984375 c 128,-1,63
 1358.29 1.77148 1358.29 1.77148 1316.13 8.80273 c 128,-1,64
 1273.97 15.834 1273.97 15.834 1247.27 29.5381 c 128,-1,65
 1220.57 43.2422 1220.57 43.2422 1184.5 71.5078 c 128,-1,66
 1148.43 99.7744 1148.43 99.7744 1124.35 140.101 c 128,-1,67
 1100.27 180.428 1100.27 180.428 1077.15 243.637 c 128,-1,68
 1054.02 306.846 1054.02 306.846 1040.28 387.688 c 1,0,-1
355.04 748.136 m 1,69,70
 502.593 801.574 502.593 801.574 599.14 717.991 c 0,71,72
 672.711 654.299 672.711 654.299 682.015 545.795 c 0,73,74
 691.771 432.021 691.771 432.021 623.643 353.982 c 0,75,76
 552.945 273 552.945 273 424.672 273 c 0,77,78
 359.544 273 359.544 273 308.812 290.332 c 128,-1,79
 258.08 307.665 258.08 307.665 226.892 335.589 c 128,-1,80
 195.705 363.512 195.705 363.512 175.578 402.432 c 128,-1,81
 155.45 441.351 155.45 441.351 147.725 480.62 c 128,-1,82
 140 519.889 140 519.889 140 563.816 c 0,83,84
 140 757.794 140 757.794 243.09 867.156 c 128,-1,85
 346.18 976.52 346.18 976.52 539.36 979.561 c 0,86,87
 664.999 981.82 664.999 981.82 756.172 953.65 c 128,-1,88
 847.345 925.49 847.345 925.49 901.524 869.531 c 128,-1,89
 955.703 813.574 955.703 813.574 981.004 738.101 c 128,-1,90
 1006.3 662.629 1006.3 662.629 1006.3 563.816 c 0,91,92
 1006.3 448.11 1006.3 448.11 986.627 358.164 c 128,-1,93
 966.951 268.218 966.951 268.218 926.428 202.685 c 128,-1,94
 885.906 137.151 885.906 137.151 820.291 102.676 c 128,-1,95
 754.677 68.2002 754.677 68.2002 666.336 68.2002 c 2,96,-1
 377.568 68.2002 l 2,97,98
 354.221 68.2002 354.221 68.2002 338.036 55.9648 c 128,-1,99
 321.85 43.7314 321.85 43.7314 317.863 26.2686 c 128,-1,100
 313.875 8.80762 313.875 8.80762 317.26 -8.65332 c 128,-1,101
 320.646 -26.1143 320.646 -26.1143 336.409 -38.3496 c 128,-1,102
 352.172 -50.584 352.172 -50.584 375.52 -50.584 c 2,103,-1
 991.968 -50.584 l 1,104,-1
 991.968 -220.568 l 1,105,-1
 377.568 -220.568 l 2,106,107
 326.376 -220.568 326.376 -220.568 283.512 -204.805 c 128,-1,108
 240.648 -189.042 240.648 -189.042 212.97 -162.376 c 128,-1,109
 185.292 -135.709 185.292 -135.709 165.941 -101.141 c 128,-1,110
 146.591 -66.5732 146.591 -66.5732 142.428 -28.3701 c 128,-1,111
 138.264 9.83203 138.264 9.83203 142.428 48.0352 c 128,-1,112
 146.591 86.2373 146.591 86.2373 165.941 120.805 c 128,-1,113
 185.292 155.373 185.292 155.373 212.97 182.04 c 128,-1,114
 240.648 208.706 240.648 208.706 283.512 224.469 c 128,-1,115
 326.376 240.232 326.376 240.232 377.568 240.232 c 2,116,-1
 664.288 240.232 l 2,117,118
 707.012 240.232 707.012 240.232 739.773 272.357 c 128,-1,119
 772.533 304.482 772.533 304.482 789.636 354.027 c 128,-1,120
 806.738 403.572 806.738 403.572 814.781 453.861 c 128,-1,121
 822.824 504.15 822.824 504.15 821.984 549.48 c 0,122,123
 821.307 588.781 821.307 588.781 815.066 622.941 c 128,-1,124
 808.825 657.102 808.825 657.102 791.497 693.418 c 128,-1,125
 774.169 729.734 774.169 729.734 746.876 755.258 c 128,-1,126
 719.582 780.782 719.582 780.782 673.172 797.227 c 128,-1,127
 626.762 813.672 626.762 813.672 565.984 813.672 c 0,128,129
 401.851 813.672 401.851 813.672 355.04 748.136 c 1,69,70
416.48 617.064 m 128,-1,131
 377.288 617.064 377.288 617.064 349.78 591.609 c 128,-1,132
 322.272 566.155 322.272 566.155 322.272 526.952 c 0,133,134
 322.272 485.801 322.272 485.801 350.021 457.225 c 128,-1,135
 377.769 428.648 377.769 428.648 416.48 428.648 c 128,-1,136
 455.192 428.648 455.192 428.648 482.94 457.225 c 128,-1,137
 510.688 485.801 510.688 485.801 510.688 526.952 c 0,138,139
 510.688 566.154 510.688 566.154 483.181 591.609 c 128,-1,130
 455.673 617.064 455.673 617.064 416.48 617.064 c 128,-1,131
EndSplineSet
Validated: 33
EndChar

StartChar: m_r
Encoding: 104 3339 107
Width: 1044
GlyphClass: 2
Flags: W
LayerCount: 2
Fore
SplineSet
561.888 731.752 m 2,0,-1
 561.888 721.512 l 2,1,2
 561.888 616.889 561.888 616.889 515.25 545.296 c 128,-1,3
 468.613 473.704 468.613 473.704 396 473.704 c 0,4,5
 383.708 473.704 383.708 473.704 350.944 481.896 c 1,6,7
 371.688 446.793 371.688 446.793 449.7 412.12 c 128,-1,8
 527.712 377.448 527.712 377.448 594.656 377.448 c 2,9,-1
 604.896 377.448 l 2,10,11
 668.227 377.448 668.227 377.448 731.264 409.376 c 128,-1,12
 794.301 441.305 794.301 441.305 828.128 481.896 c 1,13,14
 806.624 475.751 806.624 475.751 785.12 475.752 c 0,15,16
 710.959 475.752 710.959 475.752 657.928 546.184 c 128,-1,17
 604.896 616.616 604.896 616.616 604.896 717.416 c 2,18,-1
 604.896 727.656 l 2,19,20
 604.896 840.227 604.896 840.227 665.547 909.894 c 128,-1,21
 726.198 979.561 726.198 979.561 809.696 979.561 c 0,22,23
 857.481 979.561 857.481 979.561 912.096 948.84 c 0,24,25
 1039.07 878.297 1039.07 878.297 1039.07 684.648 c 0,26,27
 1039.07 598.624 1039.07 598.624 1013.35 506.585 c 128,-1,28
 987.627 414.546 987.627 414.546 946.912 348.776 c 1,29,30
 1020.64 263.252 1020.64 263.252 1020.64 154.216 c 0,31,32
 1020.64 54.2529 1020.64 54.2529 959.471 -26.4902 c 128,-1,33
 898.302 -107.233 898.302 -107.233 801.504 -128.408 c 1,34,35
 681.693 -152.984 681.693 -152.984 582.368 -152.984 c 0,36,37
 499.086 -152.984 499.086 -152.984 439.008 -136.6 c 0,38,39
 405.159 -127.227 405.159 -127.227 382.439 -119.963 c 128,-1,40
 359.719 -112.7 359.719 -112.7 330.083 -100.359 c 128,-1,41
 300.447 -88.0176 300.447 -88.0176 280.648 -74.9551 c 128,-1,42
 260.849 -61.8936 260.849 -61.8936 239.218 -41.8447 c 128,-1,43
 217.588 -21.7969 217.588 -21.7969 204.078 1.86523 c 128,-1,44
 190.568 25.5273 190.568 25.5273 180.31 58.083 c 128,-1,45
 170.053 90.6387 170.053 90.6387 166.624 129.64 c 2,46,-1
 164.576 154.216 l 2,47,48
 161.638 198.3 161.638 198.3 180.218 253.636 c 128,-1,49
 198.798 308.972 198.798 308.972 228.064 352.872 c 1,50,-1
 228.064 354.92 l 1,51,52
 187.981 416.586 187.981 416.586 163.99 504.951 c 128,-1,53
 140 593.316 140 593.316 140 680.552 c 0,54,55
 140 768.879 140 768.879 166.451 838.509 c 128,-1,56
 192.902 908.138 192.902 908.138 248.544 944.74 c 0,57,58
 303.84 981.61 303.84 981.61 363.232 981.61 c 0,59,60
 445.616 981.61 445.616 981.61 503.752 912.009 c 128,-1,61
 561.888 842.409 561.888 842.409 561.888 731.752 c 2,0,-1
344.8 258.664 m 1,62,63
 334.56 224.527 334.56 224.527 334.56 201.32 c 0,64,65
 334.56 146.04 334.56 146.04 371.58 103.191 c 128,-1,66
 408.601 60.3418 408.601 60.3418 466.841 38.6709 c 128,-1,67
 525.081 17 525.081 17 592.608 17 c 2,68,-1
 598.752 17 l 2,69,70
 701.339 17 701.339 17 768.83 63.7549 c 128,-1,71
 836.32 110.511 836.32 110.511 836.32 184.936 c 0,72,73
 836.32 223.164 836.32 223.164 819.936 258.664 c 1,74,75
 816.154 257.314 816.154 257.314 786.652 246.305 c 128,-1,76
 757.149 235.297 757.149 235.297 745.626 231.897 c 128,-1,77
 734.104 228.497 734.104 228.497 708.369 221.533 c 128,-1,78
 682.636 214.568 682.636 214.568 658.988 212.04 c 128,-1,79
 635.34 209.512 635.34 209.512 608.992 209.512 c 2,80,-1
 598.752 209.512 l 2,81,82
 524.922 209.512 524.922 209.512 466.473 220.54 c 128,-1,83
 408.024 231.568 408.024 231.568 344.8 258.664 c 1,62,63
801.504 651.88 m 0,84,85
 826.15 651.88 826.15 651.88 840.451 675.988 c 128,-1,86
 854.752 700.096 854.752 700.096 854.752 731.752 c 0,87,88
 854.752 769.469 854.752 769.469 840.16 790.547 c 128,-1,89
 825.568 811.624 825.568 811.624 805.6 811.624 c 0,90,91
 787.127 811.624 787.127 811.624 773.835 791.485 c 128,-1,92
 760.544 771.346 760.544 771.346 760.544 733.8 c 0,93,94
 760.544 700.11 760.544 700.11 770.427 675.995 c 128,-1,95
 780.311 651.88 780.311 651.88 801.504 651.88 c 0,84,85
361.184 647.784 m 0,96,97
 384.177 647.784 384.177 647.784 399.305 675.517 c 128,-1,98
 414.432 703.25 414.432 703.25 414.432 733.8 c 0,99,100
 414.432 768.4 414.432 768.4 398.944 787.964 c 128,-1,101
 383.456 807.528 383.456 807.528 363.232 807.528 c 0,102,103
 343.264 807.528 343.264 807.528 328.672 788.072 c 128,-1,104
 314.08 768.616 314.08 768.616 314.08 733.8 c 0,105,106
 314.08 701.749 314.08 701.749 326.345 674.766 c 128,-1,107
 338.609 647.784 338.609 647.784 361.184 647.784 c 0,96,97
EndSplineSet
Validated: 33
EndChar

StartChar: m_l
Encoding: 105 3340 108
Width: 1393
GlyphClass: 2
Flags: W
LayerCount: 2
Fore
SplineSet
961.81 815.816 m 4,0,1
 856.83 802.191 856.83 802.191 856.83 703.08 c 6,2,-1
 856.83 0.616211 l 5,3,-1
 684.799 0.616211 l 5,4,-1
 684.799 694.888 l 6,5,6
 684.799 790.87 684.799 790.87 606.952 809.614 c 4,7,8
 435.069 851 435.069 851 349.27 692.067 c 4,9,10
 343.962 681.062 343.962 681.062 342.782 653.928 c 5,11,12
 482.108 703.466 482.108 703.466 567.619 593.432 c 4,13,14
 638.979 501.608 638.979 501.608 642.341 348.471 c 4,15,16
 645.727 194.337 645.727 194.337 577.872 93.8457 c 4,17,18
 514.92 0.616211 514.92 0.616211 412.414 0.616211 c 4,19,20
 353.99 0.616211 353.99 0.616211 307.4 24.8379 c 132,-1,21
 260.811 49.0605 260.811 49.0605 230.231 90.0332 c 132,-1,22
 199.651 131.006 199.651 131.006 179.179 188.416 c 132,-1,23
 158.707 245.827 158.707 245.827 149.688 308.662 c 132,-1,24
 140.668 371.496 140.668 371.496 140.029 442.984 c 4,25,26
 139.399 533.765 139.399 533.765 152.09 613.51 c 132,-1,27
 164.781 693.254 164.781 693.254 193.979 763.536 c 132,-1,28
 223.179 833.819 223.179 833.819 267.041 884.206 c 132,-1,29
 310.901 934.59 310.901 934.59 376.269 963.95 c 132,-1,30
 441.635 993.3 441.635 993.3 523.006 993.9 c 4,31,32
 607.87 993.9 607.87 993.9 673.374 976.43 c 132,-1,33
 738.878 958.96 738.878 958.96 762.622 926.31 c 5,34,35
 830.471 996.189 830.471 996.189 1005.37 994.9 c 4,36,37
 1086.74 994.3 1086.74 994.3 1152.1 964.439 c 132,-1,38
 1217.47 934.59 1217.47 934.59 1261.33 884.206 c 132,-1,39
 1305.19 833.819 1305.19 833.819 1334.39 763.536 c 132,-1,40
 1363.59 693.254 1363.59 693.254 1376.28 613.51 c 132,-1,41
 1388.97 533.765 1388.97 533.765 1388.34 442.984 c 4,42,43
 1387.7 371.496 1387.7 371.496 1378.68 308.662 c 132,-1,44
 1369.66 245.827 1369.66 245.827 1349.19 188.416 c 132,-1,45
 1328.72 131.006 1328.72 131.006 1298.14 90.0332 c 132,-1,46
 1267.56 49.0605 1267.56 49.0605 1220.97 24.8379 c 132,-1,47
 1174.38 0.616211 1174.38 0.616211 1115.96 0.616211 c 4,48,49
 1013.45 0.616211 1013.45 0.616211 950.5 93.8457 c 4,50,51
 882.644 194.337 882.644 194.337 886.029 348.471 c 4,52,53
 889.393 501.608 889.393 501.608 960.753 593.432 c 4,54,55
 1046.26 703.466 1046.26 703.466 1185.59 653.928 c 5,56,57
 1184.41 680.994 1184.41 680.994 1179.1 692.067 c 4,58,59
 1110.07 833 1110.07 833 961.81 815.816 c 4,0,1
326.449 343.959 m 4,60,61
 324.541 282.22 324.541 282.22 349.529 226.29 c 132,-1,62
 374.517 170.359 374.517 170.359 405.062 169.415 c 4,63,64
 435.833 168.465 435.833 168.465 455.715 216.121 c 132,-1,65
 475.594 263.777 475.594 263.777 477.61 329.043 c 4,66,67
 479.532 391.185 479.532 391.185 457.39 442.729 c 132,-1,68
 435.25 494.271 435.25 494.271 404.884 495.21 c 4,69,70
 372.086 496.224 372.086 496.224 350.25 451.87 c 132,-1,71
 328.413 407.519 328.413 407.519 326.449 343.959 c 4,60,61
1049.34 351.752 m 4,72,73
 1045.06 290.131 1045.06 290.131 1067.88 233.282 c 132,-1,74
 1090.7 176.433 1090.7 176.433 1121.18 174.315 c 4,75,76
 1151.9 172.184 1151.9 172.184 1173.59 219.04 c 132,-1,77
 1195.29 265.897 1195.29 265.897 1199.81 331.037 c 4,78,79
 1204.12 393.059 1204.12 393.059 1183.98 445.416 c 132,-1,80
 1163.83 497.771 1163.83 497.771 1133.53 499.876 c 4,81,82
 1100.79 502.149 1100.79 502.149 1077.27 458.668 c 132,-1,83
 1053.74 415.188 1053.74 415.188 1049.34 351.752 c 4,72,73
EndSplineSet
Validated: 33
EndChar

StartChar: me
Encoding: 106 3342 109
Width: 1858
GlyphClass: 2
Flags: W
LayerCount: 2
Fore
SplineSet
1246.67 176.744 m 5,0,-1
 1246.67 748.136 l 5,1,2
 1336.94 748.132 1336.94 748.132 1418.7 746.088 c 5,3,-1
 1418.7 2.66406 l 6,4,5
 1418.7 -76.5596 1418.7 -76.5596 1402.98 -135.438 c 132,-1,6
 1387.26 -194.315 1387.26 -194.315 1363.01 -227.923 c 132,-1,7
 1338.75 -261.532 1338.75 -261.532 1302.78 -281.78 c 132,-1,8
 1266.81 -302.028 1266.81 -302.028 1233.31 -308.402 c 132,-1,9
 1199.81 -314.776 1199.81 -314.776 1158.61 -314.776 c 4,10,11
 1092.3 -314.776 1092.3 -314.776 1032.34 -294.149 c 132,-1,12
 972.385 -273.522 972.385 -273.522 925.548 -235.084 c 132,-1,13
 878.711 -196.645 878.711 -196.645 852.312 -135.493 c 132,-1,14
 825.914 -74.3398 825.914 -74.3398 828.882 0.616211 c 5,15,-1
 511.442 0.616211 l 6,16,17
 510.263 0.616211 510.263 0.616211 509.658 8.96094 c 132,-1,18
 509.053 17.3057 509.053 17.3057 508.949 35.4756 c 132,-1,19
 508.846 53.6445 508.846 53.6445 508.938 72.0068 c 132,-1,20
 509.029 90.3682 509.029 90.3682 509.212 121.131 c 132,-1,21
 509.395 151.894 509.395 151.894 509.395 174.696 c 5,22,23
 553.54 174.696 553.54 174.696 569.811 254.056 c 132,-1,24
 586.08 333.416 586.08 333.416 556.157 412.776 c 132,-1,25
 526.233 492.136 526.233 492.136 458.194 492.136 c 4,26,27
 369.766 492.136 369.766 492.136 335.533 406.786 c 4,28,29
 306.388 334.119 306.388 334.119 331.484 256.107 c 4,30,31
 354.077 185.874 354.077 185.874 404.667 176.004 c 4,32,33
 410.832 174.801 410.832 174.801 417.234 174.696 c 5,34,-1
 417.234 0.616211 l 5,35,36
 273.269 -0.166016 273.269 -0.166016 196.026 119.454 c 4,37,38
 128.552 223.947 128.552 223.947 142.34 364.006 c 4,39,40
 156.612 508.991 156.612 508.991 250.19 595.262 c 4,41,42
 333.819 672.36 333.819 672.36 458.194 672.36 c 4,43,44
 524.549 672.36 524.549 672.36 579.48 649.115 c 132,-1,45
 634.411 625.87 634.411 625.87 670.22 587.146 c 132,-1,46
 706.029 548.424 706.029 548.424 728.795 497.468 c 132,-1,47
 751.561 446.512 751.561 446.512 757.298 391.752 c 132,-1,48
 763.036 336.993 763.036 336.993 753.864 280.968 c 132,-1,49
 744.691 224.942 744.691 224.942 720.338 176.744 c 5,50,-1
 816.594 176.744 l 5,51,52
 814.314 221.91 814.314 221.91 816.48 272.435 c 132,-1,53
 818.646 322.96 818.646 322.96 819.609 376.039 c 132,-1,54
 820.573 429.118 820.573 429.118 829.35 483.305 c 132,-1,55
 838.126 537.492 838.126 537.492 849.067 589.981 c 132,-1,56
 860.009 642.471 860.009 642.471 882.13 691.816 c 132,-1,57
 904.251 741.162 904.251 741.162 931.905 784.558 c 132,-1,58
 959.559 827.954 959.559 827.954 1001.76 863.955 c 132,-1,59
 1043.96 899.956 1043.96 899.956 1095.05 925.76 c 132,-1,60
 1146.15 951.561 1146.15 951.561 1215.17 965.71 c 132,-1,61
 1284.18 979.86 1284.18 979.86 1365.46 979.561 c 4,62,63
 1601.11 978.85 1601.11 978.85 1733.81 770.745 c 4,64,65
 1845.62 595.4 1845.62 595.4 1852.72 334.3 c 4,66,67
 1859.29 92.9209 1859.29 92.9209 1774.91 -90.7549 c 4,68,69
 1694.96 -264.769 1694.96 -264.769 1565.23 -302.626 c 4,70,71
 1513.77 -317.644 1513.77 -317.644 1457.62 -308.632 c 5,72,-1
 1457.62 -136.6 l 5,73,74
 1531.82 -137.188 1531.82 -137.188 1585.4 -40.1406 c 132,-1,75
 1638.99 56.9072 1638.99 56.9072 1650.45 195.792 c 132,-1,76
 1661.9 334.678 1661.9 334.678 1644.16 473.661 c 132,-1,77
 1626.41 612.644 1626.41 612.644 1553.39 710.086 c 132,-1,78
 1480.36 807.528 1480.36 807.528 1369.55 807.528 c 4,79,80
 1314.4 807.528 1314.4 807.528 1267.88 793.036 c 132,-1,81
 1221.36 778.545 1221.36 778.545 1187.41 754.765 c 132,-1,82
 1153.46 730.985 1153.46 730.985 1126.23 694.553 c 132,-1,83
 1098.99 658.12 1098.99 658.12 1081.14 620.411 c 132,-1,84
 1063.29 582.703 1063.29 582.703 1050.32 533.769 c 132,-1,85
 1037.35 484.835 1037.35 484.835 1030.56 442.637 c 132,-1,86
 1023.78 400.439 1023.78 400.439 1020.05 348.443 c 132,-1,87
 1016.32 296.448 1016.32 296.448 1015.58 259.199 c 132,-1,88
 1014.85 221.951 1014.85 221.951 1015.25 176.744 c 5,89,-1
 1246.67 176.744 l 5,0,-1
1246.67 0.616211 m 5,90,-1
 1031.63 0.616211 l 5,91,92
 1023.16 -85.0723 1023.16 -85.0723 1084.49 -127.889 c 4,93,94
 1134.26 -162.634 1134.26 -162.634 1186.59 -143.091 c 4,95,96
 1245.92 -120.932 1245.92 -120.932 1249.59 -44.46 c 4,97,98
 1250.6 -23.3994 1250.6 -23.3994 1246.67 0.616211 c 5,90,-1
EndSplineSet
Validated: 33
EndChar

StartChar: mE
Encoding: 107 3343 110
Width: 1837
GlyphClass: 2
Flags: W
LayerCount: 2
Fore
SplineSet
1396.18 811.624 m 2,0,-1
 1369.55 811.624 l 2,1,2
 1314.41 811.624 1314.41 811.624 1268.16 796.86 c 128,-1,3
 1221.91 782.097 1221.91 782.097 1188.44 758.475 c 128,-1,4
 1154.97 734.854 1154.97 734.854 1128.35 697.455 c 128,-1,5
 1101.73 660.057 1101.73 660.057 1084.56 622.931 c 128,-1,6
 1067.38 585.804 1067.38 585.804 1055.09 535.346 c 128,-1,7
 1042.81 484.888 1042.81 484.888 1036.63 443.83 c 128,-1,8
 1030.45 402.773 1030.45 402.773 1027.21 348.829 c 128,-1,9
 1023.97 294.885 1023.97 294.885 1023.49 259.471 c 128,-1,10
 1023.02 224.057 1023.02 224.057 1023.44 176.744 c 1,11,-1
 1246.67 176.744 l 1,12,-1
 1246.67 744.04 l 1,13,-1
 1418.7 744.04 l 1,14,-1
 1418.7 2.66406 l 2,15,16
 1418.7 -76.5596 1418.7 -76.5596 1402.98 -135.438 c 128,-1,17
 1387.26 -194.315 1387.26 -194.315 1363.01 -227.923 c 128,-1,18
 1338.75 -261.532 1338.75 -261.532 1302.78 -281.78 c 128,-1,19
 1266.81 -302.028 1266.81 -302.028 1233.31 -308.402 c 128,-1,20
 1199.81 -314.776 1199.81 -314.776 1158.61 -314.776 c 0,21,22
 1025.8 -314.776 1025.8 -314.776 933.219 -225.878 c 128,-1,23
 840.634 -136.98 840.634 -136.98 839.122 0.616211 c 1,24,-1
 511.442 0.616211 l 2,25,26
 510.263 0.616211 510.263 0.616211 509.658 8.96094 c 128,-1,27
 509.053 17.3057 509.053 17.3057 508.949 35.4756 c 128,-1,28
 508.846 53.6445 508.846 53.6445 508.938 72.0068 c 128,-1,29
 509.029 90.3682 509.029 90.3682 509.212 121.131 c 128,-1,30
 509.395 151.894 509.395 151.894 509.395 174.696 c 1,31,32
 553.54 174.696 553.54 174.696 569.811 254.056 c 128,-1,33
 586.08 333.416 586.08 333.416 556.157 412.776 c 128,-1,34
 526.233 492.136 526.233 492.136 458.194 492.136 c 0,35,36
 369.766 492.136 369.766 492.136 335.533 406.786 c 0,37,38
 306.388 334.119 306.388 334.119 331.484 256.107 c 0,39,40
 354.077 185.874 354.077 185.874 404.667 176.004 c 0,41,42
 410.832 174.801 410.832 174.801 417.234 174.696 c 1,43,-1
 417.234 0.616211 l 1,44,45
 273.269 -0.166016 273.269 -0.166016 196.026 119.454 c 0,46,47
 128.552 223.947 128.552 223.947 142.34 364.006 c 0,48,49
 156.612 508.991 156.612 508.991 250.19 595.262 c 0,50,51
 333.819 672.36 333.819 672.36 458.194 672.36 c 0,52,53
 524.549 672.36 524.549 672.36 579.48 649.115 c 128,-1,54
 634.411 625.87 634.411 625.87 670.22 587.146 c 128,-1,55
 706.029 548.424 706.029 548.424 728.795 497.468 c 128,-1,56
 751.561 446.512 751.561 446.512 757.298 391.752 c 128,-1,57
 763.036 336.993 763.036 336.993 753.864 280.968 c 128,-1,58
 744.691 224.942 744.691 224.942 720.338 176.744 c 1,59,-1
 839.122 176.744 l 1,60,61
 835.86 264.798 835.86 264.798 839.903 343.69 c 128,-1,62
 843.946 422.582 843.946 422.582 858.993 505.618 c 128,-1,63
 874.04 588.654 874.04 588.654 900.125 657.207 c 128,-1,64
 926.211 725.76 926.211 725.76 970.087 787.573 c 128,-1,65
 1013.96 849.386 1013.96 849.386 1072.41 891.766 c 128,-1,66
 1130.85 934.14 1130.85 934.14 1213.87 958.9 c 128,-1,67
 1296.9 983.66 1296.9 983.66 1398.22 983.66 c 0,68,69
 1477.61 983.66 1477.61 983.66 1552.01 958.01 c 128,-1,70
 1626.41 932.36 1626.41 932.36 1683.48 889.071 c 128,-1,71
 1740.54 845.784 1740.54 845.784 1778.03 785.539 c 128,-1,72
 1815.52 725.294 1815.52 725.294 1826.38 659.543 c 128,-1,73
 1837.25 593.792 1837.25 593.792 1813.59 519.545 c 128,-1,74
 1789.93 445.298 1789.93 445.298 1730 377.448 c 1,75,76
 1864.96 219.446 1864.96 219.446 1822.16 -11.6719 c 0,77,78
 1813.87 -56.9268 1813.87 -56.9268 1796.23 -99.9355 c 128,-1,79
 1778.59 -142.944 1778.59 -142.944 1748.75 -183.422 c 128,-1,80
 1718.92 -223.9 1718.92 -223.9 1680.69 -253.618 c 128,-1,81
 1642.46 -283.335 1642.46 -283.335 1589.47 -300.24 c 128,-1,82
 1536.47 -317.146 1536.47 -317.146 1476.05 -314.776 c 1,83,-1
 1476.05 -138.648 l 1,84,85
 1519.91 -139.07 1519.91 -139.07 1555.94 -115.687 c 128,-1,86
 1591.97 -92.3027 1591.97 -92.3027 1612 -54.583 c 128,-1,87
 1632.04 -16.8633 1632.04 -16.8633 1642.86 28.8564 c 128,-1,88
 1653.68 74.5752 1653.68 74.5752 1646.95 120.375 c 128,-1,89
 1640.21 166.174 1640.21 166.174 1622.88 204.065 c 128,-1,90
 1605.56 241.955 1605.56 241.955 1569.11 265.669 c 128,-1,91
 1532.66 289.384 1532.66 289.384 1484.24 289.384 c 1,92,-1
 1484.24 461.416 l 1,93,94
 1595.89 469.789 1595.89 469.789 1629.65 547.432 c 1,95,96
 1659.03 625.483 1659.03 625.483 1639.66 684.193 c 128,-1,97
 1620.29 742.902 1620.29 742.902 1555.46 777.263 c 128,-1,98
 1490.64 811.624 1490.64 811.624 1396.18 811.624 c 2,0,-1
1246.67 0.616211 m 0,99,100
 1246.67 3.68848 1246.67 3.68848 1137.1 3.68848 c 128,-1,101
 1027.54 3.68848 1027.54 3.68848 1027.54 0.616211 c 0,102,103
 1019.9 -93.0059 1019.9 -93.0059 1079.88 -138.597 c 0,104,105
 1127.56 -174.833 1127.56 -174.833 1178.78 -154.087 c 0,106,107
 1238.79 -129.784 1238.79 -129.784 1246.64 -44.7295 c 0,108,109
 1248.61 -23.4404 1248.61 -23.4404 1246.67 0.616211 c 0,99,100
EndSplineSet
Validated: 33
EndChar

StartChar: m_y
Encoding: 108 3344 111
Width: 3013
GlyphClass: 2
Flags: W
LayerCount: 2
Fore
SplineSet
787.357 0.616211 m 1,0,-1
 787.357 174.696 l 1,1,2
 890.601 173.938 890.601 173.938 942.583 279.823 c 0,3,4
 993.134 382.795 993.134 382.795 969.869 520.113 c 0,5,6
 944.688 668.741 944.688 668.741 847.961 748.918 c 0,7,8
 772.311 811.624 772.311 811.624 668.574 811.624 c 0,9,10
 552.99 811.624 552.99 811.624 469.883 765.498 c 128,-1,11
 386.776 719.372 386.776 719.372 367.518 633.449 c 1,12,13
 581.418 694.788 581.418 694.788 704.54 585.113 c 0,14,15
 794.87 504.646 794.87 504.646 803.222 366.4 c 0,16,17
 811.407 230.914 811.407 230.914 737.334 126.309 c 0,18,19
 649.893 2.82324 649.893 2.82324 494.408 -1.30566 c 0,20,21
 490.368 -1.41309 490.368 -1.41309 486.302 -1.43164 c 0,22,23
 322.65 -2.83105 322.65 -2.83105 225.592 138.408 c 0,24,25
 137.576 266.488 137.576 266.488 140.068 451.065 c 0,26,27
 142.72 647.398 142.72 647.398 247.035 791.541 c 0,28,29
 375.249 968.71 375.249 968.71 605.188 982.561 c 0,30,31
 623.323 983.66 623.323 983.66 641.95 983.66 c 0,32,33
 895.544 983.66 895.544 983.66 1037.25 810.18 c 0,34,35
 1148.81 673.604 1148.81 673.604 1156.1 479.269 c 0,36,37
 1162.92 297.43 1162.92 297.43 1076.13 162.733 c 0,38,39
 982.342 17.1855 982.342 17.1855 821.373 2.17871 c 0,40,41
 804.615 0.616211 804.615 0.616211 787.357 0.616211 c 1,0,-1
486.302 172.648 m 0,42,43
 525.05 172.648 525.05 172.648 554.529 189.365 c 128,-1,44
 584.007 206.081 584.007 206.081 598.347 232.812 c 128,-1,45
 612.686 259.544 612.686 259.544 618.596 291.872 c 128,-1,46
 624.505 324.2 624.505 324.2 616.236 356.528 c 128,-1,47
 607.966 388.856 607.966 388.856 592.097 415.588 c 128,-1,48
 576.229 442.319 576.229 442.319 547.141 459.036 c 128,-1,49
 518.053 475.752 518.053 475.752 482.206 475.752 c 0,50,51
 443.834 475.752 443.834 475.752 413.318 459.036 c 128,-1,52
 382.801 442.319 382.801 442.319 366.773 415.588 c 128,-1,53
 350.747 388.856 350.747 388.856 343.017 356.528 c 128,-1,54
 335.287 324.2 335.287 324.2 342.616 291.872 c 128,-1,55
 349.946 259.544 349.946 259.544 366.005 232.812 c 128,-1,56
 382.062 206.081 382.062 206.081 413.753 189.365 c 128,-1,57
 445.443 172.648 445.443 172.648 486.302 172.648 c 0,42,43
2402.44 176.744 m 1,58,-1
 2402.44 748.136 l 1,59,60
 2492.71 748.132 2492.71 748.132 2574.47 746.088 c 1,61,-1
 2574.47 2.66406 l 2,62,63
 2574.47 -76.5596 2574.47 -76.5596 2558.75 -135.438 c 128,-1,64
 2543.03 -194.315 2543.03 -194.315 2518.78 -227.923 c 128,-1,65
 2494.52 -261.532 2494.52 -261.532 2458.55 -281.78 c 128,-1,66
 2422.58 -302.028 2422.58 -302.028 2389.08 -308.402 c 128,-1,67
 2355.58 -314.776 2355.58 -314.776 2314.38 -314.776 c 0,68,69
 2248.07 -314.776 2248.07 -314.776 2188.11 -294.149 c 128,-1,70
 2128.15 -273.522 2128.15 -273.522 2081.32 -235.084 c 128,-1,71
 2034.48 -196.645 2034.48 -196.645 2008.08 -135.493 c 128,-1,72
 1981.68 -74.3398 1981.68 -74.3398 1984.65 0.616211 c 1,73,-1
 1667.21 0.616211 l 2,74,75
 1666.03 0.616211 1666.03 0.616211 1665.43 8.96094 c 128,-1,76
 1664.82 17.3057 1664.82 17.3057 1664.72 35.4756 c 128,-1,77
 1664.61 53.6445 1664.61 53.6445 1664.7 72.0068 c 128,-1,78
 1664.8 90.3682 1664.8 90.3682 1664.98 121.131 c 128,-1,79
 1665.16 151.894 1665.16 151.894 1665.16 174.696 c 1,80,81
 1709.31 174.696 1709.31 174.696 1725.58 254.056 c 128,-1,82
 1741.85 333.416 1741.85 333.416 1711.92 412.776 c 128,-1,83
 1682 492.136 1682 492.136 1613.96 492.136 c 0,84,85
 1525.53 492.136 1525.53 492.136 1491.3 406.786 c 0,86,87
 1462.16 334.119 1462.16 334.119 1487.25 256.107 c 0,88,89
 1509.84 185.874 1509.84 185.874 1560.44 176.004 c 0,90,91
 1566.6 174.801 1566.6 174.801 1573 174.696 c 1,92,-1
 1573 0.616211 l 1,93,94
 1429.04 -0.166016 1429.04 -0.166016 1351.79 119.454 c 0,95,96
 1284.32 223.947 1284.32 223.947 1298.11 364.006 c 0,97,98
 1312.38 508.991 1312.38 508.991 1405.96 595.262 c 0,99,100
 1489.59 672.36 1489.59 672.36 1613.96 672.36 c 0,101,102
 1680.32 672.36 1680.32 672.36 1735.25 649.115 c 128,-1,103
 1790.18 625.87 1790.18 625.87 1825.99 587.146 c 128,-1,104
 1861.8 548.424 1861.8 548.424 1884.56 497.468 c 128,-1,105
 1907.33 446.512 1907.33 446.512 1913.07 391.752 c 128,-1,106
 1918.8 336.993 1918.8 336.993 1909.63 280.968 c 128,-1,107
 1900.46 224.942 1900.46 224.942 1876.11 176.744 c 1,108,-1
 1972.36 176.744 l 1,109,110
 1970.08 221.91 1970.08 221.91 1972.25 272.435 c 128,-1,111
 1974.41 322.96 1974.41 322.96 1975.38 376.039 c 128,-1,112
 1976.34 429.118 1976.34 429.118 1985.12 483.305 c 128,-1,113
 1993.89 537.492 1993.89 537.492 2004.83 589.981 c 128,-1,114
 2015.78 642.471 2015.78 642.471 2037.9 691.816 c 128,-1,115
 2060.02 741.162 2060.02 741.162 2087.67 784.558 c 128,-1,116
 2115.33 827.954 2115.33 827.954 2157.53 863.955 c 128,-1,117
 2199.73 899.956 2199.73 899.956 2250.82 925.76 c 128,-1,118
 2301.92 951.561 2301.92 951.561 2370.94 965.71 c 128,-1,119
 2439.95 979.86 2439.95 979.86 2521.23 979.561 c 0,120,121
 2756.88 978.85 2756.88 978.85 2889.58 770.745 c 0,122,123
 3001.39 595.4 3001.39 595.4 3008.49 334.3 c 0,124,125
 3015.06 92.9209 3015.06 92.9209 2930.68 -90.7549 c 0,126,127
 2850.73 -264.769 2850.73 -264.769 2721 -302.626 c 0,128,129
 2669.54 -317.644 2669.54 -317.644 2613.39 -308.632 c 1,130,-1
 2613.39 -136.6 l 1,131,132
 2687.59 -137.188 2687.59 -137.188 2741.17 -40.1406 c 128,-1,133
 2794.76 56.9072 2794.76 56.9072 2806.22 195.792 c 128,-1,134
 2817.67 334.678 2817.67 334.678 2799.93 473.661 c 128,-1,135
 2782.18 612.644 2782.18 612.644 2709.16 710.086 c 128,-1,136
 2636.13 807.528 2636.13 807.528 2525.32 807.528 c 0,137,138
 2470.17 807.528 2470.17 807.528 2423.65 793.036 c 128,-1,139
 2377.13 778.545 2377.13 778.545 2343.18 754.765 c 128,-1,140
 2309.23 730.985 2309.23 730.985 2282 694.553 c 128,-1,141
 2254.76 658.12 2254.76 658.12 2236.91 620.411 c 128,-1,142
 2219.05 582.703 2219.05 582.703 2206.08 533.769 c 128,-1,143
 2193.12 484.835 2193.12 484.835 2186.33 442.637 c 128,-1,144
 2179.55 400.439 2179.55 400.439 2175.82 348.443 c 128,-1,145
 2172.09 296.448 2172.09 296.448 2171.35 259.199 c 128,-1,146
 2170.62 221.951 2170.62 221.951 2171.02 176.744 c 1,147,-1
 2402.44 176.744 l 1,58,-1
2402.44 0.616211 m 1,148,-1
 2187.4 0.616211 l 1,149,150
 2178.93 -85.0723 2178.93 -85.0723 2240.26 -127.889 c 0,151,152
 2290.03 -162.634 2290.03 -162.634 2342.36 -143.091 c 0,153,154
 2401.69 -120.932 2401.69 -120.932 2405.36 -44.46 c 0,155,156
 2406.37 -23.3994 2406.37 -23.3994 2402.44 0.616211 c 1,148,-1
EndSplineSet
Validated: 33
EndChar

StartChar: mo
Encoding: 109 3346 112
Width: 1084
GlyphClass: 2
Flags: W
LayerCount: 2
Fore
SplineSet
375.954 692.84 m 5,0,1
 418.478 706.887 418.478 706.887 461.05 703.658 c 132,-1,2
 503.624 700.43 503.624 700.43 542.676 687.227 c 132,-1,3
 581.729 674.024 581.729 674.024 615.314 643.944 c 132,-1,4
 648.899 613.863 648.899 613.863 673.445 574.208 c 132,-1,5
 697.991 534.552 697.991 534.552 711.551 478.416 c 132,-1,6
 725.111 422.281 725.111 422.281 724.114 356.968 c 4,7,8
 723.121 273.092 723.121 273.092 697.467 202.463 c 132,-1,9
 671.812 131.834 671.812 131.834 630.868 86.2568 c 132,-1,10
 589.922 40.6797 589.922 40.6797 536.339 16.6826 c 132,-1,11
 482.756 -7.31445 482.756 -7.31445 427.812 -4.68945 c 132,-1,12
 372.869 -2.06445 372.869 -2.06445 317.185 30.9238 c 132,-1,13
 261.5 63.9131 261.5 63.9131 218.258 125.544 c 4,14,15
 195.979 157.421 195.979 157.421 178.546 205.169 c 132,-1,16
 161.112 252.916 161.112 252.916 151.627 310.996 c 132,-1,17
 142.142 369.076 142.142 369.076 140.266 433.309 c 132,-1,18
 138.39 497.542 138.39 497.542 149.756 563.021 c 132,-1,19
 161.122 628.5 161.122 628.5 182.692 690.373 c 132,-1,20
 204.263 752.247 204.263 752.247 244.368 806.281 c 132,-1,21
 284.475 860.314 284.475 860.314 337.379 900.983 c 132,-1,22
 390.283 941.65 390.283 941.65 467.019 965.4 c 132,-1,23
 543.753 989.14 543.753 989.14 636.05 989.8 c 4,24,25
 871.742 991.84 871.742 991.84 992.712 864.239 c 4,26,27
 1075.24 777.19 1075.24 777.19 1072.48 668.406 c 4,28,29
 1070.06 573.18 1070.06 573.18 1003.89 523.893 c 4,30,31
 985.597 510.266 985.597 510.266 963.73 502.376 c 5,32,33
 1019.74 483.906 1019.74 483.906 1051.62 423.722 c 132,-1,34
 1083.52 363.538 1083.52 363.538 1078.74 290.198 c 132,-1,35
 1073.96 216.857 1073.96 216.857 1043.53 147.914 c 132,-1,36
 1013.1 78.9697 1013.1 78.9697 937.44 36.0156 c 132,-1,37
 861.775 -6.9375 861.775 -6.9375 758.931 0.616211 c 5,38,-1
 758.931 178.792 l 5,39,40
 837.51 160.518 837.51 160.518 880.008 221.062 c 4,41,42
 915.493 271.617 915.493 271.617 899.634 332.175 c 4,43,44
 883.08 395.391 883.08 395.391 819.551 411.238 c 4,45,46
 793.175 417.818 793.175 417.818 760.979 414.312 c 5,47,-1
 760.979 576.104 l 5,48,49
 846.729 576.104 846.729 576.104 883.521 631.854 c 4,50,51
 916.572 681.93 916.572 681.93 884.099 734.791 c 4,52,53
 839.423 807.514 839.423 807.514 705.281 818.56 c 4,54,55
 674.484 821.096 674.484 821.096 640.146 819.816 c 4,56,57
 573.98 817.56 573.98 817.56 529.474 808.979 c 132,-1,58
 484.965 800.395 484.965 800.395 456.003 782.558 c 132,-1,59
 427.04 764.721 427.04 764.721 410.625 745.298 c 132,-1,60
 394.209 725.874 394.209 725.874 375.954 692.84 c 5,0,1
316.562 344.68 m 4,61,62
 316.562 280.027 316.562 280.027 353.693 228.385 c 132,-1,63
 390.823 176.744 390.823 176.744 433.298 176.744 c 4,64,65
 478.663 176.744 478.663 176.744 513.023 220.102 c 132,-1,66
 547.382 263.46 547.382 263.46 545.938 338.536 c 4,67,68
 544.492 434.019 544.492 434.019 509.896 482.534 c 132,-1,69
 475.299 531.048 475.299 531.048 425.106 531.048 c 4,70,71
 380.125 531.048 380.125 531.048 348.344 474.175 c 132,-1,72
 316.562 417.303 316.562 417.303 316.562 344.68 c 4,61,62
EndSplineSet
Validated: 33
EndChar

StartChar: mO
Encoding: 110 3347 113
Width: 1641
GlyphClass: 2
Flags: W
LayerCount: 2
Fore
SplineSet
1159.01 739.944 m 1,0,-1
 1159.01 928.36 l 1,1,2
 1204.88 985.7 1204.88 985.7 1292.13 985.7 c 0,3,4
 1366.17 985.7 1366.17 985.7 1425.91 957.97 c 128,-1,5
 1485.64 930.23 1485.64 930.23 1524.13 884.809 c 128,-1,6
 1562.62 839.385 1562.62 839.385 1588.5 778.007 c 128,-1,7
 1614.38 716.629 1614.38 716.629 1625.29 652.746 c 128,-1,8
 1636.19 588.863 1636.19 588.863 1636.19 520.808 c 0,9,10
 1636.19 448.632 1636.19 448.632 1624.01 377.46 c 128,-1,11
 1611.83 306.287 1611.83 306.287 1583.88 237.173 c 128,-1,12
 1555.92 168.059 1555.92 168.059 1515.32 115.578 c 128,-1,13
 1474.72 63.0977 1474.72 63.0977 1412.77 30.833 c 128,-1,14
 1350.81 -1.43164 1350.81 -1.43164 1275.74 -1.43164 c 0,15,16
 1232.39 -1.43164 1232.39 -1.43164 1207.81 7.78809 c 128,-1,17
 1183.22 17.0078 1183.22 17.0078 1159.01 49.7676 c 1,18,-1
 1159.01 240.232 l 1,19,20
 1168.37 229.927 1168.37 229.927 1183.17 211.763 c 128,-1,21
 1197.96 193.598 1197.96 193.598 1203.68 188.446 c 128,-1,22
 1209.39 183.293 1209.39 183.293 1221.76 177.971 c 128,-1,23
 1234.13 172.648 1234.13 172.648 1251.17 172.648 c 0,24,25
 1318.49 172.648 1318.49 172.648 1367.84 225.169 c 128,-1,26
 1417.19 277.69 1417.19 277.69 1439.65 354.964 c 128,-1,27
 1462.11 432.239 1462.11 432.239 1462.11 520.808 c 0,28,29
 1462.11 571.479 1462.11 571.479 1450.64 620.965 c 128,-1,30
 1439.17 670.451 1439.17 670.451 1415.98 715.371 c 128,-1,31
 1392.78 760.29 1392.78 760.29 1351.06 788.005 c 128,-1,32
 1309.33 815.72 1309.33 815.72 1255.26 815.72 c 0,33,34
 1235.07 815.72 1235.07 815.72 1220.02 804.615 c 128,-1,35
 1204.96 793.51 1204.96 793.51 1187.43 771.529 c 128,-1,36
 1169.89 749.547 1169.89 749.547 1159.01 739.944 c 1,0,-1
375.954 692.84 m 1,37,38
 418.478 706.887 418.478 706.887 461.05 703.658 c 128,-1,39
 503.624 700.43 503.624 700.43 542.676 687.227 c 128,-1,40
 581.729 674.024 581.729 674.024 615.314 643.944 c 128,-1,41
 648.899 613.863 648.899 613.863 673.445 574.208 c 128,-1,42
 697.991 534.552 697.991 534.552 711.551 478.416 c 128,-1,43
 725.111 422.281 725.111 422.281 724.114 356.968 c 0,44,45
 723.121 273.092 723.121 273.092 697.467 202.463 c 128,-1,46
 671.812 131.834 671.812 131.834 630.868 86.2568 c 128,-1,47
 589.922 40.6797 589.922 40.6797 536.339 16.6826 c 128,-1,48
 482.756 -7.31445 482.756 -7.31445 427.812 -4.68945 c 128,-1,49
 372.869 -2.06445 372.869 -2.06445 317.185 30.9238 c 128,-1,50
 261.5 63.9131 261.5 63.9131 218.258 125.544 c 0,51,52
 195.979 157.421 195.979 157.421 178.546 205.169 c 128,-1,53
 161.112 252.916 161.112 252.916 151.627 310.996 c 128,-1,54
 142.142 369.076 142.142 369.076 140.266 433.309 c 128,-1,55
 138.39 497.542 138.39 497.542 149.756 563.021 c 128,-1,56
 161.122 628.5 161.122 628.5 182.692 690.373 c 128,-1,57
 204.263 752.247 204.263 752.247 244.368 806.281 c 128,-1,58
 284.475 860.314 284.475 860.314 337.379 900.983 c 128,-1,59
 390.283 941.65 390.283 941.65 467.019 965.4 c 128,-1,60
 543.753 989.14 543.753 989.14 636.05 989.8 c 0,61,62
 871.742 991.84 871.742 991.84 992.712 864.239 c 0,63,64
 1075.24 777.19 1075.24 777.19 1072.48 668.406 c 0,65,66
 1070.06 573.18 1070.06 573.18 1003.89 523.893 c 0,67,68
 985.597 510.266 985.597 510.266 963.73 502.376 c 1,69,70
 1019.74 483.906 1019.74 483.906 1051.62 423.722 c 128,-1,71
 1083.52 363.538 1083.52 363.538 1078.74 290.198 c 128,-1,72
 1073.96 216.857 1073.96 216.857 1043.53 147.914 c 128,-1,73
 1013.1 78.9697 1013.1 78.9697 937.44 36.0156 c 128,-1,74
 861.775 -6.9375 861.775 -6.9375 758.931 0.616211 c 1,75,-1
 758.931 178.792 l 1,76,77
 837.51 160.518 837.51 160.518 880.008 221.062 c 0,78,79
 915.493 271.617 915.493 271.617 899.634 332.175 c 0,80,81
 883.08 395.391 883.08 395.391 819.551 411.238 c 0,82,83
 793.175 417.818 793.175 417.818 760.979 414.312 c 1,84,-1
 760.979 576.104 l 1,85,86
 846.729 576.104 846.729 576.104 883.521 631.854 c 0,87,88
 916.572 681.93 916.572 681.93 884.099 734.791 c 0,89,90
 839.423 807.514 839.423 807.514 705.281 818.56 c 0,91,92
 674.484 821.096 674.484 821.096 640.146 819.816 c 0,93,94
 573.98 817.56 573.98 817.56 529.474 808.979 c 128,-1,95
 484.965 800.395 484.965 800.395 456.003 782.558 c 128,-1,96
 427.04 764.721 427.04 764.721 410.625 745.298 c 128,-1,97
 394.209 725.874 394.209 725.874 375.954 692.84 c 1,37,38
316.562 344.68 m 0,98,99
 316.562 280.027 316.562 280.027 353.693 228.385 c 128,-1,100
 390.823 176.744 390.823 176.744 433.298 176.744 c 0,101,102
 478.663 176.744 478.663 176.744 513.023 220.102 c 128,-1,103
 547.382 263.46 547.382 263.46 545.938 338.536 c 0,104,105
 544.492 434.019 544.492 434.019 509.896 482.534 c 128,-1,106
 475.299 531.048 475.299 531.048 425.106 531.048 c 0,107,108
 380.125 531.048 380.125 531.048 348.344 474.175 c 128,-1,109
 316.562 417.303 316.562 417.303 316.562 344.68 c 0,98,99
EndSplineSet
Validated: 33
EndChar

StartChar: m_w
Encoding: 111 3348 114
Width: 2064
GlyphClass: 2
Flags: W
LayerCount: 2
Fore
SplineSet
1140.81 387.688 m 1,0,-1
 1325.13 387.688 l 1,1,2
 1332.55 325.358 1332.55 325.358 1353.23 281.555 c 128,-1,3
 1373.91 237.753 1373.91 237.753 1405.51 214.268 c 128,-1,4
 1437.11 190.783 1437.11 190.783 1472.66 180.691 c 128,-1,5
 1508.2 170.6 1508.2 170.6 1552.46 170.6 c 0,6,7
 1720.28 170.6 1720.28 170.6 1811.53 319.052 c 0,8,9
 1882.87 435.117 1882.87 435.117 1879.77 584.736 c 0,10,11
 1877.06 715.695 1877.06 715.695 1819.14 775.75 c 0,12,13
 1788.88 807.13 1788.88 807.13 1749.07 807.528 c 0,14,15
 1710.3 807.528 1710.3 807.528 1683.61 784.817 c 128,-1,16
 1656.91 762.105 1656.91 762.105 1656.91 717.416 c 2,17,-1
 1656.91 461.416 l 1,18,-1
 1499.21 461.416 l 1,19,-1
 1499.21 672.36 l 2,20,21
 1499.21 735.354 1499.21 735.354 1475.78 772.779 c 128,-1,22
 1452.34 810.205 1452.34 810.205 1392.72 811.624 c 1,23,24
 1345.35 811.624 1345.35 811.624 1318.86 785.911 c 128,-1,25
 1292.37 760.198 1292.37 760.198 1292.37 709.224 c 0,26,27
 1292.37 673.72 1292.37 673.72 1317.44 652.56 c 128,-1,28
 1342.52 631.4 1342.52 631.4 1392.72 631.4 c 1,29,-1
 1392.72 461.416 l 1,30,31
 1338.95 461.416 1338.95 461.416 1307.12 464.859 c 128,-1,32
 1275.3 468.302 1275.3 468.302 1246.28 479.861 c 128,-1,33
 1217.27 491.421 1217.27 491.421 1198.13 513.243 c 128,-1,34
 1179 535.064 1179 535.064 1161.29 572.008 c 0,35,36
 1101.73 694.122 1101.73 694.122 1175.63 858.729 c 0,37,38
 1197.82 908.289 1197.82 908.289 1250.29 940.23 c 128,-1,39
 1302.76 972.17 1302.76 972.17 1360.94 979.6 c 128,-1,40
 1419.12 987.02 1419.12 987.02 1476.34 969.92 c 128,-1,41
 1533.56 952.82 1533.56 952.82 1564.75 911.976 c 1,42,43
 1582.2 936.13 1582.2 936.13 1604.42 951.41 c 128,-1,44
 1626.64 966.689 1626.64 966.689 1651.4 972.061 c 128,-1,45
 1676.16 977.439 1676.16 977.439 1690.16 978.64 c 128,-1,46
 1704.17 979.85 1704.17 979.85 1724 979.61 c 0,47,48
 1728.64 979.561 1728.64 979.561 1730.64 979.561 c 0,49,50
 1886.22 983.03 1886.22 983.03 1978.31 844.444 c 0,51,52
 2062.77 717.345 2062.77 717.345 2059.05 532.557 c 0,53,54
 2055.07 335.059 2055.07 335.059 1951.85 190.762 c 0,55,56
 1824.77 13.1025 1824.77 13.1025 1598.74 1.37598 c 0,57,58
 1581.96 0.504883 1581.96 0.504883 1564.75 0.616211 c 0,59,60
 1558.11 0.616211 1558.11 0.616211 1544.3 0.509766 c 0,61,62
 1503.76 0.196289 1503.76 0.196289 1481.29 0.984375 c 128,-1,63
 1458.82 1.77148 1458.82 1.77148 1416.66 8.80273 c 128,-1,64
 1374.5 15.834 1374.5 15.834 1347.8 29.5381 c 128,-1,65
 1321.1 43.2422 1321.1 43.2422 1285.03 71.5078 c 128,-1,66
 1248.96 99.7744 1248.96 99.7744 1224.88 140.101 c 128,-1,67
 1200.8 180.428 1200.8 180.428 1177.68 243.637 c 128,-1,68
 1154.56 306.846 1154.56 306.846 1140.81 387.688 c 1,0,-1
375.954 692.84 m 1,69,70
 418.478 706.887 418.478 706.887 461.05 703.658 c 128,-1,71
 503.624 700.43 503.624 700.43 542.676 687.227 c 128,-1,72
 581.729 674.024 581.729 674.024 615.314 643.944 c 128,-1,73
 648.899 613.863 648.899 613.863 673.445 574.208 c 128,-1,74
 697.991 534.552 697.991 534.552 711.551 478.416 c 128,-1,75
 725.111 422.281 725.111 422.281 724.114 356.968 c 0,76,77
 723.121 273.092 723.121 273.092 697.467 202.463 c 128,-1,78
 671.812 131.834 671.812 131.834 630.868 86.2568 c 128,-1,79
 589.922 40.6797 589.922 40.6797 536.339 16.6826 c 128,-1,80
 482.756 -7.31445 482.756 -7.31445 427.812 -4.68945 c 128,-1,81
 372.869 -2.06445 372.869 -2.06445 317.185 30.9238 c 128,-1,82
 261.5 63.9131 261.5 63.9131 218.258 125.544 c 0,83,84
 195.979 157.421 195.979 157.421 178.546 205.169 c 128,-1,85
 161.112 252.916 161.112 252.916 151.627 310.996 c 128,-1,86
 142.142 369.076 142.142 369.076 140.266 433.309 c 128,-1,87
 138.39 497.542 138.39 497.542 149.756 563.021 c 128,-1,88
 161.122 628.5 161.122 628.5 182.692 690.373 c 128,-1,89
 204.263 752.247 204.263 752.247 244.368 806.281 c 128,-1,90
 284.475 860.314 284.475 860.314 337.379 900.983 c 128,-1,91
 390.283 941.65 390.283 941.65 467.019 965.4 c 128,-1,92
 543.753 989.14 543.753 989.14 636.05 989.8 c 0,93,94
 871.742 991.84 871.742 991.84 992.712 864.239 c 0,95,96
 1075.24 777.19 1075.24 777.19 1072.48 668.406 c 0,97,98
 1070.06 573.18 1070.06 573.18 1003.89 523.893 c 0,99,100
 985.597 510.266 985.597 510.266 963.73 502.376 c 1,101,102
 1019.74 483.906 1019.74 483.906 1051.62 423.722 c 128,-1,103
 1083.52 363.538 1083.52 363.538 1078.74 290.198 c 128,-1,104
 1073.96 216.857 1073.96 216.857 1043.53 147.914 c 128,-1,105
 1013.1 78.9697 1013.1 78.9697 937.44 36.0156 c 128,-1,106
 861.775 -6.9375 861.775 -6.9375 758.931 0.616211 c 1,107,-1
 758.931 178.792 l 1,108,109
 837.51 160.518 837.51 160.518 880.008 221.062 c 0,110,111
 915.493 271.617 915.493 271.617 899.634 332.175 c 0,112,113
 883.08 395.391 883.08 395.391 819.551 411.238 c 0,114,115
 793.175 417.818 793.175 417.818 760.979 414.312 c 1,116,-1
 760.979 576.104 l 1,117,118
 846.729 576.104 846.729 576.104 883.521 631.854 c 0,119,120
 916.572 681.93 916.572 681.93 884.099 734.791 c 0,121,122
 839.423 807.514 839.423 807.514 705.281 818.56 c 0,123,124
 674.484 821.096 674.484 821.096 640.146 819.816 c 0,125,126
 573.98 817.56 573.98 817.56 529.474 808.979 c 128,-1,127
 484.965 800.395 484.965 800.395 456.003 782.558 c 128,-1,128
 427.04 764.721 427.04 764.721 410.625 745.298 c 128,-1,129
 394.209 725.874 394.209 725.874 375.954 692.84 c 1,69,70
316.562 344.68 m 0,130,131
 316.562 280.027 316.562 280.027 353.693 228.385 c 128,-1,132
 390.823 176.744 390.823 176.744 433.298 176.744 c 0,133,134
 478.663 176.744 478.663 176.744 513.023 220.102 c 128,-1,135
 547.382 263.46 547.382 263.46 545.938 338.536 c 0,136,137
 544.492 434.019 544.492 434.019 509.896 482.534 c 128,-1,138
 475.299 531.048 475.299 531.048 425.106 531.048 c 0,139,140
 380.125 531.048 380.125 531.048 348.344 474.175 c 128,-1,141
 316.562 417.303 316.562 417.303 316.562 344.68 c 0,130,131
EndSplineSet
Validated: 33
EndChar

